<?xml version="1.0" standalone="no"?>
<!DOCTYPE svg PUBLIC "-//W3C//DTD SVG 1.1//EN" "http://www.w3.org/Graphics/SVG/1.1/DTD/svg11.dtd" >
<svg xmlns="http://www.w3.org/2000/svg">
<metadata>
This is a custom SVG webfont generated by Font Squirrel.
Copyright   : Copyright c 2011 by Emil Bertell All rights reserved
Designer    : Emil Bertell
Foundry     : Emil Bertell
Foundry URL : httpnewmyfontscomfoundryFenotype
</metadata>
<defs>
<font id="MishkaRegular" horiz-adv-x="1032" >
<font-face units-per-em="2048" ascent="1536" descent="-512" />
<missing-glyph horiz-adv-x="409" />
<glyph unicode=" "  horiz-adv-x="409" />
<glyph unicode="&#x09;" horiz-adv-x="409" />
<glyph unicode="&#xa0;" horiz-adv-x="409" />
<glyph unicode="!" horiz-adv-x="561" d="M246 102q0 41 30.5 71t75.5 30q43 0 75 -30t32 -71q0 -43 -32 -72.5t-75 -29.5q-45 0 -75.5 29.5t-30.5 72.5zM262 567v676q0 158 17.5 200t103.5 -3q43 -33 53 -56.5t10 -103.5q0 -227 -21.5 -568t-66.5 -358q-49 -16 -72.5 45.5t-23.5 167.5z" />
<glyph unicode="&#x22;" horiz-adv-x="643" d="M103 1110q-1 66 6 145q4 78 9 118t16 73t33.5 30t57.5 -36q37 -33 44 -57.5t3 -100.5q-6 -115 -41.5 -266.5t-62.5 -159.5q-12 -4 -23.5 11.5t-19.5 47t-14.5 80.5t-7.5 115zM370 1110q-1 66 3 145q4 78 9 118t17.5 73t35 30t57.5 -36q37 -33 44 -57.5t3 -100.5 q-6 -115 -42 -266.5t-63 -159.5q-12 -4 -23.5 11.5t-20.5 47t-14 80.5t-6 115z" />
<glyph unicode="#" horiz-adv-x="1394" d="M104 326q-8 25 22 36t81 11h86l-4 487q-178 16 -185 31q-8 25 22 36t81 11h82v305q0 82 2 120t14 80t36 28.5t67 -31.5q43 -31 53 -55.5t10 -104.5q0 -63 -20 -340l428 6v297q0 82 2 120t14 80t35.5 28.5t66.5 -31.5q43 -31 53.5 -55.5t10.5 -104.5q0 -88 -19 -332h70 q63 0 94 -2t62.5 -11t22.5 -27.5t-23 -53.5q-25 -33 -44.5 -41t-80.5 -8q-4 0 -111 4l-37 -426h117q63 0 94 -2t62.5 -11.5t22.5 -27.5t-23 -53q-25 -33 -44.5 -41t-80.5 -8q-45 0 -162 6q-35 -350 -51 -357q-23 -8 -35 22t-12 81v260q-256 14 -488 33q-37 -389 -55 -396 q-23 -8 -35 22t-12 81v303q-183 17 -189 31zM403 375l480 6l-4 436q-106 4 -435 29z" />
<glyph unicode="$" horiz-adv-x="980" d="M102 295q0 59 43 107.5t125 48.5q86 0 109 -68q20 -55 -25 -84q-10 -8 -22 -10q-47 -12 -64.5 -30.5t-17.5 -51.5q0 -51 44 -92t132 -52v435q-217 111 -217 315q0 86 59.5 140.5t159.5 76.5v131q0 80 2 117t13.5 79t35 29.5t66.5 -30.5q43 -33 52 -56.5t9 -101.5 q0 -57 -8 -158q129 -10 205 -73.5t76 -165.5q0 -51 -37 -94t-109 -43q-53 0 -79.5 31.5t-18.5 67.5t45 44q72 14 72 70q0 84 -158 102q-12 -193 -27 -336q141 -57 222 -132t81 -204q0 -285 -366 -305q-20 -174 -31 -178q-25 -8 -36 20.5t-11 79.5v76q-145 8 -234.5 90 t-89.5 205zM279 838q0 -43 37.5 -76t109.5 -64q0 195 2 275q-149 -29 -149 -135zM512 61q125 8 208 64.5t83 157.5q0 14 -4 25t-13.5 22.5t-18.5 19.5t-26.5 18.5t-31 16.5t-36 15.5t-37.5 15.5t-42 15t-43 15q-16 -186 -39 -385z" />
<glyph unicode="%" horiz-adv-x="2113" d="M102 944v14q2 135 41 237.5t101.5 159t127 84t134.5 34.5q37 2 37 -25q-6 -29 -39 -33q-215 0 -217 -442v-17q0 -258 32.5 -350t133.5 -92q215 0 217 442v35q-115 -12 -198 34t-81 142q0 94 51.5 152.5t147.5 58.5q33 0 42 -1t46 -6t55.5 -21.5t45 -45t43 -77.5 t24.5 -117q143 88 250 281q18 66 44.5 78t78.5 -29q37 -31 43 -54.5t-7 -105.5q-23 -139 -179 -761.5t-179 -629.5q-14 -4 -22.5 2.5t-11.5 21.5t-2 34.5t5 44.5l199 1251q0 4 2 8q-94 -127 -215 -198q0 -10 1 -34t1 -38v-12q-2 -143 -45 -250t-112.5 -161t-138.5 -78.5 t-138 -24.5q-72 0 -124 19.5t-98 69.5t-70 150t-26 250zM451 1176q0 -78 63.5 -109t155.5 -18q-4 115 -18.5 176t-31 76.5t-47.5 17.5q-122 0 -122 -143zM1262 377v16q2 135 39.5 236.5t100 158t128 85t133.5 32.5q25 2 35 -12t-1 -29.5t-34 -15.5q-217 0 -219 -442v-17 q2 -258 33.5 -350t132.5 -92q217 0 217 444v2q0 154 -13.5 236t-32 101.5t-50.5 23.5q-57 0 -70 26q-8 16 25 25q23 6 61 6h8q31 0 49.5 -2t53 -11.5t57 -36t47.5 -67.5t37 -112.5t12 -165.5v-15q-2 -143 -45 -249.5t-111.5 -160.5t-137 -79t-138.5 -25q-74 0 -126 19.5 t-98 70t-69.5 150.5t-23.5 250z" />
<glyph unicode="&#x26;" horiz-adv-x="1466" d="M61 279v16q6 285 363 539q-72 100 -72 200v17q2 170 111.5 266t255.5 96q121 0 190 -78q94 -104 -30 -248q-76 -90 -232 -180q-35 -18 -74 -47q59 -66 226.5 -199t193.5 -157q49 125 76 184.5t77 147.5t101 141q123 121 250 76q74 -27 88 -84q10 -35 -14 -60 q-41 -43 -85 -39t-75 32t-68.5 38t-64.5 -16q-23 -23 -42 -49.5t-38.5 -61.5t-33 -61.5t-32 -72.5t-27.5 -69.5t-29.5 -80t-26.5 -74.5q231 -217 231 -412v-16q-2 -193 -154.5 -311.5t-341.5 -118.5q-78 0 -144.5 14t-106 35.5t-69.5 46t-34 44t0 30.5q14 14 49 -10.5 t121 -62.5t199 -38q143 0 241.5 103.5t98.5 252.5v17q0 137 -146 286q-80 -182 -194.5 -284.5t-309.5 -102.5q-170 0 -298 94.5t-130 256.5zM246 291q0 -121 76.5 -212t199.5 -91q145 0 240.5 100t175.5 283q-45 41 -220 182t-247 223q-221 -213 -225 -469v-16zM479 1047 q0 -63 56 -140l110 68q238 137 227 262q-6 78 -98 106q-33 10 -69 11q-106 0 -165 -76t-61 -213v-18z" />
<glyph unicode="'" horiz-adv-x="491" d="M205 1243q0 158 17.5 200t103.5 -3q43 -33 53 -56.5t10 -103.5q0 -121 -28.5 -280.5t-59.5 -170.5q-23 -8 -44 36t-36.5 144.5t-15.5 233.5z" />
<glyph unicode="(" horiz-adv-x="563" d="M10 518q0 2 1 12.5t1 12.5q2 313 107.5 572t266.5 398.5t337 139.5q45 0 43 -19q-2 -25 -49 -37q-14 -4 -27 -4q-150 0 -263.5 -139t-171.5 -372.5t-60 -524.5v-25q2 -307 44 -538.5t144 -380t256 -148.5q45 0 43 -22q-2 -27 -51 -35q-12 -2 -25 -2q-266 0 -429 308 t-167 804z" />
<glyph unicode=")" horiz-adv-x="561" d="M-203 -575q2 25 47 36q14 4 27 4q150 0 263.5 139.5t172 373t60.5 524.5v24q0 225 -25 413.5t-77 337t-139 232.5t-202 84q-43 0 -43 23q2 27 49 35q12 2 25 2q268 0 430 -307.5t166 -804.5v-25q-6 -473 -222 -791.5t-489 -318.5q-45 1 -43 19z" />
<glyph unicode="*" horiz-adv-x="1024" d="M115 1124q14 37 28.5 48.5t63.5 19.5q72 10 205 6q-76 66 -133 133q-49 59 -58.5 103.5t15.5 111.5q6 12 15 14.5t22.5 -6t26.5 -19.5t29.5 -28.5t27 -31t24.5 -29.5q51 -66 113 -178q12 88 49 184q18 47 29.5 70.5t27.5 41t34.5 9.5t43.5 -39q27 -31 30 -47.5t-16 -65.5 q-27 -68 -104 -196q80 33 194 51q84 16 101.5 10t36.5 -76q6 -33 -13.5 -43t-79.5 -18q-90 -16 -237 -8q78 -59 153 -150q33 -41 47.5 -61.5t22.5 -43t-7 -33.5t-52 -15t-52.5 3t-46.5 46q-63 74 -123 196q-16 -100 -53 -202q-18 -49 -29.5 -73t-26.5 -41t-31.5 -10 t-39.5 36q-23 31 -23.5 46t15.5 64q27 76 102 195q-86 -33 -192 -51q-86 -20 -126 -6.5t-13 83.5z" />
<glyph unicode="+" horiz-adv-x="1081" d="M43 571.5q-8 22.5 18.5 31.5t73.5 9q25 0 357 4v222q0 74 2 107.5t12 71.5t31.5 26.5t60.5 -27.5q39 -31 48 -52.5t9 -93.5q0 -61 -20 -252q229 4 242 5q57 0 85.5 -2.5t57.5 -10.5t20.5 -25.5t-22.5 -47.5q-23 -31 -40 -37t-73 -6q-98 0 -284 14q-20 -176 -45 -320.5 t-37 -148.5q-23 -8 -33 18.5t-10 73.5v72q0 61 -1 149t-1 164q-443 33 -451 55.5z" />
<glyph unicode="," horiz-adv-x="536" d="M197.5 110.5q-13.5 51.5 18.5 97.5t106 46q100 0 90 -164q-6 -98 -58.5 -209.5t-83.5 -120.5q-16 -4 -12 17q2 14 14 55q47 145 11 191q-10 12 -29 20q-43 16 -56.5 67.5z" />
<glyph unicode="-" horiz-adv-x="851" d="M104 479q-8 23 19 32t74 9q29 0 188.5 5t202.5 5q57 0 84.5 -2t56.5 -10t20.5 -25.5t-22.5 -48.5q-23 -31 -40 -37t-73 -6q-92 0 -298 29t-212 49z" />
<glyph unicode="." horiz-adv-x="520" d="M184 115q0 41 31 67.5t76 26.5q106 0 106 -94q0 -45 -31.5 -83t-74.5 -38t-75 38t-32 83z" />
<glyph unicode="/" horiz-adv-x="851" d="M104.5 -88q-4.5 31 8.5 80q4 18 105 376.5t200.5 715t112 407.5t23.5 88t24.5 77t29 63.5t31.5 38t36.5 11t43.5 -23.5q23 -23 27 -59.5t-1.5 -66.5t-21.5 -91q-33 -133 -298 -882.5t-290 -756.5q-26 -8 -30.5 23z" />
<glyph unicode="0" horiz-adv-x="948" d="M72 512q0 213 120.5 359.5t282.5 146.5h2q113 0 195 -45t125 -122t61.5 -162t18.5 -183q0 -213 -121 -359.5t-283 -146.5h-2q-113 0 -193.5 45t-123.5 122t-62.5 162t-19.5 183zM256 512q0 -244 44 -348.5t163 -104.5h2q127 0 177 101.5t50 339.5q0 244 -45 349t-162 105 h-2q-125 0 -176 -102t-51 -340z" />
<glyph unicode="1" horiz-adv-x="530" d="M27 672q-16 18 69 94q158 143 234 256q39 59 63 59q55 8 56 -137q0 -43 -1.5 -348t-1.5 -367q0 -80 -3 -119.5t-14 -79.5t-35.5 -30t-67.5 31q-43 35 -54.5 59.5t-9.5 102.5q14 418 78 747q-106 -141 -221 -235q-69 -60 -92 -33z" />
<glyph unicode="2" horiz-adv-x="983" d="M55 776q39 139 161 232.5t267 93.5q147 0 252 -80t105 -231q0 -74 -43 -153t-122 -159t-151.5 -141.5t-173.5 -134.5q86 14 150 -15q156 -72 237.5 -16.5t104.5 260.5q6 61 37 64q29 4 32 -47q0 -14 -2 -31q-31 -242 -155.5 -347.5t-294.5 -58.5q-174 43 -226 43 q-98 -4 -98 -92q0 -27 -24 -39q-27 -12 -33 33q-2 8 -2 20q0 41 43 91l-2 2q2 0 6 4q25 29 61 55q266 240 356.5 366t90.5 261q0 123 -45 196.5t-131 73.5q-111 0 -204 -76t-132 -217q-25 -92 28.5 -184t159.5 -92q20 0 29.5 -15.5t0.5 -30t-32 -14.5q-139 0 -215 114.5 t-35 264.5z" />
<glyph unicode="3" horiz-adv-x="858" d="M-8 299q0 59 35.5 105.5t105.5 46.5q51 0 78 -37t18.5 -77t-43.5 -50q-94 -27 -94 -88q0 -201 234 -201q111 0 181.5 98.5t70.5 233.5q0 152 -55.5 192.5t-162.5 7.5q-53 -16 -57 7q-4 20 51 45l2 2q209 143 209 264q0 190 -133 190q-82 0 -151.5 -57t-98.5 -162 q-20 -74 23 -141q23 -35 -2 -53q-16 -12 -39 14q-72 88 -37 213q29 104 123 177t205 73q115 0 206 -63.5t91 -176.5q0 -139 -213 -250q106 -6 176.5 -63t70.5 -184q0 -172 -143 -307.5t-317 -135.5q-158 0 -246 108.5t-88 268.5z" />
<glyph unicode="4" horiz-adv-x="944" d="M16 147q2 12 13 35q242 502 503 887q47 66 93 41q41 -12 41 -135q0 -25 -1 -153t-3.5 -317.5t-2.5 -314.5q25 0 53.5 -1t63.5 -3t53 -2q49 -2 67.5 -25.5t14.5 -43.5q-2 -10 -11 -10.5t-42 4t-63 6.5q-70 6 -136 6q-2 -115 -2 -236q0 -160 -17 -201.5t-103 3.5 q-43 33 -54.5 57.5t-9.5 101.5q2 53 14 277q-143 -4 -413 -27q-29 -2 -43 6q-6 0 -13 7q-16 15 -2 38zM102 170q172 20 390 23q41 575 81 808q-158 -239 -471 -831z" />
<glyph unicode="5" horiz-adv-x="960" d="M72 299q0 59 35.5 105.5t105.5 46.5q51 0 77.5 -37t17.5 -77t-44 -50q-92 -27 -92 -88q0 -104 51 -152.5t176 -48.5q113 0 185.5 98.5t72.5 233.5q0 184 -85 235t-289 -16q-49 -12 -80 -14.5t-43.5 33.5t-9 103.5t21.5 194.5q33 225 115 262q33 14 60.5 20.5t59 2.5 t51 -8t63.5 -18.5t67 -20.5q174 -43 225 -43q98 4 98 92q0 27 25 39q27 12 33 -33q2 -8 2 -20q0 -55 -71 -121t-165 -94.5t-188 4.5q-23 10 -55.5 27.5t-48 24.5t-43 17.5t-41 8.5t-44.5 -5q-35 -12 -71 -225q-31 -166 14 -166q8 0 18 4q100 35 202 43.5t190 -14t143 -94.5 t55 -184q0 -172 -143 -307.5t-317 -135.5q-158 0 -246 108.5t-88 268.5z" />
<glyph unicode="6" horiz-adv-x="960" d="M72 526q0 197 58 356.5t149.5 254t189.5 144.5t188 50q70 0 147 -35.5t117 -81t15 -69.5q-10 -18 -37 -2t-49.5 43.5t-80.5 54.5t-130 27q-111 0 -195 -110.5t-123.5 -269.5t-39.5 -327q0 -285 47 -424t168 -139q111 0 168 121t57 280q0 221 -83 282.5t-263 -1.5 q-53 -16 -56 4q-4 20 50 47q84 41 175 51.5t174 -15.5t137 -112t54 -223q0 -233 -123.5 -371.5t-308.5 -138.5q-180 0 -292.5 153.5t-112.5 450.5z" />
<glyph unicode="7" horiz-adv-x="892" d="M45 1054.5q-8 61.5 5 119t40 83.5q57 53 70 25q8 -18 -13 -53q-29 -43 6 -95.5t117 -52.5q176 0 350.5 30t196.5 97q4 10 12.5 16.5t15.5 0.5t7 -29v-12v-4l-2 -4q-6 -41 -87 -274.5t-176 -503t-102 -285.5q-27 -78 -43 -117t-39.5 -70.5t-48 -25.5t-55.5 43 q-33 39 -35 61.5t27 101.5q68 176 202 461t242 484q-96 -63 -233 -106.5t-256 -43.5q-88 0 -140.5 46t-60.5 107.5z" />
<glyph unicode="8" horiz-adv-x="972" d="M61 287q0 227 242 311q84 27 66 -6q-10 -18 -50 -51q-4 -2 -22 -18.5t-31.5 -27t-33 -33t-31 -44t-20.5 -52t-9 -63.5q0 -131 84 -221t211 -90t190.5 76.5t63.5 199.5q0 100 -57.5 173t-139.5 118t-165 90t-140 118t-57 173q0 174 111.5 256t289.5 82q143 0 220 -91 t77 -241q0 -86 -60.5 -166t-125.5 -90q-37 -6 -42 5.5t25 35.5q37 31 56.5 48.5t48.5 66.5t29 102q0 117 -66 189.5t-176 72.5q-109 0 -165 -70.5t-56 -176.5q0 -72 60.5 -135.5t145 -113.5t171 -105.5t146.5 -133.5t60 -172q0 -203 -127 -292t-335 -89q-174 0 -281 97.5 t-107 267.5z" />
<glyph unicode="9" horiz-adv-x="985" d="M72 -139q20 20 51 -5.5t96.5 -65.5t149.5 -40q102 0 185 112.5t125 273.5t42 327q0 285 -47 424t-168 139q-113 0 -168 -115.5t-55 -285.5q0 -203 77.5 -271.5t266.5 -9.5q53 16 57 -4q2 -20 -51 -47q-88 -43 -183.5 -48t-176 25.5t-134 114.5t-53.5 207q0 242 126 376 t312 134q180 0 290 -152.5t110 -451.5q0 -168 -39 -308.5t-101.5 -230.5t-140.5 -153.5t-151.5 -91t-141.5 -27.5q-63 0 -140 32.5t-120 74.5t-18 67z" />
<glyph unicode=":" horiz-adv-x="552" d="M205 115q0 41 30.5 67.5t75.5 26.5q106 0 107 -94q0 -45 -32 -83t-75 -38t-74.5 38t-31.5 83zM217 700q0 41 32 68t75 27q106 0 106 -95q0 -45 -31.5 -82.5t-74.5 -37.5q-41 0 -74 37.5t-33 82.5z" />
<glyph unicode=";" horiz-adv-x="561" d="M197.5 110.5q-13.5 51.5 18.5 97.5t106 46q100 0 90 -164q-6 -98 -58.5 -209.5t-83.5 -120.5q-16 -4 -12 17q2 14 14 55q47 145 11 191q-10 12 -29 20q-43 16 -56.5 67.5zM225 700q0 41 32 68t75 27q106 0 106 -95q0 -45 -31.5 -82.5t-74.5 -37.5q-41 0 -74 37.5 t-33 82.5z" />
<glyph unicode="&#x3c;" horiz-adv-x="1146" d="M102 676v2v6l7 10q4 6 18 17q18 16 51 28l96 39l52 23l249 106l41 17l97 41q10 4 28.5 11t20.5 9l26 12l33 13l8 4l11 4l43 18l20 6q14 6 27 11l16 6l23 6q20 4 26 4h13q4 0 12 -4q4 0 8 -4q8 -4 10 -12l4 -15v-6v-6q0 -18 -6 -39l-4 -14q0 -2 -4 -11q0 -6 -2 -8 q-6 -16 -14 -26.5t-25 -20.5q-2 0 -2 -2q-16 -8 -61 -27l-17 -8l-22 -6l-25 -10l-45 -14q-6 -2 -30.5 -9.5t-41.5 -11.5l-38 -12l-21 -6l-41 -11q-299 -84 -438 -110l2 -2h2l70 -29l32 -14l56 -23q14 -4 43 -16q76 -33 206 -82l256 -102l25 -11l41 -18q33 -14 37 -17l12 -6 q23 -10 39 -26q4 -4 4 -6l4 -7v-6v-4q0 -4 -2 -6v-2l-2 -4q-6 -10 -35 -29l-12 -8q-4 0 -8 -4q-2 0 -4 -2q-2 0 -5 -1t-5 -1q-16 -4 -27 -2h-6q-31 10 -56 20q-8 2 -28 13l-15 6l-198 94q-344 170 -475 250q-39 25 -45 33h-2l-5 4q-2 2 -2 8z" />
<glyph unicode="=" horiz-adv-x="1204" d="M104 358q-6 23 21 33t74 10q29 0 363.5 5.5t377.5 5.5q57 0 85 -2t56.5 -10.5t20.5 -26t-23 -47.5q-23 -31 -40 -38t-72 -7q-109 0 -483 29.5t-380 47.5zM104 682q-6 23 21 33t74 10q29 0 363.5 4t377.5 4q57 0 85 -2t56.5 -10t20.5 -24.5t-23 -47.5q-23 -31 -39 -38 t-73 -7q-113 0 -485 29t-378 49z" />
<glyph unicode="&#x3e;" horiz-adv-x="1146" d="M102 287q0 8 4 28q0 6 5 19q12 47 30 63l4 4q18 14 78 39l17 6q4 2 47 17q37 12 45 14q84 27 256 76q221 59 338 84l16 4h-4l-31 12l-39 17l-34 14q-35 12 -56 21l-108 45l-207 81l-152 60l-37 16l-18 6l-6 5l-19 6q-70 29 -94 45q-2 2 -9 7t-9 9l-4 6q-4 8 -4 14.5 t4 10.5q0 2 2 4q2 4 12 14l10 6l4 4q6 2 9 5q31 16 43 18q10 4 22 0q8 -4 14 -4l19 -6q2 0 24 -10l9 -5q4 0 8 -4l74 -32q279 -133 452 -228l127 -67q72 -43 86 -56q4 -4 6 -4h2q4 -8 4 -10q2 -6 0 -10q-2 -12 -22 -29l-16 -8q-12 -8 -21 -10l-6 -4q-2 0 -6 -2h-2l-113 -50 l-264 -110l-41 -19l-100 -41l-35 -16l-31 -12l-41 -17q-12 -8 -27 -12q-39 -18 -73 -31q-6 -2 -14.5 -5t-12.5 -3l-10 -4q-8 -4 -17 -4q-80 -23 -86 27q0 2 -2 6z" />
<glyph unicode="?" horiz-adv-x="1017" d="M119 1212q37 139 148.5 217t260.5 78q156 0 271.5 -102t115.5 -307q0 -125 -62 -215t-147 -141.5t-168 -99.5t-131.5 -115.5t-27.5 -161.5q4 -20 -5 -31.5t-22.5 -5.5t-17.5 30q-20 100 10.5 177t91 130.5t123 105.5t108.5 131t46 179q0 174 -59.5 262.5t-155.5 88.5 q-246 0 -316 -263q-35 -135 54 -239q27 -31 6 -53q-25 -25 -64 18q-112 133 -59 317zM252 102q0 41 30.5 71t75.5 30q43 0 75 -30t32 -71q0 -43 -32 -72.5t-75 -29.5q-45 0 -75.5 29.5t-30.5 72.5z" />
<glyph unicode="@" horiz-adv-x="1425" d="M102 653v15q2 326 201 520t510 194q219 0 364.5 -179t145.5 -521q0 -156 -76 -252t-162 -96q-72 0 -134 47t-91 154q-55 -188 -178 -189q-223 0 -223 324v10q0 92 30.5 162.5t78.5 106.5t96.5 53.5t93.5 17.5q61 0 92 -37q10 33 49 51q31 4 48.5 13.5t25.5 -16t9 -43 t1 -68.5v-21v-219q0 -162 27.5 -229.5t89.5 -67.5q66 0 116 84t50 223q0 317 -131 481t-340 164q-279 0 -414 -174t-137 -485v-14q0 -287 119.5 -445t336.5 -158q154 0 307.5 51.5t225.5 137.5q29 37 49 20q16 -14 -10 -45q-78 -86 -232.5 -148.5t-357.5 -62.5 q-250 0 -414 167t-166 474zM596 678q0 -168 20.5 -227.5t85.5 -59.5q61 0 101.5 109.5t40.5 273.5v2q0 199 -107 199q-141 0 -141 -287v-10z" />
<glyph unicode="A" horiz-adv-x="1798" d="M33 338q0 121 85 203t187 82q92 0 121 -78q9 -25 9 -45q0 -33 -25 -54q-16 -12 -37 -12q-92 0 -168 -40t-76 -134q0 -88 52 -141t136 -53q96 0 187.5 134t148.5 375q0 14 6 29l7 27q94 451 160.5 632t134.5 220l-70 18q-35 4 -84 5h-6q-47 0 -101 -15q-57 -16 -106 -40 t-83 -71q-36 -50 -36 -110q0 -65 135 -101q70 -19 70 -71q0 -54 -57 -72q-14 -5 -30 -5q-31 0 -69 19q-47 23 -75 89q-27 62 -27 135v10q4 139 159 231q110 66 237 66q51 0 104 -10q182 -35 287.5 -185.5t176.5 -519.5q84 -430 156 -610t168 -180q160 0 211 360q10 68 37 70 q24 0 24 -42q0 -9 -2 -20q0 -10 -2 -22q-68 -412 -286 -412q-70 0 -121 18.5t-107.5 71.5t-105.5 167t-94 292q-106 -2 -282.5 -9.5t-264.5 -7.5q-72 -266 -170 -399t-250 -133q-127 0 -195.5 96.5t-68.5 241.5zM745 645q72 0 240 -1t258 -1q-8 33 -10 49q-25 113 -51.5 253 t-39 201.5t-31.5 132.5t-37.5 105.5t-47.5 59.5q-88 -11 -281 -799z" />
<glyph unicode="B" horiz-adv-x="1454" d="M80 219q-7 34 -8 69q0 51 17 101q28 84 97 117q39 18 71 18q39 0 65 -28q21 -23 21 -47q0 -20 -15 -39q-18 -25 -58 -35q-96 -23 -112 -109q-3 -17 -4 -33q0 -69 65 -120q66 -53 170 -54q133 0 191.5 162t60.5 567v560q-104 -27 -184 -76t-117 -102.5t-42 -107.5 q-1 -5 -1 -11q0 -48 43 -84q29 -27 57 -32q8 -1 17 -1q27 0 69 10q9 2 18 2q38 0 46 -47q1 -8 1 -16q0 -67 -61 -129q-52 -47 -108 -47q-6 0 -11 1q-62 5 -96 58q-66 106 -65 208q0 90 50 177q108 186 388 256q8 33 60 72q44 30 68 30q7 0 12 -3q24 -11 32 -70q74 4 113 4 q215 0 321.5 -76t106.5 -256v-14q-2 -236 -234 -332q297 -43 299 -326v-16q-2 -211 -157.5 -315.5t-411.5 -104.5q-139 0 -270 68q-92 -68 -228 -68q-111 0 -184.5 66.5t-91.5 152.5zM645 121q109 -61 223 -62q176 0 272.5 91.5t98.5 255.5v16q0 152 -84 222q-79 67 -239 67 h-19q-25 -2 -70 -2h-6q-20 -416 -176 -588zM823 768q4 0 16.5 -1t18.5 -1q315 0 318 313v17q-2 139 -62.5 211.5t-214.5 72.5q-51 0 -76 -2v-610z" />
<glyph unicode="C" horiz-adv-x="933" d="M72 698v17q2 150 37.5 273.5t92 204.5t126 136t137 80t131.5 25q115 0 201 -58.5t121 -140.5q26 -61 25 -127q0 -23 -3 -47q-12 -92 -78 -158q-45 -47 -100 -55q-8 -1 -16 -1q-48 0 -97 42q-61 61 -60 126q0 10 1 19q10 49 49 49q7 0 14 -2q45 -11 72 -11q8 0 14 1 q29 4 56 31q25 25 34 58q6 19 6 39q0 16 -4 32q-8 37 -35.5 69.5t-87 53t-143.5 20.5q-129 0 -219 -165t-92 -482v-16q2 -651 319 -652q176 0 297 106.5t146 270.5q10 68 37 70q24 0 23 -42q0 -9 -1 -20q0 -10 -2 -22q-31 -193 -174 -307.5t-356 -114.5q-201 0 -335 166.5 t-136 531.5z" />
<glyph unicode="D" horiz-adv-x="1409" d="M31 338q18 123 112 168q39 18 71 18q39 0 65 -28q21 -23 21 -47q0 -20 -15 -39q-18 -25 -58 -35q-96 -23 -112 -109q-3 -17 -4 -33q0 -69 65 -120q66 -53 170 -54q133 0 191.5 162t60.5 567v545q-70 -27 -131 -67.5t-101 -82.5t-67 -85t-27 -76t19 -55q29 -27 57 -32 q8 -1 17 -1q27 0 69 10q9 2 18 2q38 0 46 -47q1 -8 1 -16q0 -67 -61 -129q-50 -47 -107 -47q-6 0 -12 1q-63 5 -96 58q-45 75 -45 155q0 94 62 195q115 188 360 275q4 33 16.5 48t45.5 40q44 30 68 29q8 0 13 -3q25 -12 33 -73q49 8 113 8q244 0 365.5 -153.5t123.5 -532.5 v-17q-2 -186 -55 -332.5t-139 -231.5t-187.5 -129t-212.5 -44q-137 0 -249 63q-92 -63 -222 -63q-145 0 -223 108q-63 87 -63 183q0 23 4 47zM598 117q84 -57 219 -58q375 0 377 666v16q0 344 -76 491.5t-262 147.5q-51 0 -76 -4q0 -14 1 -46t1 -50v-479q-6 -496 -184 -684z " />
<glyph unicode="E" horiz-adv-x="944" d="M72 354v17q2 123 73.5 202.5t184.5 118.5q-213 74 -215 330v14q2 102 51 182t125 124t154.5 67t152.5 23q115 0 200 -58.5t120 -140.5q26 -62 26 -130q0 -22 -3 -44q-11 -92 -77 -158q-47 -47 -101 -55q-7 -1 -15 -1q-47 0 -99 44q-60 60 -60 125q0 8 1 16q10 51 49 51 q7 0 14 -2q45 -11 73 -11q8 0 14 1q30 4 57 31q25 25 34 59q5 18 6 37q0 17 -4 35q-9 37 -37 68.5t-87.5 52t-143.5 20.5q-113 0 -188.5 -83t-77.5 -238v-17q0 -143 51 -223t152 -80h12q8 0 23.5 1t23.5 1q58 0 58 -20q0 -27 -62 -37q-14 -2 -29 -2q-125 0 -198.5 -73 t-73.5 -216v-18q0 -135 100.5 -222.5t233.5 -87.5q166 0 299 108.5t155 268.5q10 66 37 70h4q21 0 21 -51q0 -14 -2 -33q-31 -188 -188.5 -305t-358.5 -117q-115 0 -219.5 32.5t-185 116.5t-80.5 207z" />
<glyph unicode="F" horiz-adv-x="1042" d="M45 893q-10 45 -10 92t10 95q20 97 72.5 184.5t156 143.5t236.5 56q131 0 269.5 -48t262.5 -90q97 -32 186 -32q26 0 52 2q102 10 161.5 48t68.5 84q4 18 4 36q0 28 -9 55q-14 44 -49 70q-31 25 -59 26h-3q-29 0 -83 -20q-12 -4 -23 -4q-32 0 -43 43q-4 17 -4 34 q0 57 47 116q52 54 106 54h2q54 -1 105 -44q96 -78 106 -204q1 -12 1 -24q0 -112 -78 -207q-86 -105 -236 -122q-61 -6 -127 -6q-164 0 -354 37q8 -39 8 -172v-160q6 -45 43 -54.5t178 -9.5q29 0 39.5 -14t-2 -28.5t-39.5 -14.5q-127 0 -169 -9t-50 -44q-18 -762 -467 -762 q-111 0 -184.5 66.5t-91.5 152.5q-7 34 -8 69q0 51 17 101q28 84 97 117q39 18 71 18q39 0 64 -28q21 -23 22 -47q0 -20 -15 -39q-18 -25 -58 -35q-96 -23 -112 -109q-3 -17 -4 -33q0 -69 65 -120q66 -53 170 -54q131 0 189.5 154t62.5 535q-4 41 -18.5 50t-53.5 9 q-43 0 -43 28.5t43 28.5q41 0 55.5 11.5t16.5 54.5v205q0 78 9 102.5t48 52.5q-127 23 -204 23q-143 0 -233.5 -33t-120 -82t-29.5 -105.5t20.5 -101.5t48.5 -73q23 -23 47 -26q6 -1 13 -1q24 0 63 8q8 2 14 2q32 0 39 -41q1 -8 1 -15q0 -55 -52 -108q-45 -36 -85 -35h-12 q-46 6 -85 46q-56 55 -76 145z" />
<glyph unicode="G" horiz-adv-x="976" d="M74 -225q18 123 112 168q39 18 71 18q39 0 65 -29q21 -23 21 -46q0 -20 -15 -40q-18 -25 -58 -34q-96 -23 -112 -109q-3 -17 -4 -32q0 -70 67 -124q66 -53 170 -53q158 0 248 149.5t102 493.5q-88 -137 -249 -137q-86 0 -153 26.5t-127 92t-94 196.5t-36 322v14 q2 184 55 329.5t135 227.5t169 123t167 41q115 0 200 -58.5t120 -139.5q26 -62 26 -130q0 -22 -3 -45q-11 -92 -77 -157q-47 -47 -100 -56q-8 -1 -15 -1q-46 0 -97 42q-61 61 -61 126q0 10 1 20q7 47 44 47q8 0 18 -2q43 -9 70 -9q9 0 17 1q30 4 56 30q25 25 35 59 q5 18 5 36q0 17 -4 34q-9 37 -37 70t-87.5 53.5t-143.5 20.5q-129 0 -218 -165t-91 -482v-17q0 -326 62.5 -458t195.5 -132q100 0 153.5 68t67.5 164v88q0 80 10.5 104.5t53.5 57.5q43 20 67.5 30.5t36 -29.5t14.5 -80t3 -120l-2 -106q-2 -223 -51.5 -384t-132 -249 t-178 -127t-208.5 -39q-147 0 -225 107q-63 87 -63 184q0 23 4 47z" />
<glyph unicode="H" horiz-adv-x="1507" d="M-2 207q-8 35 -8 70q0 50 16 100q27 84 96 117q39 18 71 18q39 0 65 -29q21 -23 21 -46q0 -20 -15 -40q-18 -25 -58 -35q-96 -23 -112 -108q-3 -15 -3 -30q0 -71 66 -126q66 -53 170 -53q125 0 199 133t90 438q-57 -3 -117 -2q-169 0 -368 21q-25 2 -33 19.5t3 30.5 t32 11q185 -19 357 -19q66 0 130 3v625q0 80 10.5 104.5t53.5 56.5q43 20 67.5 30.5t35.5 -29.5t14 -79.5t3 -119.5v-482q0 -16 -1 -46.5t-1 -45.5q158 18 289 60v180q0 248 42 428t110.5 270t138.5 129t145 39q117 0 187 -137q52 -102 51 -222q0 -80 -23 -167 q-80 -299 -389 -473q-37 -23 -78 -41v-254q0 -266 26 -353t116 -87q158 0 209 360q10 66 36 70q25 2 25 -47q2 -16 -2 -37q-70 -412 -289 -412q-141 0 -223 108.5t-82 397.5v184q-123 -37 -295 -59q-31 -342 -169 -492.5t-333 -150.5q-111 0 -184.5 66.5t-91.5 152.5z M1255 825q266 133 359 358q58 141 58 258q0 69 -20 130q-54 164 -157 164q-240 0 -240 -801v-109z" />
<glyph unicode="I" horiz-adv-x="888" d="M74 338q18 123 112 168q39 18 71 18q39 0 65 -28q21 -23 21 -47q0 -20 -15 -39q-18 -25 -58 -35q-96 -23 -112 -109q-3 -17 -4 -33q0 -69 65 -120q66 -53 170 -54q141 0 217 169t78 560v510q-61 -25 -197 -24q-111 0 -173 -30t-70 -74q-3 -14 -3 -28q0 -30 12 -61 q17 -45 52 -82q27 -27 55 -30q6 -1 15 -1q28 0 74 11q9 2 17 2q38 0 46 -47q1 -8 1 -16q0 -67 -60 -130q-52 -43 -99 -42h-14q-53 7 -102 55q-94 94 -106 219q-1 14 -1 28q0 107 76 190q86 93 248 93q207 0 233 66q0 6 4 18v2q0 2 2 4q8 23 54 58q43 20 67 30q5 2 10 2 q17 0 26 -31q11 -40 14 -80t3 -120v-479q-2 -180 -31.5 -321.5t-77.5 -229.5t-114.5 -145.5t-136.5 -81t-150 -23.5q-147 0 -225 108q-63 87 -63 183q0 23 4 47z" />
<glyph unicode="J" horiz-adv-x="999" d="M63 -455q-11 46 -11 96q0 160 114 369q170 309 487 518q8 6 17 11v764q-59 -27 -197 -27q-111 0 -173 -29.5t-70 -74.5q-2 -13 -2 -26q0 -31 12 -63q16 -45 53 -79q25 -27 54 -31q7 -1 17 -1q27 0 70 9q9 2 18 2q38 0 46 -47q1 -8 1 -16q0 -67 -61 -129q-51 -42 -98 -43 q-8 0 -15 2q-54 8 -102 55q-70 70 -92 162q-11 45 -11 87q0 45 12 87q24 82 105.5 138t202.5 56q207 0 234 64q0 6 4 18v2q0 2 2 4q10 27 53 58q43 20 68 31q5 2 10 3q17 0 26 -32q11 -41 14 -80t3 -121q0 -45 -1 -288.5t-1 -354.5q90 43 195 74q55 16 84 16q33 0 33 -17 q0 -16 -42 -38q-25 -10 -55 -21q-100 -31 -215 -82v-67q0 -295 -32 -510t-80 -335t-121.5 -189.5t-138 -89t-148.5 -19.5q-222 0 -269 184zM158 -444q43 -129 184 -129q188 0 257 223t71 815q-301 -205 -447 -504q-82 -170 -82 -298q1 -58 17 -107z" />
<glyph unicode="K" horiz-adv-x="1593" d="M80 219q-7 34 -8 69q0 51 17 102q28 85 97 118q38 18 69 18q40 0 67 -30q21 -22 21 -46q0 -20 -15 -40q-18 -25 -58 -33q-96 -23 -112 -109q-3 -17 -4 -33q0 -69 65 -122q66 -53 170 -54q293 0 295 729v512q-70 -27 -197 -26q-111 0 -173 -30t-70 -74q-3 -14 -3 -28 q0 -30 12 -61q17 -45 52 -80q27 -27 56 -30q7 -1 15 -1q28 0 73 11q9 2 17 2q37 0 44 -47q1 -9 1 -17q0 -68 -58 -131q-51 -42 -98 -42q-8 0 -16 2q-54 8 -101 55q-94 94 -106 219q-1 14 -1 28q0 107 76 190q86 93 248 93q207 0 233 64q0 6 4 18v2q0 4 2 4q10 27 54 58 q45 23 70 23q24 0 33 -20q17 -42 17 -202v-373q90 272 192.5 415.5t199.5 143.5q268 0 268 -249q0 -68 -36 -115t-108 -47q-92 0 -139 59q-19 22 -18 41q0 22 26 39q51 31 68.5 53.5t17.5 61.5q0 92 -100 92q-80 0 -182.5 -193.5t-194.5 -533.5v-12q104 154 254 153 q131 0 199.5 -75.5t68.5 -268.5v-115q0 -160 28 -225t114 -65q156 0 209 362q10 66 37 68q25 4 24 -50q0 -14 -2 -32q-70 -414 -289 -414q-135 0 -220 83t-85 273v115v60q0 36 1 53.5t0 45t-4 39t-7 29t-12.5 24.5t-19.5 15t-26.5 11.5t-35.5 3.5q-154 0 -260 -279 q-55 -250 -183.5 -361.5t-296.5 -111.5q-111 0 -184.5 66.5t-91.5 152.5z" />
<glyph unicode="L" horiz-adv-x="1124" d="M88 96q-17 39 -17 77q0 55 38 108q72 100 241 100q72 0 148 -29q14 113 14 291q0 297 49 498q-160 47 -338 162q-20 14 -19 32.5t17.5 24.5t34.5 -4q166 -111 319 -158q98 326 359 326q106 0 133 -94q7 -26 7 -51q0 -74 -58 -146q-95 -118 -274 -118q-14 0 -29 1 q-16 -158 -17 -473q0 -209 -67 -367q20 -16 69.5 -57t74 -59.5t66.5 -37t83 -18.5q139 0 197.5 69t86.5 257q8 68 37 68h2q21 0 21 -44v-16q0 -10 -2 -22q-68 -412 -367 -412q-72 0 -137.5 27.5t-101 56.5t-91.5 82q-125 -170 -325 -170q-111 0 -154 96zM125 215 q-10 -22 -11 -42q0 -39 40 -73q43 -37 110 -37q162 0 213 185q-72 55 -145 55q-166 0 -207 -88zM717 1169q22 -2 42 -1q160 0 234 100q35 46 35 88q0 27 -14 53q-25 49 -92 49q-90 0 -137.5 -65.5t-67.5 -223.5z" />
<glyph unicode="M" horiz-adv-x="2236" d="M80 219q-8 35 -8 70q0 50 16 100q27 84 96 117q39 18 71 18q39 0 64 -28q21 -23 22 -47q0 -20 -15 -39q-18 -25 -58 -35q-96 -23 -112 -109q-3 -15 -3 -30q0 -71 66 -123q66 -53 170 -54q141 0 217 169t76 560q0 18 -1 75t-1 83q0 348 -145 451q-45 31 -92 31 q-54 0 -109 -42q-113 -82 -127 -251q-2 -20 -2 -41q0 -178 62 -261q42 -56 99 -56q28 0 60 14q88 37 100 112q2 11 2 21q0 41 -34 51q-7 2 -15 2q-20 0 -47 -14q-31 -18 -55 -18q-29 0 -49 26q-16 21 -17 44q0 25 21 52q25 31 74 47q21 7 39 7q60 0 104 -68q37 -58 37 -121 q0 -36 -13 -74q-29 -82 -116 -119q-54 -23 -101 -22q-76 0 -133 59q-92 96 -92 324q0 113 44 202t111.5 136t151.5 57q20 2 41 3q62 0 121 -24q78 -32 143.5 -115t96.5 -206q49 176 132 248t173 72q109 0 172 -67t84 -243q51 164 132 230.5t165 66.5q135 0 201.5 -105.5 t66.5 -400.5v-448q0 -266 25.5 -353t115.5 -87q160 0 209 360q10 66 37 70q25 2 25 -47q1 -5 0 -12q0 -12 -2 -25q-68 -412 -289 -412q-141 0 -223 108.5t-82 397.5v448v119q1 56 1 95.5t-1 62.5q-2 45 -11.5 92t-31 59.5t-60.5 12.5t-75.5 -21.5t-77.5 -74t-72 -160 t-43 -258.5v-725v-19q0 -86 -35 -113q-30 -23 -83 -24q-15 0 -31 2q-14 0 -22.5 3t-13.5 9t-6 14.5t-1 25t2 32.5t3 45t1 57q0 55 2 382t2 397v108v48q0 171 -14 224q-15 60 -91 60q-82 0 -155.5 -98.5t-104.5 -345.5v-29q0 -45 1 -80t1 -53q0 -223 -43 -385t-118.5 -249 t-161.5 -127t-187 -40q-111 0 -184.5 66.5t-91.5 152.5z" />
<glyph unicode="N" horiz-adv-x="1634" d="M72 1100q0 117 45 206t115.5 136t155.5 54q14 1 28 1q70 0 136 -30q79 -36 143.5 -126t90.5 -223q49 193 134.5 274t177.5 81q133 0 199.5 -109t66.5 -403v-455q0 -264 26.5 -352t114.5 -88q160 0 211 360q10 68 37 70q23 0 23 -47v-15q0 -10 -2 -22q-68 -412 -289 -412 q-141 0 -222 108.5t-81 397.5v455v108v48q0 172 -14 228q-15 62 -91 62q-43 0 -83 -27.5t-83 -92t-71.5 -197t-36.5 -318.5v-543q0 -82 -2 -119.5t-15 -79.5q-10 -32 -25 -33q-5 0 -10 3q-24 12 -67 31q-43 33 -53 57.5t-10 104.5v753q0 350 -148 451q-46 31 -92 31 q-54 0 -109 -42q-113 -82 -127 -253q-2 -20 -2 -39q0 -178 63 -261q42 -56 99 -56q28 0 60 14q88 37 100 112q2 11 2 21q0 41 -35 51q-7 2 -15 2q-20 0 -46 -14q-31 -18 -55 -18q-29 0 -50 26q-16 21 -16 44q0 25 20 52q25 31 74 47q21 7 40 7q60 0 103 -68q37 -58 38 -121 q0 -36 -13 -74q-29 -82 -117 -119q-54 -23 -100 -22q-76 0 -132 59q-91 97 -91 324z" />
<glyph unicode="O" horiz-adv-x="1067" d="M0 1048.5q0 186.5 148.5 313.5t386.5 127q500 0 501 -715v-51q-2 -166 -38.5 -296t-91 -208t-126 -129t-138.5 -70.5t-132 -19.5q-176 0 -292 166t-118 532v54q0 18 2 28q-102 82 -102 268.5zM63 1073q0 -127 48 -196q23 164 88 279.5t149 160.5q57 33 113 40q9 1 17 1 q39 0 44 -29q0 -12 -14 -18t-40 -11.5t-40 -11.5q-74 -35 -106.5 -151.5t-36.5 -323.5q61 16 115.5 65.5t78.5 118.5q24 61 70 62q8 0 16 -2q49 -8 60 -64q2 -9 1 -18q0 -37 -26 -78q-45 -72 -133 -120t-182 -52v-14q0 -651 258 -652q135 0 221 150.5t88 503.5v39 q0 350 -82 514t-268.5 164t-312.5 -99.5t-126 -257.5z" />
<glyph unicode="P" horiz-adv-x="1359" d="M74 338q18 123 112 168q39 18 71 18q39 0 65 -28q21 -23 21 -47q0 -20 -15 -39q-18 -25 -58 -35q-96 -23 -112 -109q-3 -17 -4 -33q0 -69 65 -120q66 -53 170 -54q135 0 192.5 162t59.5 567v560q-209 -55 -300 -177q-46 -61 -46 -112t45 -94q29 -27 56 -31q6 -1 14 -1 q27 0 73 11q9 2 18 2q38 0 46 -47q1 -8 1 -16q0 -67 -61 -129q-50 -47 -107 -47q-6 0 -11 1q-63 5 -97 58q-65 105 -65 207q0 90 51 178q109 186 389 256q6 33 58 72q44 32 68 31q7 0 13 -3q25 -12 33 -71q70 4 113 4q217 0 321.5 -102.5t106.5 -311.5v-16 q-2 -121 -49 -215.5t-126 -148.5t-170 -81.5t-188 -27.5h-20q-76 -537 -449 -537q-147 0 -225 108q-63 87 -63 183q0 23 4 47zM813 598q14 -2 47 -2q311 0 316 399v17q0 178 -57.5 273t-219.5 95q-51 0 -76 -2q2 -29 2 -98v-479q-2 -111 -12 -203z" />
<glyph unicode="Q" horiz-adv-x="1155" d="M72 815q0 240 155.5 420t388.5 180q502 0 502 -684q0 -307 -139 -493.5t-356 -266.5q33 -70 55 -109.5t67.5 -73.5t100.5 -34q104 0 168.5 41t120.5 131q31 51 52 51q4 0 9 -2q11 -6 11 -20q0 -20 -21 -57q-2 -2 -4 -7q-70 -111 -168.5 -172t-204.5 -61 q-61 0 -109.5 22.5t-82 68.5t-54 87t-43.5 105q-106 -27 -211 -27q-182 0 -215 109q-6 20 -6 40q0 63 59 123q78 78 193 78q94 0 149.5 -58.5t102.5 -164.5q152 78 248 243t96 425q0 336 -82 491.5t-268 155.5q-184 0 -318.5 -153.5t-134.5 -362.5q0 -154 49 -241t116 -94 q7 -1 14 -1q60 0 124 53q72 59 115 174q24 62 71 62h11q49 -8 61 -62q2 -11 3 -22q0 -37 -27 -78q-41 -63 -100.5 -111.5t-126.5 -74.5q-52 -20 -104 -20l-29 2q-67 7 -120 45t-85.5 126t-32.5 217zM180 33q33 -55 148 -56q84 0 170 27q-35 94 -74 144.5t-102 50.5 q-80 0 -127 -56q-28 -33 -28 -65q0 -22 13 -45z" />
<glyph unicode="R" horiz-adv-x="1542" d="M80 219q-8 35 -8 70q0 50 16 100q27 84 96 117q39 18 71 18q39 0 67 -28q21 -23 21 -47q0 -20 -15 -39q-18 -25 -58 -35q-96 -23 -112 -109q-3 -17 -4 -33q0 -69 65 -120q66 -53 170 -54q133 0 191.5 162t60.5 567v562q-104 -29 -184 -78t-118 -102q-42 -58 -42 -116 q0 -50 43 -87q27 -27 56 -32q8 -1 18 -1q27 0 69 10q9 2 18 2q37 0 44 -47q1 -10 1 -20q0 -65 -59 -125q-52 -47 -108 -47q-6 0 -11 1q-62 5 -96 58q-66 106 -65 208q0 90 50 177q108 186 388 256q8 33 60 72q43 32 66 31q7 0 13 -3q25 -12 33 -71q74 4 113 4 q217 0 321.5 -102.5t106.5 -311.5v-16q-2 -250 -209 -351q86 -23 129 -93t43 -210q0 -158 27.5 -224t113.5 -66q172 0 224 360q8 68 36 70q23 0 23 -47v-15q0 -10 -2 -22q-68 -412 -301 -412q-135 0 -220 83t-85 273q0 133 -40 193q-39 57 -142 57h-7q-55 -8 -121 -8h-14 q-59 -598 -457 -598q-111 0 -184.5 66.5t-91.5 152.5zM819 659q10 -2 39 -2q164 0 240 74t76 266v17q0 176 -56.5 271t-218.5 95q-51 0 -76 -2v-577q0 -52 -4 -142z" />
<glyph unicode="S" d="M72 401q0 61 52 117.5t140 56.5q68 0 102 -40q25 -31 25 -64q0 -11 -3 -22q-11 -45 -56 -56q-115 -27 -115 -88q0 -96 86 -170t217 -74q141 0 264 72t123 189q0 72 -74.5 134t-181 117.5t-212 122t-180.5 175t-75 247.5q0 113 69 196t163 119.5t194 36.5q170 0 286 -98 t116 -278q0 -53 -46 -105.5t-124 -52.5q-57 0 -86 36q-22 27 -22 56q0 9 2 19q9 39 48 49q102 23 103 75q0 111 -85 174.5t-212 63.5q-129 0 -227.5 -67.5t-98.5 -192.5q0 -61 75 -118.5t181.5 -115t212 -127t180 -182t74.5 -254.5q0 -119 -82 -202.5t-187.5 -116.5 t-217.5 -33q-176 0 -302 112.5t-126 288.5z" />
<glyph unicode="T" horiz-adv-x="1073" d="M82 897q-10 44 -10 89q0 49 12 99q23 96 79 182.5t161.5 141.5t238.5 55q131 0 270.5 -49t263.5 -90q95 -32 184 -31q27 0 52 2q102 10 161.5 48t69.5 84q4 18 3 36q0 28 -8 55q-14 44 -50 70q-31 25 -59.5 25t-83.5 -19q-14 -5 -25 -5q-32 0 -43 44q-4 17 -4 34 q0 57 47 116q51 53 104 53h4q54 -2 105 -43q98 -78 107 -205q1 -11 1 -22q0 -114 -79 -209q-86 -104 -235 -121q-61 -7 -129 -7q-159 0 -353 38q10 -51 11 -172v-295q-8 -801 -467 -801q-147 0 -226 108q-63 87 -63 183q0 23 4 47q18 123 113 168q39 18 70 18q39 0 65 -28 q21 -23 21 -47q0 -20 -15 -39q-18 -25 -57 -35q-96 -23 -113 -109q-3 -17 -4 -33q0 -69 65 -120q66 -53 170 -54q135 0 192.5 162t59.5 567v347q0 78 9.5 102.5t50.5 52.5q-131 23 -205 23q-143 0 -233.5 -31t-121 -76t-30.5 -97t20.5 -94t47 -68.5t55.5 -31.5q6 -1 14 0 q27 0 72 11q9 2 17 2q38 0 46 -47q1 -8 1 -17q0 -67 -60 -129q-52 -43 -99 -43q-7 0 -14 1q-53 7 -102 55q-58 57 -78 149z" />
<glyph unicode="U" horiz-adv-x="1593" d="M72 1073q0 182 110.5 291t253.5 109q174 0 280.5 -142.5t106.5 -423.5q0 -18 1 -155.5t1 -239.5q0 -307 4 -344q12 -88 68 -100q14 -2 31 -2q41 0 82 26.5t83 90t71.5 193.5t37.5 312v580q0 82 3 120.5t15 79.5q9 32 25 33q5 0 10 -3q25 -11 68 -32q43 -33 53 -57.5 t10 -101.5q0 -23 -1 -320t-1 -481q0 -264 27 -352t115 -88q160 0 211 360q10 68 37 70q23 0 23 -47q0 -7 -1 -15q0 -10 -2 -22q-68 -412 -289 -412q-115 0 -191.5 70.5t-101.5 255.5q-49 -178 -132 -252t-171 -74t-143 39t-90 154.5t-35 318.5q0 45 -1 168t-1 240 q0 203 -25.5 307t-73.5 138t-139 34q-94 0 -176 -95.5t-82 -236.5q0 -174 74 -251q47 -49 106 -49q33 0 68 15q84 35 96 119q2 12 2 23q0 46 -36 59q-9 3 -19 3q-20 0 -45 -13q-31 -17 -55 -17q-31 0 -51 27q-15 21 -15 43q0 27 23 55q25 31 71 45q19 6 37 6q57 0 103 -61 q46 -62 46 -141q0 -23 -4 -47q-17 -109 -124 -152q-57 -24 -108 -24q-76 0 -138 54q-102 89 -102 312z" />
<glyph unicode="V" horiz-adv-x="1302" d="M-10 1073q0 182 110.5 291t253.5 109q174 0 279.5 -142.5t105.5 -423.5q0 -18 1 -62t1 -147q0 -387 19.5 -513t85.5 -126q35 0 69.5 37t72.5 126t66.5 220t47 338t18.5 461q0 84 2 122t15 80q9 32 25 32q5 0 10 -4q24 -13 67 -31q43 -31 53.5 -55.5t10.5 -104.5 q0 -631 -131.5 -955.5t-346.5 -324.5q-115 0 -190.5 185.5t-75.5 512.5q0 57 -1 109.5t-1 112.5q0 203 -25.5 307t-73.5 138t-139 34q-94 0 -176 -95.5t-82 -236.5q0 -174 73 -251q47 -49 105 -49q32 0 68 15q86 35 99 119q2 12 1 23q0 46 -36 59q-9 3 -19 3q-20 0 -45 -13 q-31 -17 -55 -17q-31 0 -51 27q-15 21 -15 43q0 27 23 55q25 31 72 45q19 6 36 6q57 0 103 -61q46 -62 46 -141q0 -23 -4 -47q-17 -109 -124 -152q-57 -24 -108 -24q-76 0 -138 54q-102 89 -102 312z" />
<glyph unicode="W" horiz-adv-x="1939" d="M72 1073q0 182 110.5 291t253.5 109q174 0 280.5 -142.5t106.5 -423.5q0 -18 1 -62t1 -147q0 -389 18.5 -514t84.5 -125q35 0 69.5 37t72.5 126t66.5 220t47 338t18.5 461q0 160 18 202q8 20 32 20q26 0 71 -23q43 -33 53 -56.5t10 -103.5q0 -66 -4 -188q-4 -242 -4 -394 q0 -387 19.5 -513t85.5 -126q35 0 69.5 37t72.5 126t66.5 220t47 338t18.5 461q0 84 2 122t15 80q9 32 25 32q5 0 10 -4q24 -13 67 -31q43 -31 53 -55.5t10 -104.5q0 -631 -131 -955.5t-346 -324.5q-70 0 -128 73.5t-95 213.5q-125 -287 -330 -287q-115 0 -191.5 185.5 t-76.5 512.5q0 57 -1 109.5t-1 112.5q0 203 -25.5 307t-73.5 138t-139 34q-94 0 -176 -95.5t-82 -236.5q0 -174 74 -251q47 -49 106 -49q33 0 68 15q84 35 96 119q2 12 2 23q0 46 -36 59q-9 3 -19 3q-20 0 -45 -13q-31 -17 -55 -17q-31 0 -51 27q-15 21 -15 43q0 27 23 55 q25 31 71 45q19 6 37 6q57 0 103 -61q47 -63 46 -143q0 -22 -3 -45q-16 -109 -123 -152q-57 -24 -108 -24q-76 0 -139 54q-103 89 -103 312z" />
<glyph unicode="X" horiz-adv-x="1470" d="M72 375q0 104 67.5 179t161.5 75q92 0 123 -80q8 -23 8 -41q0 -32 -24 -53q-16 -14 -39 -15q-74 0 -136.5 -40t-62.5 -103q0 -111 63.5 -171t174.5 -60q106 0 202.5 152.5t157.5 377.5q4 16 8 22l-20 68q-100 375 -175 567.5t-147 192.5q-43 0 -85 -46t-66 -116 q-14 -41 -15 -90q0 -35 7 -74q17 -94 83 -176q31 -39 32 -60q0 -8 -5 -14q-6 -7 -14 -7q-18 0 -47 32q-8 8 -15 16q-76 96 -95 207q-8 44 -8 84q0 61 18 112q30 85 91.5 141t137.5 56q293 0 446 -573q33 119 62.5 206t71.5 178t94.5 140t109.5 49q115 0 182 -114 q34 -57 34 -126.5t-34 -150.5q-31 -63 -93 -96q-30 -16 -63 -16q-35 0 -73 18q-55 27 -65 80q-2 13 -2 25q0 37 22 66q25 33 60 33q6 0 12 -1q16 -3 29 -3q62 0 89 52q14 30 14 57q0 32 -20 60q-37 51 -110 51q-125 0 -283 -649q78 -293 202 -512t203 -219q160 0 211 360 q10 68 37 70q23 0 23 -47v-15q0 -10 -2 -22q-68 -412 -289 -412q-113 0 -259.5 132t-244.5 376q-39 -117 -72.5 -196t-84 -156.5t-119 -116.5t-154.5 -39q-154 0 -234.5 103.5t-80.5 271.5z" />
<glyph unicode="Y" horiz-adv-x="1417" d="M72 1010q0 182 110.5 290.5t253.5 108.5q174 0 279.5 -141.5t105.5 -421.5q0 -18 1 -125t1 -209v-74q0 -131 1 -183t12.5 -107.5t33 -70t64.5 -14.5q41 0 80 27t80 89.5t69.5 189.5t36.5 305q2 248 2 567q0 80 10.5 104.5t53.5 57.5q43 20 67 31q5 2 10 2q17 0 26 -32 q11 -40 14 -80t3 -120l-4 -960q-2 -223 -50 -385t-131 -250t-178 -127t-210 -39q-145 0 -223 107q-63 87 -63 184q0 23 3 47q18 123 113 168q39 18 70 18q39 0 65 -28q21 -23 21 -47q0 -20 -15 -39q-18 -25 -57 -35q-96 -23 -113 -109q-3 -17 -3 -33q0 -69 65 -122 q66 -53 170 -54q168 0 260 169t94 562v50q-51 -152 -128 -216.5t-157 -64.5q-88 0 -144 38t-93 154.5t-37 319.5q0 45 -1 136t-1 210q0 203 -25.5 307.5t-73.5 137t-139 34.5q-94 0 -176 -95t-82 -236q0 -174 74 -251q48 -50 108 -50q32 0 66 14q84 37 96 119q2 12 2 22 q0 46 -36 60q-9 3 -19 3q-20 0 -45 -14q-30 -17 -54 -16q-32 0 -52 29q-15 20 -15 41q0 27 23 55q25 31 71 45q19 6 37 6q57 0 103 -60q46 -61 46 -140q0 -23 -4 -48q-17 -109 -124 -151q-58 -24 -109 -24q-76 0 -137 52q-102 89 -102 312z" />
<glyph unicode="Z" horiz-adv-x="1079" d="M92 1151q78 263 390 263q79 0 173 -17q31 -6 75 -16.5t74 -16.5t64.5 -12t57 -6t43 6t30 21.5t9.5 41.5q0 25 26 37q33 0 39 -51v-62q0 -109 -39 -208t-103.5 -178t-143 -152.5t-163.5 -146t-160 -144.5t-137.5 -160t-88.5 -182q49 45 132 46h8q78 0 144 -19 q70 -20 174 -62q141 -57 234 -58h2q90 0 152 70q62 72 83 230q6 63 33 65q23 0 23 -52q0 -16 -2 -28q-37 -274 -191 -375q-101 -66 -232 -67q-69 0 -147 19q-31 8 -79 22t-85.5 25.5t-82 22.5t-77 14.5t-61 1t-43 -17.5t-14.5 -44q0 -25 -27 -37q-3 -1 -6 0q-29 0 -33 49v56 q0 113 41 214t109.5 181t150.5 154.5t170 147.5t164 146.5t133.5 164.5t77.5 190q-76 -51 -207 -51q-74 0 -166 16q-27 4 -79 14.5t-74.5 13.5t-64.5 9t-61.5 5t-51 -2t-48 -10.5t-36 -22.5t-31.5 -34.5t-20 -50.5q-11 -37 -12 -73q0 -76 50 -147q74 -105 211 -106 q47 0 66.5 -15t0 -29.5t-68.5 -14.5q-182 0 -270 123q-55 77 -55 174q0 59 20 125z" />
<glyph unicode="[" horiz-adv-x="978" d="M104 -430q12 436 54.5 1201t70.5 775q2 0 7 2h4q23 14 84 15q29 0 188.5 5t202.5 5q57 0 84.5 -2t56.5 -10.5t20.5 -25.5t-22.5 -48q-23 -31 -40 -37t-73 -6q-68 0 -224.5 18.5t-235.5 38.5q10 -41 10 -90q0 -43 -1 -893t-1 -909q0 -121 -6 -162q338 10 340 10 q57 0 84.5 -2t56.5 -10t20.5 -25.5t-22.5 -48.5q-23 -31 -40 -37t-73 -6q-59 0 -191 16.5t-212 34.5q-29 -6 -78 31q-43 35 -54.5 58.5t-9.5 101.5z" />
<glyph unicode="\" horiz-adv-x="851" d="M106.5 1685.5q4.5 36.5 26.5 59.5q23 20 43.5 23.5t36.5 -11t31.5 -38t29 -63.5t24.5 -77t23.5 -88t111.5 -407.5t200.5 -715t105.5 -376.5q12 -49 8 -80t-30 -23q-25 6 -290 756t-298 883q-16 61 -21.5 91t-1 66.5z" />
<glyph unicode="]" horiz-adv-x="978" d="M119 -657.5q-35 14.5 6 69.5q25 31 42 38t73 7q66 0 222 -19.5t236 -37.5q-8 33 -8 90q0 43 1 891t1 909q0 123 6 162q-35 0 -168 -4t-172 -4q-57 0 -84.5 2t-56.5 10t-20.5 24.5t22.5 47.5q23 31 39 38t74 7q61 0 193 -17.5t210 -35.5q27 6 76 -31q45 -33 55.5 -57.5 t7.5 -102.5q-12 -432 -53 -1198t-69 -776q-4 -2 -13 -2q-23 -16 -82 -17q-29 0 -188.5 -4t-202.5 -4q-112 0 -147 14.5z" />
<glyph unicode="^" horiz-adv-x="1550" d="M115 711q-37 20 39 94l540 508q111 100 140 86q25 -6 77 -60q88 -86 316.5 -358t218.5 -293q-16 -39 -96 33l-525 473q-14 14 -34 31q-117 -102 -387.5 -313t-288.5 -201z" />
<glyph unicode="_" horiz-adv-x="2088" d="M104 -180q-8 20 19 30.5t74 10.5q29 0 807 5t821 5q57 0 84.5 -2t56.5 -10.5t20.5 -25.5t-22.5 -48q-23 -31 -39 -37t-74 -6q-168 0 -954.5 29t-792.5 49z" />
<glyph unicode="`" horiz-adv-x="686" d="M208 1486q-9 40 32 58q59 23 88 -12q8 -8 48 -56.5t54 -64.5t51 -56t60.5 -61.5t57.5 -50.5t67 -51q31 -18 14 -35q-20 -18 -72 10q-209 113 -346 236q-45 43 -54 83z" />
<glyph unicode="a" d="M72 489v17q2 143 45 248.5t111.5 160t137 79t138.5 24.5q90 0 141 -47q6 33 57 71q43 20 68 31q5 2 10 2q17 0 26 -32q11 -40 14 -79.5t3 -119.5v-338q0 -266 25.5 -353t116.5 -87q158 0 209 360q10 66 36 70q25 2 25 -47q1 -5 1 -12q0 -12 -3 -25q-70 -412 -289 -412 q-229 0 -285 270q-86 -270 -270 -270q-74 0 -126 19.5t-98 69.5t-69.5 150t-23.5 250zM254 502q2 -260 33.5 -351.5t132.5 -91.5q94 0 155.5 170t61.5 422v2q0 307 -164 308q-217 0 -219 -443v-16z" />
<glyph unicode="b" horiz-adv-x="874" d="M82 506v729q0 80 10 104.5t55 57.5q43 20 67 30q5 2 9 3q17 0 26 -32q11 -40 14 -80t3 -120v-471q88 291 287 291q121 0 201 -120t80 -380q0 -145 -46.5 -253.5t-119 -162t-144 -78t-143.5 -24.5t-123 20.5t-93 73.5t-62.5 155.5t-20.5 256.5zM270 281q8 -127 38 -174.5 t106 -47.5q104 0 169.5 110t65.5 349q0 244 -20.5 340t-93.5 96q-35 0 -67 -15t-67.5 -59t-62.5 -116t-45.5 -196.5t-22.5 -286.5z" />
<glyph unicode="c" horiz-adv-x="681" d="M51 506q0 252 97.5 382t314.5 130q123 0 164 -80q22 -42 21 -87q0 -41 -17 -85q-37 -92 -115 -129q-40 -19 -71 -19q-39 0 -64 29q-17 20 -17 41t17 41q20 23 57 31q66 16 103 65q21 29 21 55q0 19 -11 38q-27 43 -121 43q-106 0 -150 -108t-44 -347q0 -440 245 -440 q43 0 88 15t96.5 52t90.5 113t53 180q10 66 37 70q25 2 24 -47q1 -5 1 -12q0 -12 -3 -25q-20 -121 -69 -207t-111.5 -128t-118 -59.5t-106.5 -17.5q-76 0 -141.5 21.5t-130 72.5t-102.5 156.5t-38 255.5z" />
<glyph unicode="d" d="M72 489v15q2 143 46 249.5t112.5 161t137 79t138.5 24.5q88 0 135 -43v262q0 78 10.5 102.5t53.5 57.5q43 20 67 31q5 2 10 3q17 0 26 -32q11 -41 14 -80t3 -121v-692q0 -266 26 -353t114 -87q160 0 211 360q10 68 36 70q24 0 24 -42q0 -9 -1 -20q0 -10 -2 -22 q-68 -412 -287 -412q-229 0 -284 270q-86 -270 -273 -270q-72 0 -124 19.5t-98 69.5t-69.5 150t-25.5 250zM256 502q0 -258 33 -350.5t133 -92.5q94 0 154.5 169t62.5 423v2q0 307 -166 308q-215 0 -217 -443v-16z" />
<glyph unicode="e" horiz-adv-x="768" d="M82 506q0 252 98.5 382t313.5 130q131 0 190 -86q29 -42 29 -91q0 -91 -101 -208q-113 -131 -342 -271q14 -158 65.5 -227t158.5 -69q49 0 105 15t121.5 52t116 113t64.5 180q10 68 37 70q24 0 24 -42q0 -9 -1 -20q0 -10 -3 -22q-20 -119 -78.5 -206t-134 -129 t-143 -59.5t-129.5 -17.5q-176 0 -283.5 118t-107.5 388zM266 506q0 -61 2 -90q240 152 283 344q9 38 9 70q0 69 -42 108q-25 23 -57 23q-106 0 -150.5 -107.5t-44.5 -347.5z" />
<glyph unicode="f" horiz-adv-x="448" d="M-492 -403q-4 27 -4 53q0 59 22 117q32 84 101 116q39 18 70 18q39 0 65 -28q21 -23 22 -47q0 -20 -15 -39q-18 -25 -58 -35q-104 -25 -123 -112q-3 -16 -3 -32q0 -69 67 -122q70 -51 178 -51q125 0 187.5 167t64.5 564v502q-2 45 -16.5 56t-55.5 11q-43 0 -43 29t43 29 q41 0 54.5 11t15.5 58v53q0 254 97 384.5t315 130.5q123 0 164 -81q22 -43 23 -90q0 -41 -17 -83q-37 -92 -115 -129q-40 -19 -71 -19q-37 0 -62 27q-19 21 -19 42q0 20 17 42q18 23 57 32q63 14 100 64q21 29 22 55q0 19 -11 37q-27 43 -121 43q-106 0 -150.5 -107.5 t-44.5 -347.5v-36q2 -57 21.5 -67.5t117.5 -10.5q29 0 39.5 -14.5t-2 -29t-39.5 -14.5q-96 0 -114.5 -11t-22.5 -66v-490q-2 -195 -27.5 -339t-66.5 -231t-102.5 -139.5t-125 -71t-145.5 -18.5q-123 0 -199 67t-90 153z" />
<glyph unicode="g" horiz-adv-x="876" d="M74 -285q18 123 112 168q39 18 71 18q39 0 65 -28q21 -23 21 -47q0 -20 -15 -39q-18 -25 -58 -35q-96 -23 -112 -108q-3 -17 -4 -33q0 -69 65 -123q66 -53 170 -53q135 0 192.5 161.5t59.5 569.5v43q-86 -209 -250 -209q-72 0 -124 19.5t-98 69.5t-69.5 150.5 t-25.5 249.5v17q2 143 46 248.5t112.5 160t137 79t138.5 24.5q92 0 139 -47q6 33 58 71q43 20 67 32q5 2 10 3q17 0 26 -33q11 -41 14 -79.5t3 -120.5v-668q-8 -799 -467 -799q-147 0 -225 108q-63 87 -63 184q0 22 4 46zM258 502q0 -258 33 -350.5t133 -92.5 q90 0 151.5 161t65.5 403v61q-8 276 -166 277q-215 0 -217 -443v-16z" />
<glyph unicode="h" horiz-adv-x="1048" d="M82 39q0 6 1 14q1 16 3 32.5t3 45.5t1 57v1047q0 80 10.5 104.5t53.5 57.5q43 18 66 30q5 3 10 3q16 0 26 -32q12 -42 14 -80t2 -120v-481q51 166 133 233.5t168 67.5q66 0 111 -20.5t82 -74t55.5 -155.5t18.5 -256v-6q0 -264 26.5 -352t114.5 -88q160 0 211 360 q10 68 37 70q23 0 23 -47q0 -7 -1 -15q0 -10 -2 -22q-68 -412 -288 -412q-141 0 -222.5 108.5t-81.5 397.5v6q0 305 -6 346q-12 84 -69 94q-12 2 -29 2q-45 0 -88 -29.5t-88 -103t-73 -230.5t-28 -378q0 -8 -2 -10q2 -23 2 -47q0 -10 1 -19q0 -86 -35 -113q-30 -23 -85 -24 q-15 0 -32 2q-14 2 -22.5 4t-13.5 9q-7 10 -7 24z" />
<glyph unicode="i" horiz-adv-x="473" d="M63 1145q0 41 32 71.5t75 30.5q45 0 75.5 -30.5t30.5 -71.5t-30.5 -72t-75.5 -31q-43 0 -75 31t-32 72zM82 506v242q0 80 10 104.5t53 54.5q43 18 67 31q5 3 10 3q16 0 26 -32q12 -41 14 -79.5t2 -120.5v-203q0 -264 26.5 -352t115.5 -88q160 0 210 360q10 68 37 70 q23 0 23 -47v-15q0 -10 -2 -22q-68 -412 -289 -412q-141 0 -222 108.5t-81 397.5z" />
<glyph unicode="j" horiz-adv-x="348" d="M-485 -313q18 123 112 168q39 19 70 18q40 0 67 -31q20 -23 20 -45q0 -20 -15 -39q-20 -25 -58 -32q-96 -23 -112 -109q-3 -17 -4 -33q0 -69 65 -123q66 -53 170 -53q135 0 192.5 162t59.5 567v613q0 80 10 103.5t53 55.5q43 20 68 31.5t36 -29.5t14 -79.5t3 -120.5v-561 q-10 -801 -467 -801q-147 0 -225 107q-63 87 -63 184q0 23 4 47zM66 1145q0 41 30.5 71.5t73.5 30.5q45 0 75.5 -30.5t30.5 -71.5t-30.5 -72t-75.5 -31q-43 0 -73.5 31t-30.5 72z" />
<glyph unicode="k" horiz-adv-x="1048" d="M84 52.5q0 15.5 2 31.5t3 45t1 57v1049q0 80 10.5 103.5t53.5 56.5q45 23 70 23q24 0 33 -20q17 -42 17 -202v-621q57 195 173 333.5t219 162.5q33 8 60 8q66 0 93 -49q11 -21 11 -41q0 -28 -21 -53q-24 -29 -62 -29q-27 0 -61 15q-31 13 -61 12q-82 0 -160 -94 q-106 -129 -152 -328q55 92 126 143.5t134 51.5q131 0 200 -76t69 -269v-6q0 -160 27.5 -226.5t113.5 -66.5q156 0 209 363q10 68 37 68h2q22 0 21 -40q0 -9 -1 -20q0 -10 -2 -22q-68 -412 -286 -412q-135 0 -220.5 83t-85.5 273v6v61q0 36 1 53.5t0 45t-4 38.5t-7 28.5 t-12 25t-19.5 15.5t-27 11t-35.5 3q-90 0 -182 -149.5t-92 -364.5q0 -4 -3 -6q-2 -82 -39 -106q-30 -19 -82 -18q-13 0 -28 1q-14 2 -22.5 4t-13.5 9t-6 15.5t-1 24z" />
<glyph unicode="l" horiz-adv-x="473" d="M82 506v731q0 80 10 103.5t53 56.5q45 23 71 23q24 0 33 -20q17 -42 17 -202v-692q0 -266 25.5 -353t114.5 -87q160 0 210 360q10 68 37 70q24 0 24 -42q0 -9 -1 -20q0 -10 -2 -22q-68 -412 -287 -412q-141 0 -223 108.5t-82 397.5z" />
<glyph unicode="m" horiz-adv-x="1603" d="M84 53.5q0 16.5 2 32.5t3 45t1 57v695q0 78 10.5 102.5t53.5 56.5q43 20 67 32q5 2 10 3q17 0 26 -33q11 -41 14 -79.5t3 -120.5v-127q49 166 131 233.5t168 67.5q109 0 171.5 -63.5t84.5 -235.5q51 166 132 232.5t167 66.5q88 0 142.5 -37t89.5 -151.5t35 -317.5v-6 q0 -264 26.5 -352t114.5 -88q160 0 211 360q10 68 37 70q23 0 23 -47q0 -7 -1 -15q0 -10 -2 -22q-68 -412 -288 -412q-66 0 -116 21.5t-95 73.5t-69 155.5t-24 255.5v6q0 305 -6 346q-12 84 -69 94q-12 2 -29 2q-39 0 -77 -22.5t-78 -74.5t-70.5 -161.5t-42.5 -265.5 q0 -16 -1 -50t-1 -66.5t1 -93t1 -64.5v-19q0 -86 -35 -113q-30 -23 -84 -24q-15 0 -31 2q-14 0 -22.5 3t-13.5 9t-6 14.5t-1 25t2 32.5t3 45t1 57q0 55 2 154.5t2 169.5q0 305 -4 340q-12 88 -69 100q-12 2 -31 2q-45 0 -88 -29.5t-88 -103t-73 -230.5t-28 -378v-57 q0 -10 1 -19q0 -86 -35 -113q-30 -23 -84 -24q-15 0 -31 2q-14 0 -22.5 3t-13.5 9t-6 14.5t-1 25z" />
<glyph unicode="n" horiz-adv-x="1050" d="M84 53.5q0 16.5 2 32.5t3 45t1 57v695q0 78 10.5 102.5t53.5 56.5q43 20 67 32q5 2 10 3q17 0 26 -33q11 -41 14 -79.5t3 -120.5v-127q51 166 132 233.5t167 67.5q88 0 143.5 -37t90.5 -151.5t35 -317.5v-6q0 -266 25.5 -353t115.5 -87q160 0 209 360q10 66 37 70 q25 2 24 -47q1 -5 1 -12q0 -12 -3 -25q-70 -412 -288 -412q-141 0 -223.5 108.5t-82.5 397.5v6q0 307 -4 342q-12 86 -67 98q-12 2 -31 2q-45 0 -88 -29.5t-88 -103t-72.5 -230.5t-27.5 -378q0 -8 -3 -10q0 -14 3 -31v-16q2 -102 -37 -132q-30 -23 -84 -24q-15 0 -31 2 q-14 0 -22.5 3t-13.5 9t-6 14.5t-1 25z" />
<glyph unicode="o" horiz-adv-x="931" d="M72 489v17q2 135 41 236.5t101 157.5t127 84t134 34h5q30 0 32 -25q-6 -29 -39 -32q-215 0 -217 -443v-16q0 -258 33 -350.5t133 -92.5q215 0 217 443h-21q-131 0 -195.5 57t-64.5 153.5t51.5 154t149.5 57.5h8q35 0 56.5 -2t60.5 -19.5t63.5 -50.5t46 -100.5 t27.5 -163.5q123 45 256 147q33 25 53 4q6 -6 6 -13q0 -13 -20 -30q-139 -111 -293 -161v-21q-2 -143 -46 -249.5t-112.5 -161t-137 -79t-138.5 -24.5q-72 0 -124 19.5t-98 69.5t-70.5 150t-24.5 250zM420 721q0 -74 57.5 -120t159.5 -46h2q-2 133 -16.5 203.5t-32 88 t-47.5 19.5q-123 0 -123 -145z" />
<glyph unicode="p" horiz-adv-x="892" d="M83 -483q1 16 3 32.5t3 45t1 57.5v1231q0 80 10.5 103.5t53.5 55.5q43 20 67 32q5 2 10 3q17 0 26 -33q11 -41 14 -79.5t3 -120.5v-78q51 121 128 186.5t165 65.5q68 0 112 -16.5t84 -65.5t59.5 -149.5t19.5 -256.5v-16q-2 -143 -46 -249.5t-113 -161t-137.5 -79 t-137.5 -24.5q-88 0 -134 43v-266q0 -33 1 -93.5t1 -64.5q0 -10 1 -19q0 -88 -35 -114q-30 -22 -84 -22q-15 0 -33 1q-14 0 -22.5 3.5t-13.5 9.5q-7 8 -7 24q0 7 1 15zM274 365q0 -305 166 -306q215 0 217 441v16q0 285 -18 365t-104 80q-96 0 -177.5 -174.5t-83.5 -417.5 v-4z" />
<glyph unicode="q" horiz-adv-x="911" d="M72 489v17q2 143 46 248.5t112.5 160t137 79t138.5 24.5q92 0 139 -47q8 31 57 71q43 20 68 32q5 2 10 3q17 0 26 -33q11 -41 14 -79.5t3 -120.5v-1067q0 -125 4 -158v-10q0 -95 -35 -123q-29 -22 -84 -22q-15 0 -32 1q-14 0 -22.5 3.5t-13.5 9.5t-6 14t-1 24.5t2 33 t3 45t1 57.5v559q-86 -211 -250 -211q-72 0 -124 19.5t-98 69.5t-69.5 150t-25.5 250zM256 502q0 -258 33 -350.5t133 -92.5q94 0 154.5 169t62.5 423v2q0 307 -166 308q-215 0 -217 -443v-16z" />
<glyph unicode="r" horiz-adv-x="854" d="M84 53.5q0 16.5 2 32.5t3 45t1 57v695q0 78 10.5 102.5t53.5 56.5q43 20 67 32q5 2 10 3q17 0 26 -33q11 -41 14 -79.5t3 -120.5v-152q57 199 157.5 291t191.5 92q268 0 268 -250q0 -68 -36 -114.5t-107 -46.5q-96 0 -142 59q-17 21 -17 38q0 22 27 40q51 33 67.5 55.5 t16.5 61.5q0 92 -98 92q-35 0 -75 -21.5t-85 -79t-80.5 -143.5t-60.5 -230.5t-25 -322.5v-57q0 -10 1 -19q0 -86 -35 -113q-30 -23 -84 -24q-15 0 -31 2q-14 0 -22.5 3t-13.5 9t-6 14.5t-1 25z" />
<glyph unicode="s" horiz-adv-x="792" d="M31 360q0 70 43 128.5t123 58.5q61 0 93 -43q24 -33 24 -68q0 -11 -3 -23q-10 -48 -51 -61q-84 -23 -84 -96q0 -72 51.5 -131t151.5 -59q123 0 221 85t98 214q0 72 -57 135t-139 115.5t-164 110.5t-139.5 144t-57.5 191q0 55 19.5 96t42.5 49q19 10 34 10q21 0 37 -17 q11 -11 11 -25q0 -24 -31 -58q-24 -30 -24 -50q0 -6 2 -11q9 -23 53.5 -57.5t102.5 -63.5t124 -81t121 -109.5t92 -149.5t37 -201q0 -133 -62.5 -225t-150.5 -130t-189 -38q-145 0 -237 102t-92 258z" />
<glyph unicode="t" horiz-adv-x="534" d="M-33 1058.5q0 28.5 43 28.5t56.5 14.5t15.5 74.5v61q0 80 10 104.5t53 55.5q43 18 67 31q6 3 11 4q16 0 25 -32q12 -42 14 -80t2 -122v-35q6 -49 30.5 -58t147.5 -9q45 0 43 -29t-43 -29q-119 0 -145.5 -10t-32.5 -59v-463q0 -250 39 -345t133 -95q76 0 144.5 80.5 t97.5 279.5q10 68 37 70q23 0 23 -47q0 -7 -1 -15q0 -10 -2 -22q-20 -121 -57 -207t-83 -128t-90 -59.5t-89 -17.5q-334 0 -334 506v440q-2 57 -15.5 70.5t-56.5 13.5t-43 28.5z" />
<glyph unicode="u" horiz-adv-x="1042" d="M82 489v394q0 80 10 103.5t53 55.5q43 20 68 32q5 2 10 3q17 0 26 -33q11 -41 14 -79.5t3 -120.5v-342q0 -256 33 -349.5t131 -93.5q86 0 146.5 141.5t72.5 370.5v312q0 78 10.5 102.5t53.5 56.5q43 20 67 32q5 2 10 3q17 0 26 -33q11 -41 14.5 -79.5t3.5 -120.5v-338 q0 -266 25.5 -353t115.5 -87q160 0 209 360q10 66 37 70q25 2 24 -47q1 -5 1 -12q0 -12 -3 -25q-68 -412 -289 -412q-229 0 -284 268q-86 -268 -271 -268q-74 0 -126 19.5t-98 69.5t-69.5 150t-23.5 250z" />
<glyph unicode="v" horiz-adv-x="819" d="M72 606v277q0 78 10 102.5t53 56.5q43 20 67.5 31.5t36 -29t14.5 -79.5t3 -121v-226q0 -268 34 -407t138 -139q66 0 125 140t88 349q-164 14 -228 144q-38 76 -38 149q0 52 18 102q45 123 154 123q203 0 203 -258q0 -90 -11 -196q66 12 134.5 48t95.5 62q16 18 33 16 q20 -3 20 -22q0 -14 -16 -33q-37 -37 -115 -77.5t-160 -53.5q-39 -244 -133 -404.5t-203 -160.5q-145 0 -233 162.5t-90 443.5zM449 932q-16 -44 -16 -86q0 -62 34 -119q57 -92 182 -106q10 109 10 200q0 102 -25.5 150.5t-86.5 48.5q-67 0 -98 -88z" />
<glyph unicode="w" horiz-adv-x="1308" d="M72 606v277q0 78 10 102.5t53 56.5q43 20 67.5 31.5t36 -29t14.5 -79.5t3 -121v-226q0 -270 34 -414.5t138 -144.5q92 0 162 283q-27 113 -27 264v277q0 80 10.5 103.5t53.5 55.5q43 18 66.5 30.5t35.5 -28t14 -79.5t2 -121v-226q0 -131 6.5 -217t23 -172t52 -128 t91.5 -42q66 0 120 144.5t78 359.5q-174 23 -235 178q-25 62 -25 121q0 63 29 121q45 96 135 96q184 0 184 -258q0 -94 -10 -200q74 4 155 44t109 70q18 18 36 16q18 -3 19 -21q0 -15 -16 -34q-43 -43 -131 -86t-178 -49q-31 -246 -114 -403.5t-189 -157.5q-176 0 -267 236 q-90 -236 -223 -236q-145 0 -233 162.5t-90 443.5zM926 932q-13 -39 -13 -77q0 -65 37 -126q55 -88 172 -104q8 84 8 196q0 104 -25.5 151.5t-84.5 47.5q-67 0 -94 -88z" />
<glyph unicode="x" horiz-adv-x="1202" d="M80 317q0 115 72 175q-4 4 -9 14q-71 154 -71 280q0 63 18 119q53 168 211 168q133 0 208 -73.5t183 -301.5q55 176 127 275.5t180 99.5q111 0 163 -115q22 -49 23 -106q0 -77 -40 -170q-31 -63 -94 -96q-31 -16 -64 -16q-35 0 -74 18q-55 27 -63 80q-2 12 -2 23 q0 39 22 68q25 33 60 32h12q18 -3 33 -4q61 0 84 53q22 41 21 76q0 22 -8 41q-22 52 -91 53q-139 0 -244 -406q4 -10 11.5 -25.5t9.5 -19.5q98 -215 202.5 -354t174.5 -139q160 0 211 360q10 68 36 70q23 0 23 -47v-15q0 -10 -2 -22q-68 -412 -287 -412q-106 0 -231 81 t-223 253q-55 -160 -128 -247t-192 -87q-121 0 -191.5 87t-70.5 230zM141 715q12 -92 60 -189v-2l2 -4q33 8 55 8q61 0 93 -43q24 -33 24 -68q0 -11 -2 -23q-10 -48 -51 -60q-84 -23 -84 -96q0 -86 22.5 -129t99.5 -43q72 0 138.5 101t117.5 257q-10 18 -26 59 q-141 360 -170 416q-70 104 -137 111q-43 0 -79 -39t-56 -102q-12 -38 -11 -87q-1 -31 4 -67z" />
<glyph unicode="y" horiz-adv-x="884" d="M82 489v394q0 78 10 102.5t53 56.5q43 20 68 32q5 2 10 3q17 0 26 -33q11 -41 14 -79.5t3 -120.5v-342q0 -258 33 -350.5t133 -92.5q86 0 145.5 141.5t73.5 370.5v312q0 80 10.5 103.5t53.5 55.5q43 18 66 31q5 3 11 3q16 0 25 -32q12 -41 14.5 -79.5t2.5 -120.5v-694 q-8 -801 -467 -801q-111 0 -184.5 66.5t-92.5 152.5q-7 34 -7 68q0 51 16 102q28 84 98 117q39 19 69 18q40 0 68 -31q20 -23 19 -45q0 -20 -15 -39q-20 -25 -57 -32q-96 -23 -113 -109q-3 -17 -4 -33q0 -69 65 -123q66 -53 170 -53q133 0 191.5 162t60.5 567v76 q-88 -213 -252 -213q-72 0 -124 19.5t-98 69.5t-70.5 150t-24.5 250z" />
<glyph unicode="z" horiz-adv-x="1005" d="M133 754q73 239 346 239q66 0 144 -14q35 -6 85 -19.5t80.5 -21.5t61.5 -10t45 15.5t14 53.5q0 25 27 39q33 -2 39 -51q0 -86 -35 -133q-29 -100 -91.5 -173t-137 -118t-150.5 -88t-147.5 -114.5t-112.5 -168.5q70 39 176.5 39t200.5 -36q119 -48 208 -49q226 0 263 309 q6 63 33 65q23 0 22 -52q0 -16 -2 -28q-18 -141 -75.5 -240.5t-135.5 -141.5t-172 -56q-31 -5 -63 -5l-125 19q-146 36 -237 36q-156 0 -156 -103q0 -27 -29 -39q-33 4 -39 51q0 37 27 135q37 178 139 291q-133 20 -190 125q-32 59 -32 130q0 54 19 114zM188 715 q-8 -29 -8 -58q0 -63 40 -126q58 -91 175 -91q55 45 151.5 100.5t168 110t119.5 133.5q-40 -10 -94 -9q-73 0 -171 18q-113 31 -202 30q-23 0 -45 -2q-105 -10 -134 -106z" />
<glyph unicode="{" horiz-adv-x="1089" d="M104 459q-2 10 9.5 17t33.5 7q160 0 226.5 128t68.5 401v22q2 147 42 255t112 168.5t158 88t190 27.5q45 0 43 -19q-2 -25 -49 -36q-12 -4 -27 -5q-164 0 -223 -103t-61 -361v-33q0 -477 -301 -572q145 -51 233 -191t90 -362v-24q0 -264 65.5 -372.5t229.5 -108.5 q45 0 43 -23q-2 -27 -51 -35q-12 -2 -25 -2q-213 0 -329.5 123t-116.5 424v33q-2 264 -63.5 387t-221.5 123q-29 0 -54.5 15.5t-21.5 27.5z" />
<glyph unicode="|" horiz-adv-x="391" d="M102 -193v1803q0 80 3.5 119.5t14.5 79.5t35.5 30t67.5 -31q45 -35 55.5 -59.5t8.5 -101.5q-12 -432 -53 -1198t-70 -777q-33 -10 -47.5 27.5t-14.5 107.5z" />
<glyph unicode="}" horiz-adv-x="1091" d="M104 -655q2 25 50 37q14 4 26 4q164 0 223.5 104t61.5 360v33q0 477 299 572q-145 51 -232.5 191t-89.5 362v24q0 264 -65.5 372.5t-229.5 108.5q-43 0 -43 23q2 27 50 35q12 2 24 2q215 0 332 -123t117 -424v-31q2 -264 62.5 -388t221.5 -124q29 0 53.5 -15t22.5 -28 q2 -10 -9 -17t-34 -7q-160 0 -227.5 -128t-67.5 -401v-22q-2 -147 -42 -255t-111.5 -168t-157.5 -88t-191 -28q-45 1 -43 19z" />
<glyph unicode="~" horiz-adv-x="1636" d="M113 1210q20 18 41 -26q61 -127 222 -142.5t365 82.5q18 8 21 11q246 100 464 32.5t298 -235.5q25 -49 -6 -49q-31 2 -58 45l-4 8q-59 125 -236.5 129t-365.5 -90l-29 -14q-170 -80 -313 -74t-244.5 70.5t-152.5 172.5q-27 57 -2 80z" />
<glyph unicode="&#xa1;" horiz-adv-x="417" d="M102 1163q0 43 32 73t75 30q45 0 75.5 -30t30.5 -73q0 -41 -30.5 -70.5t-75.5 -29.5q-43 0 -75 29.5t-32 70.5zM115 -14q0 227 21.5 568t66.5 357q49 16 72.5 -45t23.5 -168v-675q0 -158 -17.5 -200t-103.5 3q-43 33 -53 56.5t-10 103.5z" />
<glyph unicode="&#xa2;" horiz-adv-x="800" d="M41 506q0 438 299 502v106q0 80 3 120t14.5 80t36 29.5t67.5 -30.5q45 -35 55 -59.5t8 -102.5l-4 -141q86 -23 107.5 -102t-15.5 -159.5t-106 -111.5q-2 0 -2 -1t-2 -1q-23 -424 -35 -569h4q43 0 88 15t96.5 52t90 113t53.5 180q10 66 37 70q25 2 24 -47q2 -16 -2 -37 q-20 -117 -66.5 -202t-106.5 -127t-114.5 -61.5t-107.5 -21.5q-25 -305 -45 -313q-33 -10 -47.5 27.5t-14.5 107.5q0 2 -1 65.5t-1 120.5q-313 62 -313 498zM225 506q0 -315 127 -406q-2 139 -6 443.5t-4 398.5q-117 -63 -117 -436zM510 805q35 35 39 71.5t-33 61.5z" />
<glyph unicode="&#xa3;" horiz-adv-x="1249" d="M68 88q-43 96 20 184q72 100 242 101q78 0 147 -27q12 88 17 252q-322 16 -328 32.5t15.5 25t60.5 8.5q8 0 44 2t96 4t112 4q2 279 47 461q-160 43 -336 161q-20 14 -19.5 32t16 24t34.5 -2q174 -115 319 -160q98 326 358 326q106 0 134 -95q27 -100 -52 -196 q-102 -127 -303 -117q-12 -137 -16 -426q201 8 209 8q92 0 115.5 -10t-1.5 -59q-20 -25 -33.5 -31t-58.5 -6q-10 0 -231 8q-6 -178 -68 -322q25 -18 72 -58t72.5 -59.5t66.5 -37t82 -17.5q139 0 197.5 69t87.5 255q10 68 37 70q27 0 22 -62q0 -10 -2 -22q-68 -412 -366 -412 q-72 0 -137.5 27.5t-101.5 56.5t-91 82q-125 -170 -324 -170q-112 0 -155 96zM104 207q-31 -63 29 -115q43 -37 113 -37q160 0 211 187q-74 53 -146 53q-168 0 -207 -88zM698 1161q190 -14 275 99q55 76 22 141q-27 51 -94 51q-88 0 -135.5 -66.5t-67.5 -224.5z" />
<glyph unicode="&#xa4;" horiz-adv-x="1308" d="M104 1307q14 25 64 -25q12 -12 49 -47t82 -78t57 -53l9 -10q123 166 299 166h2q180 0 284 -121q63 55 148.5 118.5t97.5 57.5q25 -14 -25 -64l-174 -184q66 -125 66 -319q0 -174 -86 -314q6 -4 22 -20q43 -43 127 -153.5t78 -123.5q-14 -27 -63 23q-8 8 -88 82.5 t-101 97.5l-26 27q-117 -127 -267 -127h-2q-160 0 -262 98l-6 -6q-43 -43 -153.5 -126t-122.5 -77q-29 10 22 61q143 154 180 191l27 25q-82 131 -82 348q0 141 59 264l-4 4q-6 4 -8 8q-45 45 -127 154t-76 123zM442 754q0 -244 45 -349.5t162 -105.5h4q125 0 176.5 102.5 t51.5 339.5q0 242 -45 347.5t-164 105.5h-2q-125 0 -176.5 -102t-51.5 -338z" />
<glyph unicode="&#xa5;" horiz-adv-x="1824" d="M102 1092q0 180 112 289.5t253 109.5q152 0 255 -120t126 -345q68 147 157 244.5t195.5 143.5t201.5 62.5t216 16.5q88 0 102 -31q8 -14 -24 -24q-33 -10 -97 -11q-270 0 -465.5 -180t-271.5 -563q129 6 178 6q92 0 116 -10t-1 -59q-20 -25 -33.5 -31t-58.5 -6 q-59 0 -217 6l-6 -41l-9 -76q201 8 209 8q92 0 116 -10t-1 -59q-20 -25 -33.5 -31t-58.5 -6q-12 0 -238 8q-10 -145 -14 -162l-8 -45q-10 -72 -19 -115q-12 -61 -20 -67q-31 -8 -47 29q-55 68 -29 337q0 18 -2 27q-360 20 -364 35q-6 16 15 24.5t60 8.5q14 0 285 12l-6 131 q-350 16 -354 33q-6 16 15 24.5t60 8.5q12 0 275 12v41q0 57 -1 109.5t-1 111.5q0 203 -26 307.5t-74 138t-138 33.5q-94 0 -176 -95t-82 -237q0 -174 72.5 -250.5t173.5 -33.5q86 35 98 119q10 66 -35 81q-27 10 -63 -10q-68 -39 -105 8q-35 45 4 97q25 33 74 47 q80 27 139.5 -53t42 -188.5t-123.5 -151.5q-143 -59 -246 30t-103 312z" />
<glyph unicode="&#xa6;" horiz-adv-x="391" d="M102 -193v574q0 80 3.5 120t14.5 80t35.5 29.5t67.5 -30.5q45 -35 55.5 -59.5t8.5 -102.5q-8 -268 -48 -500.5t-75 -245.5q-33 -10 -47.5 27.5t-14.5 107.5zM102 1036v574q0 80 3.5 119.5t14.5 79.5t35.5 30t67.5 -31q45 -35 55.5 -59.5t8.5 -101.5q-8 -268 -48 -501 t-75 -245q-33 -10 -47.5 27.5t-14.5 107.5z" />
<glyph unicode="&#xa7;" horiz-adv-x="1193" d="M113 -289q12 57 57 95t111 22q51 -10 68.5 -51t1 -79t-53.5 -40q-96 -6 -109 -66q-18 -88 43.5 -148t186.5 -60q129 0 215 66.5t86 211.5q0 41 -18.5 79t-78 97.5t-100.5 96t-155 133.5q-391 334 -23 702q43 41 74 29q29 -10 -10 -47q-82 -84 -110 -159t13 -172t170 -208 q20 -16 84 -69.5t90.5 -77t78.5 -71.5t76 -80t54.5 -75t43 -83t12.5 -81q0 -125 -81 -211t-190.5 -120.5t-232.5 -34.5q-160 0 -248 124.5t-55 276.5zM272 1149q0 96 46.5 170t121 116t160.5 62.5t176 20.5q160 0 249 -125t56 -279q-12 -57 -57 -94t-113 -23 q-51 12 -68.5 53.5t-1 78t53.5 38.5q96 6 109 68q20 88 -41.5 147.5t-186.5 59.5q-129 0 -216 -66.5t-87 -210.5q0 -72 65.5 -143.5t235.5 -216.5q35 -29 53 -45q391 -334 23 -703q-45 -45 -76 -28q-25 12 10 47q84 84 112 159.5t-13 173t-170 207.5q-20 18 -84 69.5 t-90.5 76t-78.5 72t-77 79t-55.5 73.5t-43 82t-12.5 81z" />
<glyph unicode="&#xa8;" horiz-adv-x="831" d="M104 1325q-6 61 36 93t102 28q57 -2 79.5 -36t12.5 -81q-14 -63 -49 -94t-82 -25q-41 6 -67 41t-32 74zM498 1329q-6 66 26.5 90.5t102.5 20.5q59 -2 83.5 -33t14.5 -78q-12 -63 -47 -94t-82 -25q-43 6 -67.5 41t-30.5 78z" />
<glyph unicode="&#xa9;" horiz-adv-x="1495" d="M102 664v14q4 326 203 520.5t508 194.5q250 0 414 -168t166 -475v-15q-4 -326 -203 -520.5t-508 -194.5q-250 0 -414 168.5t-166 475.5zM244 670q0 -285 119.5 -443.5t336.5 -158.5h2q276 0 411.5 175t137.5 484v14q0 287 -119.5 444.5t-336.5 160.5q-279 -2 -414 -176.5 t-137 -483.5v-16zM471 690v10q2 211 103.5 322t211.5 111q68 0 119 -35t72.5 -84t14.5 -105.5t-46 -95.5q-72 -66 -129 -8q-47 49 -33 94q8 27 35 21q59 -12 86 14q14 14 20.5 34.5t1.5 43t-21.5 42t-52.5 32t-87 12.5q-76 0 -129 -99.5t-55 -289.5v-11q0 -391 153 -391 q96 0 155.5 62.5t74.5 165.5q6 41 22 40q20 0 12 -51q-20 -117 -92.5 -184.5t-189.5 -67.5q-106 0 -175 99.5t-71 318.5z" />
<glyph unicode="&#xaa;" horiz-adv-x="1370" d="M102 1024v16q2 143 45 249t112 160t137.5 78.5t138.5 24.5q90 0 141 -47q6 33 57 72q43 20 67.5 30.5t36 -29.5t14.5 -80t3 -120v-338q0 -266 25.5 -353t115.5 -87q158 0 209 361q10 66 37 69q25 2 25 -47q2 -16 -2 -37q-70 -412 -289 -411q-229 0 -285 270 q-86 -270 -270 -270q-74 0 -126 19t-98 69.5t-70 150.5t-24 250zM285 1036q2 -260 33.5 -351t132.5 -91q94 0 155.5 170t61.5 422v2q0 307 -164 307q-217 0 -219 -442v-17z" />
<glyph unicode="&#xab;" horiz-adv-x="1009" d="M106 532q-6 20 6.5 40t25 29t48.5 32q201 125 338 319q18 29 33 9q16 -20 -10 -68q-25 -47 -264 -344q231 -283 264 -342q31 -55 8 -72q-14 -10 -31 12q-127 182 -329 314q-83 55 -89 71zM451 532q-6 20 6 40t24.5 29t48.5 32q201 125 338 319q18 29 33 9q16 -20 -10 -68 q-25 -47 -264 -344q231 -283 264 -342q31 -55 8 -72q-14 -10 -31 12q-127 182 -329 314q-82 55 -88 71z" />
<glyph unicode="&#xac;" horiz-adv-x="1120" d="M104 596q-8 23 19 32t74 9q29 0 322.5 5t336.5 5q47 0 78 -6t47 -12t24.5 -24.5t9.5 -27t0 -35t-1 -32.5q0 -84 -28 -224.5t-50 -146.5q-23 -8 -32 18.5t-9 73.5q0 29 -5 118t-5 132v37q-109 0 -442 29t-339 49z" />
<glyph unicode="&#xad;" horiz-adv-x="851" d="M104 479q-8 23 19 32t74 9q29 0 188.5 5t202.5 5q57 0 84.5 -2t56.5 -10t20.5 -25.5t-22.5 -48.5q-23 -31 -40 -37t-73 -6q-92 0 -298 29t-212 49z" />
<glyph unicode="&#xae;" horiz-adv-x="1495" d="M102 684v14q4 326 203 520.5t508 194.5q250 0 414 -168t166 -475v-14q-4 -326 -203 -520.5t-508 -194.5q-250 0 -414 168t-166 475zM244 690q0 -285 119.5 -443.5t336.5 -158.5h2q276 0 411.5 175t137.5 485v14q0 287 -119.5 444.5t-336.5 159.5q-279 -2 -414 -176 t-137 -483v-17zM352 921.5q4 69.5 67.5 131t172.5 90.5q4 51 17.5 64.5t52.5 -13.5q25 -16 32 -35q49 4 76 4q256 0 256 -248v-10q-2 -186 -186 -231q4 -4 14 -16.5t14 -18.5q215 -303 191 -336q-33 -51 -121 68q-27 37 -77 98t-68 86q-59 82 -64 104h-41q-16 -340 -41 -350 q-29 -8 -43 28t-14 99v672q-80 -20 -128 -63.5t-51 -80t15 -63.5q27 -25 86 -12q35 8 37 -33q4 -45 -35 -82q-33 -31 -70.5 -27.5t-58.5 35.5q-37 70 -33 139.5zM690 696q10 -2 37 -2q98 0 143 44t45 159v10q0 104 -34.5 162.5t-130.5 58.5q-33 0 -50 -2v-28 q0 -179 -10 -402z" />
<glyph unicode="&#xaf;" horiz-adv-x="851" d="M104 1356q-8 23 19 32t74 9q29 0 188.5 5t202.5 5q57 0 84.5 -2t56.5 -10.5t20.5 -24.5t-22.5 -47q-23 -31 -39 -38t-74 -7q-92 0 -298 29t-212 49z" />
<glyph unicode="&#xb0;" horiz-adv-x="804" d="M106 1008q-20 152 70 226.5t264 61.5q152 -10 215.5 -89t40.5 -199q-35 -164 -127 -244t-211 -59q-109 16 -174.5 106.5t-77.5 196.5zM219 1010q10 -68 51 -125.5t107 -67.5q78 -12 133 38t78 155q14 72 -26 120t-134 56q-106 8 -162.5 -41t-46.5 -135z" />
<glyph unicode="&#xb1;" horiz-adv-x="1204" d="M104.5 776.5q-8.5 22.5 18.5 31.5t74 9q25 0 356 4v221q0 74 2 108t12.5 72t32 26.5t59.5 -27.5q39 -31 48.5 -52.5t9.5 -93.5q0 -61 -21 -252q229 4 242 4q57 0 86 -2t57.5 -10t20.5 -25.5t-23 -48.5q-23 -31 -40 -37t-72 -6q-98 0 -285 15q-39 -311 -66 -420 q283 4 318 4q57 0 85 -2t56.5 -10.5t20 -25.5t-22.5 -48q-23 -31 -40 -37t-72 -6q-109 0 -449 28.5t-346 49.5q-8 23 18.5 32t73.5 9q18 0 301 4q-2 14 -2 45v72q0 61 -1 149t-1 164q-442 33 -450.5 55.5z" />
<glyph unicode="&#xb2;" horiz-adv-x="1075" d="M117 1227q39 139 160.5 232t267.5 93q147 0 251.5 -79.5t104.5 -231.5q0 -74 -43 -152.5t-122 -158.5t-151.5 -141.5t-172.5 -135.5q86 14 149 -14q156 -72 238 -16.5t104 260.5q6 61 37 63q29 4 33 -47q0 -14 -2 -31q-31 -242 -156 -347t-295 -58q-174 43 -225 43 q-98 -4 -98 -92q0 -27 -25 -39q-27 -12 -33 33q-2 8 -2 20q0 41 43 90l-2 2q2 0 6 4q25 29 62 56q266 240 356 365.5t90 260.5q0 123 -45 197t-131 74q-111 0 -204 -76t-132 -217q-25 -92 28.5 -184.5t160.5 -92.5q20 0 29.5 -15t0 -29.5t-31.5 -14.5q-139 0 -215 114.5 t-35 264.5z" />
<glyph unicode="&#xb3;" horiz-adv-x="999" d="M102 750q0 59 36 105t106 46q51 0 77.5 -37t18.5 -76.5t-43 -50.5q-94 -27 -94 -88q0 -201 233 -200q111 0 181.5 98t70.5 233q0 152 -55 193t-162 8q-53 -16 -57 6q-4 20 51 45l2 2q209 143 209 264q0 190 -133 191q-82 0 -151.5 -57.5t-98.5 -161.5q-20 -74 22 -142 q23 -35 -2 -53q-16 -12 -39 15q-72 88 -36 213q29 104 123 176.5t204 72.5q115 0 206 -63.5t91 -175.5q0 -139 -213 -250q106 -6 177 -63.5t71 -184.5q0 -172 -143.5 -307t-317.5 -135q-158 0 -246 108.5t-88 268.5z" />
<glyph unicode="&#xb4;" horiz-adv-x="655" d="M106 1159q-12 14 15 33q45 35 92 85t72.5 83t77 102.5t65.5 87.5q27 37 88 21q41 -16 35 -57t-49 -87q-141 -147 -322 -256q-58 -37 -74 -12z" />
<glyph unicode="&#xb5;" horiz-adv-x="1370" d="M102 489v394q0 80 10.5 103.5t53.5 55.5q43 20 67.5 31.5t36 -29t14.5 -79.5t3 -121v-66q6 -35 4 -90l-4 -117v-69q0 -248 41 -345.5t143 -97.5q84 0 135 138.5t64 373.5v312q0 78 10 102.5t53 56.5q43 20 67.5 31.5t36 -29t14.5 -79.5t3 -121v-338q0 -266 25.5 -353 t115.5 -87q160 0 209 360q10 66 37 70q25 2 25 -47q2 -16 -2 -37q-68 -412 -289 -412q-229 0 -285 268q-43 -135 -102.5 -201.5t-147.5 -66.5q-96 0 -182 102q-53 -764 -90 -778q-33 -10 -47.5 28t-14.5 107v990q-4 28 -4 40z" />
<glyph unicode="&#x3bc;" horiz-adv-x="1370" d="M102 489v394q0 80 10.5 103.5t53.5 55.5q43 20 67.5 31.5t36 -29t14.5 -79.5t3 -121v-66q6 -35 4 -90l-4 -117v-69q0 -248 41 -345.5t143 -97.5q84 0 135 138.5t64 373.5v312q0 78 10 102.5t53 56.5q43 20 67.5 31.5t36 -29t14.5 -79.5t3 -121v-338q0 -266 25.5 -353 t115.5 -87q160 0 209 360q10 66 37 70q25 2 25 -47q2 -16 -2 -37q-68 -412 -289 -412q-229 0 -285 268q-43 -135 -102.5 -201.5t-147.5 -66.5q-96 0 -182 102q-53 -764 -90 -778q-33 -10 -47.5 28t-14.5 107v990q-4 28 -4 40z" />
<glyph unicode="&#xb6;" horiz-adv-x="1622" d="M110.5 215q-18.5 86 9 170t97.5 117q88 41 135 -10q39 -43 6 -86q-18 -25 -57 -35q-96 -23 -113 -109q-18 -90 62 -156q66 -53 170 -53q123 0 180 132t68 454q-98 0 -191.5 27.5t-175.5 82t-132 148.5t-52 215v16q2 205 151.5 312.5t401.5 107.5q139 0 270 -27.5 t235.5 -75.5t183.5 -114.5t120 -140.5t40 -157t-51 -163q-31 -53 -94 -59t-119 45q-70 70 -59 145q12 57 64 48q59 -14 85.5 -10.5t55.5 30.5q70 68 -39 180q-131 133 -379 203q-141 39 -283 39q-193 0 -296 -106.5t-103 -268.5v-16q2 -197 89 -299.5t245 -102.5q25 0 35 2 q0 12 1 40t1 44v443q0 80 10 104.5t53 54.5q43 18 66.5 32t36 -28t14.5 -80t2 -122v-393q-8 -799 -467 -799q-111 0 -184.5 66.5t-92 152.5zM944 135q0 41 3 498t3 516q0 80 3 120t14.5 80t36 29.5t67.5 -30.5q45 -35 55.5 -59.5t8.5 -100.5q-8 -301 -53.5 -738.5 t-75.5 -449.5q-33 -10 -47.5 27.5t-14.5 107.5z" />
<glyph unicode="&#xb7;" horiz-adv-x="417" d="M102 592q0 41 31 70.5t76 29.5t75.5 -29.5t30.5 -70.5q0 -43 -30.5 -73t-75.5 -30t-76 30t-31 73z" />
<glyph unicode="&#xb8;" horiz-adv-x="849" d="M114.5 -365.5q24.5 74.5 108.5 113.5q84 41 131 -16q39 -45 8 -90q-16 -27 -55 -35q-78 -18 -109.5 -74.5t13.5 -106t166 -49.5q100 0 186 60.5t102.5 146.5t-71.5 178q-53 47 -114.5 63.5t-97.5 16.5t-40 15q-6 25 18.5 78t47.5 85q31 53 67 37q33 -14 12 -57l-49 -109 q127 0 213 -73q80 -70 92.5 -159t-31.5 -164t-139.5 -126t-214.5 -51q-82 0 -149.5 52t-93 121t-1 143.5z" />
<glyph unicode="&#xb9;" horiz-adv-x="632" d="M109 1163q-16 18 69 94q158 143 234 256q39 59 63 60q55 8 55 -137q0 -43 -1 -348.5t-1 -366.5q0 -80 -3 -120t-14 -80t-35.5 -29.5t-67.5 30.5q-43 35 -54.5 59.5t-9.5 102.5q14 418 78 748q-106 -141 -221 -236q-69 -60 -92 -33z" />
<glyph unicode="&#xba;" horiz-adv-x="1269" d="M102 1022v16q2 135 41 236.5t101.5 158t127 84t134.5 33.5q35 2 37 -24q-6 -29 -39 -33q-215 0 -217 -442v-17q0 -258 32.5 -350t133.5 -92q215 0 217 442h-21q-131 0 -195.5 57.5t-64.5 153.5t51.5 153.5t149.5 57.5h8q35 0 56.5 -2t60.5 -19.5t63.5 -50t46 -100 t27.5 -164.5q123 45 256 148q33 25 53 4q16 -18 -14 -43q-139 -111 -293 -162v-20q-2 -143 -46 -250t-112.5 -161t-137.5 -79t-138 -25q-72 0 -124 19.5t-98 70t-71 150.5t-25 250zM451 1253q0 -74 57 -120t160 -46h2q-2 133 -16.5 204t-32 88.5t-48.5 19.5 q-122 -1 -122 -146z" />
<glyph unicode="&#xbb;" horiz-adv-x="1009" d="M111 139q-16 20 8 68q12 23 111.5 149.5t154.5 192.5q-57 70 -155.5 196.5t-110.5 147.5q-31 55 -6 72q14 10 30 -13q125 -180 328 -313q2 -2 24.5 -16.5t41 -29.5t22.5 -26q10 -27 -8.5 -46t-61.5 -48q-6 -4 -10 -6q-205 -131 -336 -320q-18 -28 -32 -8zM455 139 q-16 20 8 68q12 23 111.5 149.5t154.5 192.5q-57 70 -155.5 196.5t-110.5 147.5q-31 55 -6 72q14 10 30 -13q125 -180 328 -313q2 -2 24.5 -16.5t41 -29.5t22.5 -26q10 -27 -8 -46t-61 -48q-6 -4 -11 -6q-205 -131 -336 -320q-18 -28 -32 -8z" />
<glyph unicode="&#xbc;" horiz-adv-x="1789" d="M109 1327q-16 18 69 94q158 143 234 256q39 59 63 60q55 8 55 -138q0 -43 -1 -348t-1 -366q0 -80 -3 -120t-14 -80t-35.5 -29.5t-67.5 30.5q-43 35 -54.5 59.5t-9.5 102.5q14 418 78 747q-106 -141 -221 -235q-69 -60 -92 -33zM502 -88q-4 31 8 80q4 18 105.5 376.5 t200.5 715t111.5 407.5t24 88t24.5 77t28.5 63.5t32 38t37 11t42.5 -23.5q23 -23 27 -59.5t-1 -66.5t-22 -91q-33 -133 -298 -882.5t-290 -756.5q-26 -8 -30 23zM791 147q2 12 12 35q242 502 504 887q47 66 92 41q41 -12 41 -135q0 -25 -1 -153t-3 -317.5t-2 -314.5 q25 0 53.5 -1t63 -3t53.5 -2q49 -2 67.5 -25.5t14.5 -43.5q-2 -10 -11.5 -10.5t-42.5 4t-63 6.5q-70 6 -135 6q-2 -115 -2 -236q0 -160 -17.5 -201.5t-103.5 3.5q-43 33 -54.5 57.5t-9.5 101.5q2 53 15 277q-143 -4 -414 -27q-29 -2 -43 6q-6 0 -12 7q-16 15 -2 38zM877 170 q172 20 389 23q41 575 82 808q-158 -239 -471 -831z" />
<glyph unicode="&#xbd;" horiz-adv-x="1855" d="M109 1389q-16 18 69 94q158 143 234 256q39 59 63 59q55 8 55 -137q0 -43 -1 -348t-1 -367q0 -80 -3 -120t-14 -79.5t-35.5 -29.5t-67.5 31q-43 35 -54.5 59t-9.5 102q14 418 78 748q-106 -141 -221 -236q-69 -59 -92 -32zM418 -88q-4 31 8 80q4 18 105.5 376.5 t200.5 715t111.5 407.5t24 88t24.5 77t28.5 63.5t32 38t37 11t42.5 -23.5q23 -23 27 -59.5t-1 -66.5t-22 -91q-33 -133 -298 -882.5t-289 -756.5q-27 -8 -31 23zM897 776q39 139 161 232.5t267 93.5q147 0 251.5 -80t104.5 -231q0 -74 -43 -153t-121.5 -159t-151.5 -141.5 t-173 -134.5q86 14 149 -15q156 -72 238 -16.5t104 260.5q6 61 37 64q29 4 33 -47q0 -14 -2 -31q-31 -242 -156 -347.5t-295 -58.5q-174 43 -225 43q-98 -4 -98 -92q0 -27 -25 -39q-27 -12 -32 33q-2 8 -2 20q0 41 43 91l-3 2q2 0 7 4q25 29 61 55q266 240 356.5 366 t90.5 261q0 123 -45.5 196.5t-131.5 73.5q-111 0 -204 -76t-131 -217q-25 -92 28 -184t160 -92q20 0 29.5 -15.5t0 -30t-31.5 -14.5q-139 0 -215 114.5t-35 264.5z" />
<glyph unicode="&#xbe;" horiz-adv-x="1998" d="M102 967q0 59 36 105t106 46q51 0 77.5 -37t18.5 -76.5t-43 -50.5q-94 -27 -94 -88q0 -201 233 -200q111 0 181.5 98t70.5 233q0 152 -55 193t-162 8q-53 -16 -57 6q-4 20 51 45l2 2q209 143 209 265q0 190 -133 190q-82 0 -151.5 -57.5t-98.5 -161.5q-20 -74 22 -141 q23 -35 -2 -54q-16 -12 -39 15q-72 88 -36 213q29 104 123 176.5t204 72.5q115 0 206 -63.5t91 -175.5q0 -139 -213 -250q106 -6 177 -63.5t71 -184.5q0 -172 -143.5 -307t-317.5 -135q-158 0 -246 108.5t-88 268.5zM715 -88q-4 31 8 80q4 18 105.5 376.5t200.5 715 t111.5 407.5t24 88t24.5 77t28.5 63.5t32 38t37 11t42.5 -23.5q23 -23 27 -59.5t-1 -66.5t-22 -91q-33 -133 -298 -882.5t-290 -756.5q-26 -8 -30 23zM999 147q2 12 13 35q242 502 504 887q47 66 92 41q41 -12 41 -135q0 -25 -1 -153t-3.5 -317.5t-2.5 -314.5q25 0 53.5 -1 t63.5 -3t53 -2q49 -2 67.5 -25.5t14.5 -43.5q-2 -10 -11 -10.5t-42 4t-63 6.5q-70 6 -136 6q-2 -115 -2 -236q0 -160 -17 -201.5t-103 3.5q-43 33 -54.5 57.5t-9.5 101.5q2 53 14 277q-143 -4 -413 -27q-29 -2 -43 6q-6 0 -13 7q-16 15 -2 38zM1085 170q172 20 390 23 q41 575 81 808q-158 -239 -471 -831z" />
<glyph unicode="&#xbf;" horiz-adv-x="1017" d="M102 205q0 125 62.5 215t147.5 141t168 99.5t131 116t28 161.5q-4 20 5 31.5t22.5 5.5t17.5 -31q20 -100 -10.5 -177t-91 -130t-123 -105.5t-108.5 -131t-46 -179.5q0 -174 59.5 -262t155.5 -88q246 0 316 262q35 135 -54 240q-27 31 -6 53q25 25 64 -18 q113 -133 59 -318q-37 -139 -148.5 -217t-261.5 -78q-156 0 -271.5 102.5t-115.5 307.5zM553 1200q0 43 31.5 73t74.5 30q45 0 76 -30t31 -73q0 -41 -30.5 -70.5t-76.5 -29.5q-43 0 -74.5 29.5t-31.5 70.5z" />
<glyph unicode="&#xc0;" horiz-adv-x="1837" d="M68 338q0 121 85 203t187 82q92 0 121 -78q25 -66 -17 -99q-16 -12 -36 -12q-92 0 -168 -40t-76 -134q0 -88 52 -141t136 -53q96 0 187.5 134t148.5 375q0 14 6 29l6 27q94 451 161 632t134 220l-69 18q-35 4 -84 5t-106.5 -15t-106.5 -40t-83 -71t-36 -106 q-4 -68 135 -105q74 -20 70 -77q-2 -49 -58 -66q-43 -14 -98 14q-47 23 -75.5 89.5t-26.5 144.5q4 139 158.5 231t340.5 56q182 -35 288 -185.5t177 -519.5q84 -430 156 -610t168 -180q160 0 211 360q10 68 37 70q29 0 22 -62q0 -10 -2 -22q-68 -412 -287 -412 q-70 0 -121 18.5t-107 71.5t-105.5 167t-94.5 292q-106 -2 -282 -9.5t-264 -7.5q-72 -266 -170.5 -399t-249.5 -133q-127 0 -195.5 96.5t-68.5 241.5zM780 645q72 0 240 -1t258 -1q-8 33 -10 49q-25 113 -51.5 253t-39 201.5t-32 132.5t-37.5 105.5t-47 59.5 q-88 -11 -281 -799zM824.5 1936q-9.5 40 31.5 59q59 23 88 -13q8 -8 48 -56t54.5 -64.5t51.5 -56.5t60.5 -61.5t57 -50t66.5 -51.5q31 -18 14 -34q-20 -18 -71 10q-209 113 -346 235q-45 43 -54.5 83z" />
<glyph unicode="&#xc1;" horiz-adv-x="1837" d="M68 338q0 121 85 203t187 82q92 0 121 -78q25 -66 -17 -99q-16 -12 -36 -12q-92 0 -168 -40t-76 -134q0 -88 52 -141t136 -53q96 0 187.5 134t148.5 375q0 14 6 29l6 27q94 451 161 632t134 220l-69 18q-35 4 -84 5t-106.5 -15t-106.5 -40t-83 -71t-36 -106 q-4 -68 135 -105q74 -20 70 -77q-2 -49 -58 -66q-43 -14 -98 14q-47 23 -75.5 89.5t-26.5 144.5q4 139 158.5 231t340.5 56q182 -35 288 -185.5t177 -519.5q84 -430 156 -610t168 -180q160 0 211 360q10 68 37 70q29 0 22 -62q0 -10 -2 -22q-68 -412 -287 -412 q-70 0 -121 18.5t-107 71.5t-105.5 167t-94.5 292q-106 -2 -282 -9.5t-264 -7.5q-72 -266 -170.5 -399t-249.5 -133q-127 0 -195.5 96.5t-68.5 241.5zM780 645q72 0 240 -1t258 -1q-8 33 -10 49q-25 113 -51.5 253t-39 201.5t-32 132.5t-37.5 105.5t-47 59.5 q-88 -11 -281 -799zM842 1651q-12 14 14 32q45 35 92 85.5t73 83t77 102t65 88.5q27 37 88 20q41 -16 35 -57t-49 -86q-141 -147 -322 -256q-57 -37 -73 -12z" />
<glyph unicode="&#xc2;" horiz-adv-x="1837" d="M68 338q0 121 85 203t187 82q92 0 121 -78q25 -66 -17 -99q-16 -12 -36 -12q-92 0 -168 -40t-76 -134q0 -88 52 -141t136 -53q96 0 187.5 134t148.5 375q0 14 6 29l6 27q94 451 161 632t134 220l-69 18q-35 4 -84 5t-106.5 -15t-106.5 -40t-83 -71t-36 -106 q-4 -68 135 -105q74 -20 70 -77q-2 -49 -58 -66q-43 -14 -98 14q-47 23 -75.5 89.5t-26.5 144.5q4 139 158.5 231t340.5 56q182 -35 288 -185.5t177 -519.5q84 -430 156 -610t168 -180q160 0 211 360q10 68 37 70q29 0 22 -62q0 -10 -2 -22q-68 -412 -287 -412 q-70 0 -121 18.5t-107 71.5t-105.5 167t-94.5 292q-106 -2 -282 -9.5t-264 -7.5q-72 -266 -170.5 -399t-249.5 -133q-127 0 -195.5 96.5t-68.5 241.5zM705 1608q-14 14 12 34q160 121 332 349q37 45 73.5 43t55.5 -43q115 -231 268 -349q31 -25 12 -36q-23 -14 -72 16 q-119 74 -280 240q-92 -92 -328 -240q-53 -34 -73 -14zM780 645q72 0 240 -1t258 -1q-8 33 -10 49q-25 113 -51.5 253t-39 201.5t-32 132.5t-37.5 105.5t-47 59.5q-88 -11 -281 -799z" />
<glyph unicode="&#xc3;" horiz-adv-x="1837" d="M68 338q0 121 85 203t187 82q92 0 121 -78q25 -66 -17 -99q-16 -12 -36 -12q-92 0 -168 -40t-76 -134q0 -88 52 -141t136 -53q96 0 187.5 134t148.5 375q0 14 6 29l6 27q94 451 161 632t134 220l-69 18q-35 4 -84 5t-106.5 -15t-106.5 -40t-83 -71t-36 -106 q-4 -68 135 -105q74 -20 70 -77q-2 -49 -58 -66q-43 -14 -98 14q-47 23 -75.5 89.5t-26.5 144.5q4 139 158.5 231t340.5 56q182 -35 288 -185.5t177 -519.5q84 -430 156 -610t168 -180q160 0 211 360q10 68 37 70q29 0 22 -62q0 -10 -2 -22q-68 -412 -287 -412 q-70 0 -121 18.5t-107 71.5t-105.5 167t-94.5 292q-106 -2 -282 -9.5t-264 -7.5q-72 -266 -170.5 -399t-249.5 -133q-127 0 -195.5 96.5t-68.5 241.5zM715 1694q45 94 135 149t203 2q2 -2 6 -4q6 -2 6 -4q92 -45 173 -37t112 72q14 31 36 2q33 -39 11 -84 q-39 -82 -144.5 -115t-224.5 17l-10 6q-211 98 -270 -27q-10 -25 -27.5 -13.5t-5.5 36.5zM780 645q72 0 240 -1t258 -1q-8 33 -10 49q-25 113 -51.5 253t-39 201.5t-32 132.5t-37.5 105.5t-47 59.5q-88 -11 -281 -799z" />
<glyph unicode="&#xc4;" horiz-adv-x="1837" d="M68 338q0 121 85 203t187 82q92 0 121 -78q25 -66 -17 -99q-16 -12 -36 -12q-92 0 -168 -40t-76 -134q0 -88 52 -141t136 -53q96 0 187.5 134t148.5 375q0 14 6 29l6 27q94 451 161 632t134 220l-69 18q-35 4 -84 5t-106.5 -15t-106.5 -40t-83 -71t-36 -106 q-4 -68 135 -105q74 -20 70 -77q-2 -49 -58 -66q-43 -14 -98 14q-47 23 -75.5 89.5t-26.5 144.5q4 139 158.5 231t340.5 56q182 -35 288 -185.5t177 -519.5q84 -430 156 -610t168 -180q160 0 211 360q10 68 37 70q29 0 22 -62q0 -10 -2 -22q-68 -412 -287 -412 q-70 0 -121 18.5t-107 71.5t-105.5 167t-94.5 292q-106 -2 -282 -9.5t-264 -7.5q-72 -266 -170.5 -399t-249.5 -133q-127 0 -195.5 96.5t-68.5 241.5zM750 1735q-6 61 35.5 93t101.5 27q57 -2 79.5 -35.5t12.5 -80.5q-14 -63 -49 -94t-82 -25q-41 6 -66.5 41t-31.5 74z M780 645q72 0 240 -1t258 -1q-8 33 -10 49q-25 113 -51.5 253t-39 201.5t-32 132.5t-37.5 105.5t-47 59.5q-88 -11 -281 -799zM1143 1739q-6 66 26.5 90t102.5 20q59 -2 83.5 -32.5t14.5 -77.5q-12 -63 -47 -94t-82 -25q-43 6 -67.5 41t-30.5 78z" />
<glyph unicode="&#xc5;" horiz-adv-x="1837" d="M68 338q0 121 85 203t187 82q92 0 121 -78q25 -66 -17 -99q-16 -12 -36 -12q-92 0 -168 -40t-76 -134q0 -88 52 -141t136 -53q96 0 187.5 134t148.5 375q0 14 6 29l6 27q94 451 161 632t134 220l-69 18q-35 4 -84 5t-106.5 -15t-106.5 -40t-83 -71t-36 -106 q-4 -68 135 -105q74 -20 70 -77q-2 -49 -58 -66q-43 -14 -98 14q-47 23 -75.5 89.5t-26.5 144.5q4 139 158.5 231t340.5 56q182 -35 288 -185.5t177 -519.5q84 -430 156 -610t168 -180q160 0 211 360q10 68 37 70q29 0 22 -62q0 -10 -2 -22q-68 -412 -287 -412 q-70 0 -121 18.5t-107 71.5t-105.5 167t-94.5 292q-106 -2 -282 -9.5t-264 -7.5q-72 -266 -170.5 -399t-249.5 -133q-127 0 -195.5 96.5t-68.5 241.5zM780 645q72 0 240 -1t258 -1q-8 33 -10 49q-25 113 -51.5 253t-39 201.5t-32 132.5t-37.5 105.5t-47 59.5 q-88 -11 -281 -799zM881 1802q-12 102 41 143.5t163 32.5q92 -6 131 -54t25 -122q-20 -100 -76.5 -149t-130.5 -37q-68 10 -107.5 65t-45.5 121zM963 1806q4 -35 26.5 -65.5t57.5 -36.5q86 -14 112 102q8 39 -13.5 65.5t-72.5 29.5q-59 4 -87.5 -18t-22.5 -77z" />
<glyph unicode="&#xc6;" horiz-adv-x="2050" d="M72 338q0 121 85 203t187 82q92 0 123 -78q23 -66 -18 -99q-14 -12 -37 -12q-90 0 -166 -40t-76 -134q0 -88 51 -141t135 -53q96 0 186.5 131t147.5 368h-4q-37 -2 -46 24.5t6.5 56.5t35.5 32q4 0 16.5 1t18.5 1q84 391 151.5 548.5t139.5 184.5q-16 6 -54 14 q-66 12 -154.5 -1t-172.5 -71.5t-88 -156.5q-4 -66 137 -102q72 -20 67 -78q-2 -51 -57 -66q-43 -12 -98 15q-47 23 -76 88t-27 145q4 137 160 230.5t342 56.5q207 -41 311 -227q72 86 185.5 130t220.5 44q115 0 200 -58.5t119.5 -140.5t23.5 -174t-77 -158 q-47 -47 -101 -55t-114 41q-68 70 -57 145q12 57 61 47q57 -14 87 -10t57 31q25 25 35 58.5t0.5 70.5t-37 69.5t-87 53t-143.5 20.5q-113 0 -188.5 -84t-77.5 -237v-17q0 -27 4 -67q0 -2 11.5 -47t15.5 -72q51 -117 172 -117h59q59 0 59 -20q-2 -23 -57 -33q-16 -4 -35 -4 q-123 0 -196.5 -73t-75.5 -218v-16q0 -135 101.5 -222.5t232.5 -87.5q166 0 299 108.5t155 268.5q10 66 37 70q25 2 25 -47q2 -16 -2 -37q-31 -188 -187.5 -305t-357.5 -117q-115 0 -220.5 33t-186 116.5t-80.5 206.5v17q2 150 118 245l-4 17q-90 -10 -269 -31.5t-257 -30.5 q-74 -289 -172 -431t-256 -142q-129 0 -197.5 96.5t-68.5 241.5zM795 688l479 41l-29 150q-20 51 -22 114q-37 182 -62.5 260t-70.5 117q-51 -4 -133 -188.5t-162 -493.5zM1298 621l25 18q-6 0 -8 -2z" />
<glyph unicode="&#xc7;" horiz-adv-x="933" d="M72 698v17q2 150 37.5 273.5t92 204.5t126 136t137 80t131.5 25q115 0 201 -58.5t120.5 -140.5t22.5 -174t-78 -158q-45 -47 -100 -55t-113 41q-70 70 -59 145q12 57 63 47q57 -14 86 -10t56 31q25 25 35 58.5t1.5 70.5t-36 69.5t-87 53t-143.5 20.5q-129 0 -219 -165 t-92 -482v-16q2 -651 319 -652q176 0 297 106.5t146 270.5q10 68 37 70q29 0 22 -62q0 -10 -2 -22q-31 -193 -174 -307.5t-356 -114.5h-19l-49 -109q127 0 213 -73q80 -70 92.5 -159t-31.5 -164t-139.5 -126t-214.5 -51q-82 0 -149.5 52t-93 121t-1 143.5t108.5 113.5 q84 41 131 -16q39 -45 8 -90q-16 -27 -55 -35q-78 -18 -109.5 -74.5t13.5 -106t166 -49.5q100 0 186 60.5t102.5 146.5t-71.5 178q-53 47 -114.5 63.5t-97.5 16.5t-40 15q-6 23 15.5 71.5t43.5 83.5q-162 37 -263 204t-103 482z" />
<glyph unicode="&#xc8;" horiz-adv-x="944" d="M72 354v17q2 123 73.5 202.5t184.5 118.5q-213 74 -215 330v14q2 102 51 182t125 124t154.5 67t152.5 23q115 0 200 -58.5t119.5 -140.5t23.5 -174t-77 -158q-47 -47 -101 -55t-114 43q-68 68 -59 141q12 59 63 49q57 -14 87 -10t57 31q25 25 35 59.5t0.5 71.5t-37 68.5 t-87 52t-143.5 20.5q-113 0 -188.5 -83t-77.5 -238v-17q0 -143 51 -223t152 -80h12q8 0 23.5 1t23.5 1q61 0 57 -22q-4 -25 -61 -35q-14 -2 -29 -2q-125 0 -198.5 -73t-73.5 -216v-18q0 -135 100.5 -222.5t233.5 -87.5q166 0 299 108.5t155 268.5q10 66 37 70q25 4 25 -51 q0 -14 -2 -33q-31 -188 -188.5 -305t-358.5 -117q-115 0 -219.5 32.5t-185 116.5t-80.5 207zM275.5 1895q-9.5 40 31.5 59q59 23 88 -12q8 -8 48 -56.5t54.5 -65t51.5 -56.5t60.5 -61.5t57 -50t66.5 -50.5q31 -18 15 -35q-20 -18 -72 10q-209 113 -346 235q-45 43 -54.5 83z " />
<glyph unicode="&#xc9;" horiz-adv-x="944" d="M72 354v17q2 123 73.5 202.5t184.5 118.5q-213 74 -215 330v14q2 102 51 182t125 124t154.5 67t152.5 23q115 0 200 -58.5t119.5 -140.5t23.5 -174t-77 -158q-47 -47 -101 -55t-114 43q-68 68 -59 141q12 59 63 49q57 -14 87 -10t57 31q25 25 35 59.5t0.5 71.5t-37 68.5 t-87 52t-143.5 20.5q-113 0 -188.5 -83t-77.5 -238v-17q0 -143 51 -223t152 -80h12q8 0 23.5 1t23.5 1q61 0 57 -22q-4 -25 -61 -35q-14 -2 -29 -2q-125 0 -198.5 -73t-73.5 -216v-18q0 -135 100.5 -222.5t233.5 -87.5q166 0 299 108.5t155 268.5q10 66 37 70q25 4 25 -51 q0 -14 -2 -33q-31 -188 -188.5 -305t-358.5 -117q-115 0 -219.5 32.5t-185 116.5t-80.5 207zM252 1569q-12 14 14 33q45 35 92.5 85t73 82.5t76.5 102.5t65 88q27 37 89 20q41 -16 34.5 -57t-49.5 -86q-141 -147 -321 -256q-58 -37 -74 -12z" />
<glyph unicode="&#xca;" horiz-adv-x="944" d="M72 354v17q2 123 73.5 202.5t184.5 118.5q-213 74 -215 330v14q2 102 51 182t125 124t154.5 67t152.5 23q115 0 200 -58.5t119.5 -140.5t23.5 -174t-77 -158q-47 -47 -101 -55t-114 43q-68 68 -59 141q12 59 63 49q57 -14 87 -10t57 31q25 25 35 59.5t0.5 71.5t-37 68.5 t-87 52t-143.5 20.5q-113 0 -188.5 -83t-77.5 -238v-17q0 -143 51 -223t152 -80h12q8 0 23.5 1t23.5 1q61 0 57 -22q-4 -25 -61 -35q-14 -2 -29 -2q-125 0 -198.5 -73t-73.5 -216v-18q0 -135 100.5 -222.5t233.5 -87.5q166 0 299 108.5t155 268.5q10 66 37 70q25 4 25 -51 q0 -14 -2 -33q-31 -188 -188.5 -305t-358.5 -117q-115 0 -219.5 32.5t-185 116.5t-80.5 207zM135 1567q-14 14 12 35q160 121 332 348q37 45 74 43t55 -43q115 -231 269 -348q31 -25 12 -37q-23 -14 -72 16q-119 74 -280 240q-92 -92 -328 -240q-54 -34 -74 -14z" />
<glyph unicode="&#xcb;" horiz-adv-x="944" d="M72 354v17q2 123 73.5 202.5t184.5 118.5q-213 74 -215 330v14q2 102 51 182t125 124t154.5 67t152.5 23q115 0 200 -58.5t119.5 -140.5t23.5 -174t-77 -158q-47 -47 -101 -55t-114 43q-68 68 -59 141q12 59 63 49q57 -14 87 -10t57 31q25 25 35 59.5t0.5 71.5t-37 68.5 t-87 52t-143.5 20.5q-113 0 -188.5 -83t-77.5 -238v-17q0 -143 51 -223t152 -80h12q8 0 23.5 1t23.5 1q61 0 57 -22q-4 -25 -61 -35q-14 -2 -29 -2q-125 0 -198.5 -73t-73.5 -216v-18q0 -135 100.5 -222.5t233.5 -87.5q166 0 299 108.5t155 268.5q10 66 37 70q25 4 25 -51 q0 -14 -2 -33q-31 -188 -188.5 -305t-358.5 -117q-115 0 -219.5 32.5t-185 116.5t-80.5 207zM201 1735q-6 61 36 93t101 27q57 -2 79.5 -35.5t12.5 -80.5q-14 -63 -49 -94t-82 -25q-41 6 -66.5 41t-31.5 74zM594 1739q-6 66 26.5 90t102.5 20q59 -2 83.5 -32.5t14.5 -77.5 q-12 -63 -47 -94t-82 -25q-43 6 -67.5 41t-30.5 78z" />
<glyph unicode="&#xcc;" horiz-adv-x="888" d="M73.5 338q18.5 123 112.5 168q88 41 136 -10q39 -43 6 -86q-18 -25 -58 -35q-96 -23 -112 -109q-18 -90 61 -153q66 -53 170 -54q141 0 217 169t78 560v510q-61 -25 -197 -24q-111 0 -173 -30t-70 -74t9 -89t52 -82q27 -27 55.5 -30.5t88.5 10.5q53 12 63 -45 q8 -76 -59 -146q-59 -49 -112.5 -41.5t-102.5 54.5q-94 94 -105.5 219t74.5 218t248 93q207 0 233 66q0 6 4 18v2q0 2 2 4q8 23 54 58q43 20 67.5 30.5t35.5 -29.5t14 -80t3 -120v-479q-2 -180 -31.5 -321.5t-77.5 -229.5t-114.5 -145.5t-136.5 -81t-150 -23.5 q-147 0 -225 107.5t-59.5 230.5zM208 1895q-9 40 32 59q59 23 88 -12q8 -8 48 -56.5t54 -65t51 -56.5t60.5 -61.5t57.5 -50t67 -50.5q31 -18 14 -35q-20 -18 -72 10q-209 113 -346 235q-45 43 -54 83z" />
<glyph unicode="&#xcd;" horiz-adv-x="888" d="M73.5 338q18.5 123 112.5 168q88 41 136 -10q39 -43 6 -86q-18 -25 -58 -35q-96 -23 -112 -109q-18 -90 61 -153q66 -53 170 -54q141 0 217 169t78 560v510q-61 -25 -197 -24q-111 0 -173 -30t-70 -74t9 -89t52 -82q27 -27 55.5 -30.5t88.5 10.5q53 12 63 -45 q8 -76 -59 -146q-59 -49 -112.5 -41.5t-102.5 54.5q-94 94 -105.5 219t74.5 218t248 93q207 0 233 66q0 6 4 18v2q0 2 2 4q8 23 54 58q43 20 67.5 30.5t35.5 -29.5t14 -80t3 -120v-479q-2 -180 -31.5 -321.5t-77.5 -229.5t-114.5 -145.5t-136.5 -81t-150 -23.5 q-147 0 -225 107.5t-59.5 230.5zM223 1569q-12 14 15 33q45 35 92 85t72.5 82.5t76.5 102.5t66 88q27 37 88 20q41 -16 35 -57t-50 -86q-141 -147 -321 -256q-58 -37 -74 -12z" />
<glyph unicode="&#xce;" horiz-adv-x="888" d="M73.5 338q18.5 123 112.5 168q88 41 136 -10q39 -43 6 -86q-18 -25 -58 -35q-96 -23 -112 -109q-18 -90 61 -153q66 -53 170 -54q141 0 217 169t78 560v510q-61 -25 -197 -24q-111 0 -173 -30t-70 -74t9 -89t52 -82q27 -27 55.5 -30.5t88.5 10.5q53 12 63 -45 q8 -76 -59 -146q-59 -49 -112.5 -41.5t-102.5 54.5q-94 94 -105.5 219t74.5 218t248 93q207 0 233 66q0 6 4 18v2q0 2 2 4q8 23 54 58q43 20 67.5 30.5t35.5 -29.5t14 -80t3 -120v-479q-2 -180 -31.5 -321.5t-77.5 -229.5t-114.5 -145.5t-136.5 -81t-150 -23.5 q-147 0 -225 107.5t-59.5 230.5zM150 1567q-14 14 12 35q160 121 332 348q37 45 73.5 43t55.5 -43q115 -231 268 -348q31 -25 12 -37q-23 -14 -72 16q-119 74 -280 240q-92 -92 -328 -240q-53 -34 -73 -14z" />
<glyph unicode="&#xcf;" horiz-adv-x="888" d="M73.5 338q18.5 123 112.5 168q88 41 136 -10q39 -43 6 -86q-18 -25 -58 -35q-96 -23 -112 -109q-18 -90 61 -153q66 -53 170 -54q141 0 217 169t78 560v510q-61 -25 -197 -24q-111 0 -173 -30t-70 -74t9 -89t52 -82q27 -27 55.5 -30.5t88.5 10.5q53 12 63 -45 q8 -76 -59 -146q-59 -49 -112.5 -41.5t-102.5 54.5q-94 94 -105.5 219t74.5 218t248 93q207 0 233 66q0 6 4 18v2q0 2 2 4q8 23 54 58q43 20 67.5 30.5t35.5 -29.5t14 -80t3 -120v-479q-2 -180 -31.5 -321.5t-77.5 -229.5t-114.5 -145.5t-136.5 -81t-150 -23.5 q-147 0 -225 107.5t-59.5 230.5zM195 1735q-6 61 35.5 93t101.5 27q57 -2 79.5 -35.5t12.5 -80.5q-14 -63 -49 -94t-82 -25q-41 6 -66.5 41t-31.5 74zM588 1739q-6 66 26.5 90t102.5 20q59 -2 83.5 -32.5t14.5 -77.5q-12 -63 -47 -94t-82 -25q-43 6 -67.5 41t-30.5 78z" />
<glyph unicode="&#xd0;" horiz-adv-x="1452" d="M73.5 338q18.5 123 112.5 168q88 41 136 -10q39 -43 6 -86q-18 -25 -58 -35q-96 -23 -112 -109q-18 -90 61 -153q66 -53 170 -54q113 0 170 112t74 384q-238 31 -244 55q-8 23 18.5 32t73.5 9q18 0 158 4q0 20 1 64.5t1 68.5v545q-70 -27 -131 -67.5t-101 -82.5t-67 -85 t-27 -76t19 -55q29 -27 57.5 -32t85.5 9q53 12 64 -45q8 -76 -60 -145q-55 -51 -118.5 -46t-96.5 58q-98 162 16.5 350.5t360.5 274.5q4 33 16.5 48t45.5 40q57 39 81.5 26.5t32.5 -73.5q49 8 113 8q244 0 365.5 -153.5t123.5 -532.5v-17q-2 -186 -55 -332.5t-139 -231.5 t-187.5 -129t-212.5 -44q-137 0 -249 63q-92 -63 -222 -63q-145 0 -223 107.5t-59.5 230.5zM641 117q84 -57 219 -58q375 0 377 666v16q0 344 -76 491.5t-262 147.5q-51 0 -76 -4q0 -14 1 -46t1 -50v-479q-6 -133 -6 -139h53q57 0 85 -2.5t56.5 -10.5t20.5 -25.5t-22 -48.5 q-23 -31 -40.5 -37t-72.5 -6q-18 0 -92 5q-41 -289 -166 -420z" />
<glyph unicode="&#xd1;" horiz-adv-x="1634" d="M72 1100q0 117 45 206t115.5 136t155.5 54t164 -28.5t143.5 -126t90.5 -223.5q49 193 134.5 274t177.5 81q133 0 199.5 -109t66.5 -403v-455q0 -264 26.5 -352t114.5 -88q160 0 211 360q10 68 37 70q27 0 23 -62q0 -10 -2 -22q-68 -412 -289 -412q-141 0 -222 108.5 t-81 397.5v455v108q2 213 -13.5 275.5t-91.5 62.5q-43 0 -83 -27.5t-83 -92t-71.5 -197t-36.5 -318.5v-543q0 -82 -2 -119.5t-14.5 -79.5t-36 -30t-66.5 31q-43 33 -53 57.5t-10 104.5v753q0 350 -148 451q-98 68 -201 -11q-113 -82 -127 -253q-2 -20 -2 -39 q0 -178 62.5 -261t159.5 -42q88 37 100 112q10 59 -33 72q-25 8 -61 -12q-68 -39 -105 8q-35 45 4 96q25 31 74 47q86 29 143 -61q59 -92 25 -195q-29 -82 -117 -119q-141 -59 -232 37.5t-91 323.5zM594 1673q45 94 135 149.5t203 2.5q2 -2 6 -4q6 -2 6 -4q92 -45 173 -37 t112 71q14 31 37 2q33 -39 10 -84q-39 -82 -144.5 -114.5t-224.5 16.5l-10 6q-211 98 -270 -26q-10 -25 -27.5 -14t-5.5 36z" />
<glyph unicode="&#xd2;" horiz-adv-x="1067" d="M0 1048.5q0 186.5 148.5 313.5t386.5 127q500 0 501 -715v-51q-2 -166 -38.5 -296t-91 -208t-126 -129t-138.5 -70.5t-132 -19.5q-176 0 -292 166t-118 532v54q0 18 2 28q-102 82 -102 268.5zM63 1073q0 -127 48 -196q23 164 88 279.5t149 160.5q57 33 112.5 40t61.5 -28 q0 -12 -14 -18t-40 -11.5t-40 -11.5q-74 -35 -106.5 -151.5t-36.5 -323.5q61 16 115.5 65.5t78.5 118.5q29 72 86 60q49 -8 60 -64q8 -45 -25 -96q-45 -72 -133 -120t-182 -52v-14q0 -651 258 -652q135 0 221 150.5t88 503.5v39q0 350 -82 514t-268.5 164t-312.5 -99.5 t-126 -257.5zM296 1895q-9 40 32 59q59 23 88 -12q8 -8 48 -56.5t54 -65t51 -56.5t60.5 -61.5t57.5 -50t67 -50.5q31 -18 14 -35q-20 -18 -72 10q-209 113 -346 235q-45 43 -54 83z" />
<glyph unicode="&#xd3;" horiz-adv-x="1067" d="M0 1048.5q0 186.5 148.5 313.5t386.5 127q500 0 501 -715v-51q-2 -166 -38.5 -296t-91 -208t-126 -129t-138.5 -70.5t-132 -19.5q-176 0 -292 166t-118 532v54q0 18 2 28q-102 82 -102 268.5zM63 1073q0 -127 48 -196q23 164 88 279.5t149 160.5q57 33 112.5 40t61.5 -28 q0 -12 -14 -18t-40 -11.5t-40 -11.5q-74 -35 -106.5 -151.5t-36.5 -323.5q61 16 115.5 65.5t78.5 118.5q29 72 86 60q49 -8 60 -64q8 -45 -25 -96q-45 -72 -133 -120t-182 -52v-14q0 -651 258 -652q135 0 221 150.5t88 503.5v39q0 350 -82 514t-268.5 164t-312.5 -99.5 t-126 -257.5zM313 1569q-12 14 15 33q45 35 92 85t72.5 82.5t77 102.5t65.5 88q27 37 88 20q41 -16 35 -57t-49 -86q-141 -147 -322 -256q-58 -37 -74 -12z" />
<glyph unicode="&#xd4;" horiz-adv-x="1067" d="M0 1048.5q0 186.5 148.5 313.5t386.5 127q500 0 501 -715v-51q-2 -166 -38.5 -296t-91 -208t-126 -129t-138.5 -70.5t-132 -19.5q-176 0 -292 166t-118 532v54q0 18 2 28q-102 82 -102 268.5zM63 1073q0 -127 48 -196q23 164 88 279.5t149 160.5q57 33 112.5 40t61.5 -28 q0 -12 -14 -18t-40 -11.5t-40 -11.5q-74 -35 -106.5 -151.5t-36.5 -323.5q61 16 115.5 65.5t78.5 118.5q29 72 86 60q49 -8 60 -64q8 -45 -25 -96q-45 -72 -133 -120t-182 -52v-14q0 -651 258 -652q135 0 221 150.5t88 503.5v39q0 350 -82 514t-268.5 164t-312.5 -99.5 t-126 -257.5zM156 1567q-14 14 12 35q160 121 332 348q37 45 73.5 43t55.5 -43q115 -231 268 -348q31 -25 12 -37q-23 -14 -71 16q-119 74 -281 240q-92 -92 -328 -240q-53 -34 -73 -14z" />
<glyph unicode="&#xd5;" horiz-adv-x="1067" d="M0 1048.5q0 186.5 148.5 313.5t386.5 127q500 0 501 -715v-51q-2 -166 -38.5 -296t-91 -208t-126 -129t-138.5 -70.5t-132 -19.5q-176 0 -292 166t-118 532v54q0 18 2 28q-102 82 -102 268.5zM63 1073q0 -127 48 -196q23 164 88 279.5t149 160.5q57 33 112.5 40t61.5 -28 q0 -12 -14 -18t-40 -11.5t-40 -11.5q-74 -35 -106.5 -151.5t-36.5 -323.5q61 16 115.5 65.5t78.5 118.5q29 72 86 60q49 -8 60 -64q8 -45 -25 -96q-45 -72 -133 -120t-182 -52v-14q0 -651 258 -652q135 0 221 150.5t88 503.5v39q0 350 -82 514t-268.5 164t-312.5 -99.5 t-126 -257.5zM186 1673q45 94 135.5 149.5t202.5 2.5q2 -2 6 -4q6 -2 7 -4q92 -45 173 -37t111 71q14 31 37 2q33 -39 10 -84q-39 -82 -144.5 -114.5t-223.5 16.5l-11 6q-211 98 -270 -26q-10 -25 -27.5 -14t-5.5 36z" />
<glyph unicode="&#xd6;" horiz-adv-x="1067" d="M0 1048.5q0 186.5 148.5 313.5t386.5 127q500 0 501 -715v-51q-2 -166 -38.5 -296t-91 -208t-126 -129t-138.5 -70.5t-132 -19.5q-176 0 -292 166t-118 532v54q0 18 2 28q-102 82 -102 268.5zM63 1073q0 -127 48 -196q23 164 88 279.5t149 160.5q57 33 112.5 40t61.5 -28 q0 -12 -14 -18t-40 -11.5t-40 -11.5q-74 -35 -106.5 -151.5t-36.5 -323.5q61 16 115.5 65.5t78.5 118.5q29 72 86 60q49 -8 60 -64q8 -45 -25 -96q-45 -72 -133 -120t-182 -52v-14q0 -651 258 -652q135 0 221 150.5t88 503.5v39q0 350 -82 514t-268.5 164t-312.5 -99.5 t-126 -257.5zM221 1735q-6 61 36 93t101 27q57 -2 80 -35.5t13 -80.5q-14 -63 -49 -94t-83 -25q-41 6 -66.5 41t-31.5 74zM614 1739q-6 66 27 90t102 20q59 -2 84 -32.5t15 -77.5q-12 -63 -47 -94t-82 -25q-43 6 -68 41t-31 78z" />
<glyph unicode="&#xd7;" horiz-adv-x="958" d="M102 287q0 6 4 14q2 2 3 6l14 23l6 8l23 24l149 152q10 6 16 16l33 33l43 43l8 10l-43 50q-88 104 -129 155l-41 49l-38 52l-5 6q-12 16 -22 37q-4 10 -2 10l2 2q2 4 4 6h2l2 2q27 10 86 -45q4 -6 31 -33l53 -51l43 -43l68 -65l34 -33q2 -2 7.5 -8.5t10.5 -10.5t9 -8 l39 41l135 135l25 25q37 37 67 61q6 6 19 15l16 10l6 4q2 0 5 1t6 3h4q12 4 22 0q2 0 4 -2q8 -2 15 -16q4 -4 8 -17q4 -16 4 -24q0 -2 1 -4t1 -5q0 -10 4 -26q2 -27 -6 -47q-2 0 -2 -2q0 -4 -4 -9l-11 -14l-6 -6l-6 -8l-8 -8l-23 -23l-28 -29l-12 -10l-60 -49 q-20 -16 -31 -27l-49 -36q-33 -27 -35 -29l25 -25l45 -45l37 -35l39 -38q23 -23 29 -27l26 -27l23 -24l10 -11q51 -61 24 -84q-14 -10 -30 -12q-4 -2 -15 -2h-4l-4 -2h-6q-4 -2 -14 -2h-4q-14 0 -31 10q-2 0 -2 1t-2 1q-16 12 -29 25l-8 8l-6 8l-8 6l-80 86l-51 60l-52 59 q-8 -6 -71.5 -54t-94.5 -71q-186 -141 -202 -131q-4 0 -8 4v2l-5 4v3q-2 2 -2 8z" />
<glyph unicode="&#xd8;" horiz-adv-x="1067" d="M0 1048.5q0 186.5 148.5 313.5t386.5 127q84 0 147 -21q37 143 78 204t100 7q23 -23 27 -59.5t-1 -66t-22 -91.5l-22 -78q193 -168 194 -610v-51q-2 -166 -38.5 -296t-91 -208t-126 -129t-138.5 -70.5t-132 -19.5q-76 0 -143 31q-78 -205 -91 -207q-27 -8 -30.5 22.5 t8.5 79.5q2 10 41 150q-193 168 -195 622v54q0 18 2 28q-102 82 -102 268.5zM63 1073q0 -127 48 -196q23 164 88 279.5t149 160.5q57 33 112.5 40t61.5 -28q0 -12 -14 -18t-40 -11.5t-40 -11.5q-74 -35 -106.5 -151.5t-36.5 -323.5q66 16 121 61.5t79 112.5q27 68 82 60 l95 342q-70 41 -160 41q-186 0 -312.5 -99.5t-126.5 -257.5zM285 711q0 -315 57 -473l152 546q-98 -55 -209 -59v-14zM401 125q57 -66 142 -66q135 0 221 150.5t88 503.5v39q0 307 -64 471q-203 -609 -387 -1098z" />
<glyph unicode="&#xd9;" horiz-adv-x="1593" d="M72 1073q0 182 110.5 291t253.5 109q174 0 280.5 -142.5t106.5 -423.5q0 -18 1 -155.5t1 -239.5q0 -307 4 -344q12 -88 68 -100q14 -2 31 -2q41 0 82 26.5t83 90t71.5 193.5t37.5 312v580q0 82 3 120.5t14.5 79.5t36 30t67.5 -32q43 -33 53 -57.5t10 -101.5 q0 -23 -1 -320t-1 -481q0 -264 27 -352t115 -88q160 0 211 360q10 68 37 70q27 0 22 -62q0 -10 -2 -22q-68 -412 -289 -412q-115 0 -191.5 70.5t-101.5 255.5q-49 -178 -132 -252t-171 -74t-143 39t-90 154.5t-35 318.5q0 45 -1 168t-1 240q0 203 -25.5 307t-73.5 138 t-139 34q-94 0 -176 -95.5t-82 -236.5q0 -174 74 -251t174 -34q84 35 96 119q10 66 -34 82q-27 10 -64 -10q-70 -39 -106 10q-33 47 8 98q25 31 71 45q80 25 139.5 -55t42 -188.5t-123.5 -151.5q-143 -59 -245.5 30t-102.5 312zM763 1895q-9 40 32 59q59 23 88 -12 q8 -8 48 -56.5t54 -65t51 -56.5t60.5 -61.5t57.5 -50t67 -50.5q31 -18 14 -35q-20 -18 -72 10q-209 113 -346 235q-45 43 -54 83z" />
<glyph unicode="&#xda;" horiz-adv-x="1593" d="M72 1073q0 182 110.5 291t253.5 109q174 0 280.5 -142.5t106.5 -423.5q0 -18 1 -155.5t1 -239.5q0 -307 4 -344q12 -88 68 -100q14 -2 31 -2q41 0 82 26.5t83 90t71.5 193.5t37.5 312v580q0 82 3 120.5t14.5 79.5t36 30t67.5 -32q43 -33 53 -57.5t10 -101.5 q0 -23 -1 -320t-1 -481q0 -264 27 -352t115 -88q160 0 211 360q10 68 37 70q27 0 22 -62q0 -10 -2 -22q-68 -412 -289 -412q-115 0 -191.5 70.5t-101.5 255.5q-49 -178 -132 -252t-171 -74t-143 39t-90 154.5t-35 318.5q0 45 -1 168t-1 240q0 203 -25.5 307t-73.5 138 t-139 34q-94 0 -176 -95.5t-82 -236.5q0 -174 74 -251t174 -34q84 35 96 119q10 66 -34 82q-27 10 -64 -10q-70 -39 -106 10q-33 47 8 98q25 31 71 45q80 25 139.5 -55t42 -188.5t-123.5 -151.5q-143 -59 -245.5 30t-102.5 312zM739 1569q-12 14 15 33q45 35 92 85 t72.5 82.5t77 102.5t65.5 88q27 37 88 20q41 -16 35 -57t-49 -86q-141 -147 -322 -256q-58 -37 -74 -12z" />
<glyph unicode="&#xdb;" horiz-adv-x="1593" d="M72 1073q0 182 110.5 291t253.5 109q174 0 280.5 -142.5t106.5 -423.5q0 -18 1 -155.5t1 -239.5q0 -307 4 -344q12 -88 68 -100q14 -2 31 -2q41 0 82 26.5t83 90t71.5 193.5t37.5 312v580q0 82 3 120.5t14.5 79.5t36 30t67.5 -32q43 -33 53 -57.5t10 -101.5 q0 -23 -1 -320t-1 -481q0 -264 27 -352t115 -88q160 0 211 360q10 68 37 70q27 0 22 -62q0 -10 -2 -22q-68 -412 -289 -412q-115 0 -191.5 70.5t-101.5 255.5q-49 -178 -132 -252t-171 -74t-143 39t-90 154.5t-35 318.5q0 45 -1 168t-1 240q0 203 -25.5 307t-73.5 138 t-139 34q-94 0 -176 -95.5t-82 -236.5q0 -174 74 -251t174 -34q84 35 96 119q10 66 -34 82q-27 10 -64 -10q-70 -39 -106 10q-33 47 8 98q25 31 71 45q80 25 139.5 -55t42 -188.5t-123.5 -151.5q-143 -59 -245.5 30t-102.5 312zM602 1567q-14 14 12 35q160 121 332 348 q37 45 74 43t55 -43q115 -231 268 -348q31 -25 13 -37q-23 -14 -72 16q-119 74 -280 240q-92 -92 -328 -240q-54 -34 -74 -14z" />
<glyph unicode="&#xdc;" horiz-adv-x="1593" d="M72 1073q0 182 110.5 291t253.5 109q174 0 280.5 -142.5t106.5 -423.5q0 -18 1 -155.5t1 -239.5q0 -307 4 -344q12 -88 68 -100q14 -2 31 -2q41 0 82 26.5t83 90t71.5 193.5t37.5 312v580q0 82 3 120.5t14.5 79.5t36 30t67.5 -32q43 -33 53 -57.5t10 -101.5 q0 -23 -1 -320t-1 -481q0 -264 27 -352t115 -88q160 0 211 360q10 68 37 70q27 0 22 -62q0 -10 -2 -22q-68 -412 -289 -412q-115 0 -191.5 70.5t-101.5 255.5q-49 -178 -132 -252t-171 -74t-143 39t-90 154.5t-35 318.5q0 45 -1 168t-1 240q0 203 -25.5 307t-73.5 138 t-139 34q-94 0 -176 -95.5t-82 -236.5q0 -174 74 -251t174 -34q84 35 96 119q10 66 -34 82q-27 10 -64 -10q-70 -39 -106 10q-33 47 8 98q25 31 71 45q80 25 139.5 -55t42 -188.5t-123.5 -151.5q-143 -59 -245.5 30t-102.5 312zM668 1735q-6 61 35.5 93t101.5 27 q57 -2 79.5 -35.5t12.5 -80.5q-14 -63 -49 -94t-82 -25q-41 6 -66.5 41t-31.5 74zM1061 1739q-6 66 26.5 90t102.5 20q59 -2 83.5 -32.5t14.5 -77.5q-12 -63 -47 -94t-82 -25q-43 6 -67.5 41t-30.5 78z" />
<glyph unicode="&#xdd;" horiz-adv-x="1417" d="M72 1010q0 182 110.5 290.5t253.5 108.5q174 0 279.5 -141.5t105.5 -421.5q0 -18 1 -125t1 -209v-74q0 -131 1 -183t12.5 -107.5t33 -70t64.5 -14.5q41 0 80 27t80 89.5t69.5 189.5t36.5 305q2 248 2 567q0 80 10.5 104.5t53.5 57.5q43 20 67.5 30.5t35.5 -29.5t14 -80 t3 -120l-4 -960q-2 -223 -50 -385t-131 -250t-178 -127t-210 -39q-145 0 -223 107.5t-59.5 230.5t112.5 168q88 41 135 -10q39 -43 6 -86q-18 -25 -57 -35q-96 -23 -113 -109q-18 -90 62 -155q66 -53 170 -54q168 0 260 169t94 562v50q-51 -152 -128 -216.5t-157 -64.5 q-88 0 -144 38t-93 154.5t-37 319.5q0 45 -1 136t-1 210q0 203 -25.5 307.5t-73.5 137t-139 34.5q-94 0 -176 -95t-82 -236q0 -174 74 -251t174 -36q84 37 96 119q10 66 -34 82q-27 10 -64 -11q-70 -39 -106 13q-33 45 8 96q25 31 71 45q80 25 139.5 -54t42 -187.5 t-123.5 -151.5q-143 -59 -245.5 29t-102.5 311zM733 1569q-12 14 15 33q45 35 92 85t72.5 82.5t76.5 102.5t66 88q27 37 88 20q41 -16 34.5 -57t-49.5 -86q-141 -147 -321 -256q-58 -37 -74 -12z" />
<glyph unicode="&#xde;" horiz-adv-x="931" d="M102 -193v1412q0 80 3.5 119.5t14.5 79.5t35.5 30t67.5 -31q45 -35 55.5 -59.5t8.5 -102.5q-8 -250 -25 -526q88 289 287 289q121 0 200.5 -120t79.5 -380q0 -145 -46 -253.5t-118.5 -162t-144 -78t-143.5 -24.5q-109 0 -162 47q-33 -367 -51 -375q-33 -10 -47.5 27.5 t-14.5 107.5zM266 281q8 -127 38 -174.5t106 -47.5q104 0 169.5 110t65.5 349q0 244 -20.5 340t-94.5 96q-35 0 -66.5 -15t-67.5 -59t-62.5 -116t-45 -196.5t-22.5 -286.5z" />
<glyph unicode="&#xdf;" horiz-adv-x="1083" d="M-411.5 -363.5q-12.5 70.5 18.5 142t100 104.5q88 41 135 -10q39 -43 6 -86q-18 -25 -57 -35q-106 -25 -123 -96q-16 -70 66 -113q55 -27 137 -26q90 0 143.5 68.5t79 228t27.5 434.5v741q0 518 418 518q133 0 245.5 -85t112.5 -240q0 -217 -260 -353q68 -6 134.5 -28.5 t130 -63.5t102 -109.5t38.5 -154.5q0 -203 -114.5 -338t-296.5 -135q-102 0 -175 89t-73 226q0 57 36 103.5t105 46.5q51 0 78 -36t17.5 -76t-44.5 -50q-92 -27 -92 -88q0 -139 150 -139q82 0 128 50t60.5 124t14.5 188q0 174 -112 269.5t-218 60.5q-53 -16 -57 6 q-4 20 51 45q2 0 2 2q123 86 166 165t43 183q0 133 -55.5 205t-139.5 72q-70 0 -114 -37t-64.5 -111.5t-26.5 -151.5t-6 -196v-692q-8 -799 -467 -799q-104 0 -170.5 53.5t-79 124z" />
<glyph unicode="&#xe0;" d="M72 489v17q2 143 45 248.5t111.5 160t137 79t138.5 24.5q90 0 141 -47q6 33 57 71q43 20 68 30.5t36 -29t14 -79.5t3 -120v-338q0 -266 25.5 -353t116.5 -87q158 0 209 360q10 66 36 70q25 2 25 -47q2 -16 -2 -37q-70 -412 -289 -412q-229 0 -285 270q-86 -270 -270 -270 q-74 0 -126 19.5t-98 69.5t-69.5 150t-23.5 250zM254 502q2 -260 33.5 -351.5t132.5 -91.5q94 0 155.5 170t61.5 422v2q0 307 -164 308q-217 0 -219 -443v-16zM277.5 1486q-9.5 40 31.5 58q59 23 88 -12q8 -8 48 -56.5t54.5 -64.5t51.5 -56t60.5 -61.5t57 -50.5t66.5 -51 q31 -18 15 -35q-20 -18 -72 10q-209 113 -346 236q-45 43 -54.5 83z" />
<glyph unicode="&#xe1;" d="M72 489v17q2 143 45 248.5t111.5 160t137 79t138.5 24.5q90 0 141 -47q6 33 57 71q43 20 68 30.5t36 -29t14 -79.5t3 -120v-338q0 -266 25.5 -353t116.5 -87q158 0 209 360q10 66 36 70q25 2 25 -47q2 -16 -2 -37q-70 -412 -289 -412q-229 0 -285 270q-86 -270 -270 -270 q-74 0 -126 19.5t-98 69.5t-69.5 150t-23.5 250zM254 502q2 -260 33.5 -351.5t132.5 -91.5q94 0 155.5 170t61.5 422v2q0 307 -164 308q-217 0 -219 -443v-16zM295 1159q-12 14 14 33q45 35 92.5 85t73 83t76.5 102.5t65 87.5q27 37 89 21q41 -16 34.5 -57t-49.5 -87 q-141 -147 -321 -256q-58 -37 -74 -12z" />
<glyph unicode="&#xe2;" d="M72 489v17q2 143 45 248.5t111.5 160t137 79t138.5 24.5q90 0 141 -47q6 33 57 71q43 20 68 30.5t36 -29t14 -79.5t3 -120v-338q0 -266 25.5 -353t116.5 -87q158 0 209 360q10 66 36 70q25 2 25 -47q2 -16 -2 -37q-70 -412 -289 -412q-229 0 -285 270q-86 -270 -270 -270 q-74 0 -126 19.5t-98 69.5t-69.5 150t-23.5 250zM137 1157q-14 14 13 35q160 121 331 348q37 45 74 43t55 -43q115 -231 269 -348q31 -25 12 -37q-23 -14 -72 16q-119 74 -280 240q-92 -92 -328 -240q-54 -34 -74 -14zM254 502q2 -260 33.5 -351.5t132.5 -91.5 q94 0 155.5 170t61.5 422v2q0 307 -164 308q-217 0 -219 -443v-16z" />
<glyph unicode="&#xe3;" d="M72 489v17q2 143 45 248.5t111.5 160t137 79t138.5 24.5q90 0 141 -47q6 33 57 71q43 20 68 30.5t36 -29t14 -79.5t3 -120v-338q0 -266 25.5 -353t116.5 -87q158 0 209 360q10 66 36 70q25 2 25 -47q2 -16 -2 -37q-70 -412 -289 -412q-229 0 -285 270q-86 -270 -270 -270 q-74 0 -126 19.5t-98 69.5t-69.5 150t-23.5 250zM170 1264q45 94 135 149t203 2q2 -2 6 -4q6 -2 6 -4q92 -45 173 -37t112 72q14 31 37 2q33 -39 10 -84q-39 -82 -144.5 -115t-224.5 17l-10 6q-211 98 -270 -27q-10 -25 -27.5 -13.5t-5.5 36.5zM254 502q2 -260 33.5 -351.5 t132.5 -91.5q94 0 155.5 170t61.5 422v2q0 307 -164 308q-217 0 -219 -443v-16z" />
<glyph unicode="&#xe4;" d="M72 489v17q2 143 45 248.5t111.5 160t137 79t138.5 24.5q90 0 141 -47q6 33 57 71q43 20 68 30.5t36 -29t14 -79.5t3 -120v-338q0 -266 25.5 -353t116.5 -87q158 0 209 360q10 66 36 70q25 2 25 -47q2 -16 -2 -37q-70 -412 -289 -412q-229 0 -285 270q-86 -270 -270 -270 q-74 0 -126 19.5t-98 69.5t-69.5 150t-23.5 250zM205 1325q-6 61 36 93t101 28q57 -2 79.5 -36t12.5 -81q-14 -63 -49 -94t-82 -25q-41 6 -66.5 41t-31.5 74zM254 502q2 -260 33.5 -351.5t132.5 -91.5q94 0 155.5 170t61.5 422v2q0 307 -164 308q-217 0 -219 -443v-16z M598 1329q-6 66 26.5 90.5t102.5 20.5q59 -2 84 -33t14 -78q-12 -63 -47 -94t-82 -25q-43 6 -67.5 41t-30.5 78z" />
<glyph unicode="&#xe5;" d="M72 489v17q2 143 45 248.5t111.5 160t137 79t138.5 24.5q90 0 141 -47q6 33 57 71q43 20 68 30.5t36 -29t14 -79.5t3 -120v-338q0 -266 25.5 -353t116.5 -87q158 0 209 360q10 66 36 70q25 2 25 -47q2 -16 -2 -37q-70 -412 -289 -412q-229 0 -285 270q-86 -270 -270 -270 q-74 0 -126 19.5t-98 69.5t-69.5 150t-23.5 250zM254 502q2 -260 33.5 -351.5t132.5 -91.5q94 0 155.5 170t61.5 422v2q0 307 -164 308q-217 0 -219 -443v-16zM293 1331q-12 102 41 143.5t164 32.5q92 -6 131 -54t24 -122q-20 -100 -76.5 -149t-130.5 -37q-68 10 -107.5 65 t-45.5 121zM375 1335q4 -35 26.5 -65.5t57.5 -36.5q86 -14 112 102q8 39 -13 65.5t-73 29.5q-59 4 -87.5 -18t-22.5 -77z" />
<glyph unicode="&#xe6;" horiz-adv-x="1329" d="M72 489v17q2 143 46 248.5t112.5 160t137 79t138.5 24.5q90 0 141 -47q6 33 58 71q66 43 89 22.5t27 -101.5q92 55 234 55q131 0 190 -86q84 -119 -71 -299q-113 -131 -343 -271q14 -156 66.5 -226t157.5 -70q49 0 105.5 15t122 52t115.5 113t64 180q10 68 37 70 q29 0 23 -62q0 -10 -2 -22q-20 -119 -78 -206t-134.5 -129t-144 -59.5t-129.5 -17.5q-287 0 -362 279q-4 4 -4 10q-88 -289 -279 -289q-72 0 -124 19.5t-98 69.5t-69.5 150t-25.5 250zM256 502q0 -258 33 -350.5t133 -92.5q94 0 154.5 169t62.5 423v2q0 307 -166 308 q-215 0 -217 -443v-16zM827 506q0 -61 2 -90q240 152 283 344q29 121 -33 178q-25 23 -57 23q-106 0 -150.5 -107.5t-44.5 -347.5z" />
<glyph unicode="&#xe7;" horiz-adv-x="681" d="M26.5 -365.5q24.5 74.5 108.5 113.5q84 41 131 -16q39 -45 8 -90q-16 -27 -55 -35q-78 -18 -109.5 -74.5t13.5 -106t166 -49.5q100 0 186 60.5t102.5 146.5t-71.5 178q-53 47 -114.5 63.5t-97.5 16.5t-40 15q-6 25 18.5 78t46.5 85q-268 86 -268 486q0 252 97.5 382 t314.5 130q123 0 164 -80t4 -172t-115 -129q-90 -43 -135 10q-35 41 0 82q20 23 57 31q66 16 103 65t10 92.5t-121 43.5q-106 0 -150 -108t-44 -347q0 -440 245 -440q43 0 88 15t96.5 52t90.5 113t53 180q10 66 37 70q25 2 24 -47q2 -16 -2 -37q-20 -121 -69 -207 t-111.5 -128t-118 -59.5t-106.5 -17.5q-41 0 -62 2l-2 -2l-49 -109q127 0 213 -73q80 -70 92.5 -159t-31.5 -164t-139.5 -126t-214.5 -51q-82 0 -149.5 52t-93 121t-1 143.5z" />
<glyph unicode="&#xe8;" horiz-adv-x="768" d="M82 506q0 252 98.5 382t313.5 130q131 0 190 -86q84 -119 -72 -299q-113 -131 -342 -271q14 -158 65.5 -227t158.5 -69q49 0 105 15t121.5 52t116 113t64.5 180q10 68 37 70q29 0 23 -62q0 -10 -3 -22q-20 -119 -78.5 -206t-134 -129t-143 -59.5t-129.5 -17.5 q-176 0 -283.5 118t-107.5 388zM146.5 1486q-9.5 40 31.5 58q59 23 88 -12q8 -8 48 -56.5t54.5 -64.5t51.5 -56t60.5 -61.5t57 -50.5t66.5 -51q31 -18 14 -35q-20 -18 -71 10q-209 113 -346 236q-45 43 -54.5 83zM266 506q0 -61 2 -90q240 152 283 344q29 121 -33 178 q-25 23 -57 23q-106 0 -150.5 -107.5t-44.5 -347.5z" />
<glyph unicode="&#xe9;" horiz-adv-x="768" d="M82 506q0 252 98.5 382t313.5 130q131 0 190 -86q84 -119 -72 -299q-113 -131 -342 -271q14 -158 65.5 -227t158.5 -69q49 0 105 15t121.5 52t116 113t64.5 180q10 68 37 70q29 0 23 -62q0 -10 -3 -22q-20 -119 -78.5 -206t-134 -129t-143 -59.5t-129.5 -17.5 q-176 0 -283.5 118t-107.5 388zM205 1159q-12 14 14 33q45 35 92 85t73 83t77 102.5t65 87.5q27 37 88 21q41 -16 35 -57t-49 -87q-141 -147 -321 -256q-58 -37 -74 -12zM266 506q0 -61 2 -90q240 152 283 344q29 121 -33 178q-25 23 -57 23q-106 0 -150.5 -107.5 t-44.5 -347.5z" />
<glyph unicode="&#xea;" horiz-adv-x="768" d="M47 1157q-14 14 12 35q160 121 332 348q37 45 74 43t55 -43q115 -231 268 -348q31 -25 13 -37q-23 -14 -72 16q-119 74 -280 240q-92 -92 -328 -240q-54 -34 -74 -14zM82 506q0 252 98.5 382t313.5 130q131 0 190 -86q84 -119 -72 -299q-113 -131 -342 -271 q14 -158 65.5 -227t158.5 -69q49 0 105 15t121.5 52t116 113t64.5 180q10 68 37 70q29 0 23 -62q0 -10 -3 -22q-20 -119 -78.5 -206t-134 -129t-143 -59.5t-129.5 -17.5q-176 0 -283.5 118t-107.5 388zM266 506q0 -61 2 -90q240 152 283 344q29 121 -33 178q-25 23 -57 23 q-106 0 -150.5 -107.5t-44.5 -347.5z" />
<glyph unicode="&#xeb;" horiz-adv-x="768" d="M82 506q0 252 98.5 382t313.5 130q131 0 190 -86q84 -119 -72 -299q-113 -131 -342 -271q14 -158 65.5 -227t158.5 -69q49 0 105 15t121.5 52t116 113t64.5 180q10 68 37 70q29 0 23 -62q0 -10 -3 -22q-20 -119 -78.5 -206t-134 -129t-143 -59.5t-129.5 -17.5 q-176 0 -283.5 118t-107.5 388zM113 1325q-6 61 35.5 93t101.5 28q57 -2 79.5 -36t12.5 -81q-14 -63 -49 -94t-82 -25q-41 6 -66.5 41t-31.5 74zM266 506q0 -61 2 -90q240 152 283 344q29 121 -33 178q-25 23 -57 23q-106 0 -150.5 -107.5t-44.5 -347.5zM506 1329 q-6 66 26.5 90.5t102.5 20.5q59 -2 83.5 -33t14.5 -78q-12 -63 -47 -94t-82 -25q-43 6 -67.5 41t-30.5 78z" />
<glyph unicode="&#xec;" horiz-adv-x="473" d="M-1 1486q-9 40 32 58q59 23 88 -12q8 -8 48 -56.5t54.5 -64.5t51 -56t60 -61.5t57.5 -50.5t67 -51q31 -18 14 -35q-20 -18 -72 10q-209 113 -346 236q-45 43 -54 83zM82 506v242q0 80 10 104.5t53 54.5q43 18 67 30.5t36 -28.5t14 -79.5t2 -120.5v-203q0 -264 26.5 -352 t115.5 -88q160 0 210 360q10 68 37 70q27 0 23 -62q0 -10 -2 -22q-68 -412 -289 -412q-141 0 -222 108.5t-81 397.5z" />
<glyph unicode="&#xed;" horiz-adv-x="473" d="M16 1159q-12 14 15 33q45 35 92 85t72.5 83t77 102.5t65.5 87.5q27 37 88 21q41 -16 35 -57t-49 -87q-141 -147 -322 -256q-58 -37 -74 -12zM82 506v242q0 80 10 104.5t53 54.5q43 18 67 30.5t36 -28.5t14 -79.5t2 -120.5v-203q0 -264 26.5 -352t115.5 -88q160 0 210 360 q10 68 37 70q27 0 23 -62q0 -10 -2 -22q-68 -412 -289 -412q-141 0 -222 108.5t-81 397.5z" />
<glyph unicode="&#xee;" horiz-adv-x="473" d="M-182 1157q-14 14 12 35q160 121 332 348q37 45 73.5 43t55.5 -43q115 -231 268 -348q31 -25 12 -37q-23 -14 -71 16q-119 74 -281 240q-92 -92 -328 -240q-53 -34 -73 -14zM82 506v242q0 80 10 104.5t53 54.5q43 18 67 30.5t36 -28.5t14 -79.5t2 -120.5v-203 q0 -264 26.5 -352t115.5 -88q160 0 210 360q10 68 37 70q27 0 23 -62q0 -10 -2 -22q-68 -412 -289 -412q-141 0 -222 108.5t-81 397.5z" />
<glyph unicode="&#xef;" horiz-adv-x="473" d="M-96 1325q-6 61 36 93t101 28q57 -2 79.5 -36t12.5 -81q-14 -63 -49 -94t-82 -25q-41 6 -66.5 41t-31.5 74zM82 506v242q0 80 10 104.5t53 54.5q43 18 67 30.5t36 -28.5t14 -79.5t2 -120.5v-203q0 -264 26.5 -352t115.5 -88q160 0 210 360q10 68 37 70q27 0 23 -62 q0 -10 -2 -22q-68 -412 -289 -412q-141 0 -222 108.5t-81 397.5zM297 1329q-6 66 26.5 90.5t102.5 20.5q59 -2 84 -33t14 -78q-12 -63 -47 -94t-82 -25q-43 6 -67.5 41t-30.5 78z" />
<glyph unicode="&#xf0;" horiz-adv-x="985" d="M76 510q0 137 58.5 228t143 122t179 18.5t166.5 -65.5q57 -45 36 -61q-12 -12 -53 10q-166 90 -254 16.5t-88 -301.5q0 -162 57.5 -281.5t167.5 -119.5q121 0 168.5 139t47.5 424q0 350 -78 522q-221 -143 -236 -133q-33 20 37 82l154 131q-55 74 -131 105 q-51 23 -57.5 46t23 28t64.5 -9q113 -61 172 -108l86 77q39 33 58.5 47.5t41 23.5t32 -4t12.5 -46q2 -31 -6.5 -44.5t-45.5 -45.5q-27 -25 -104 -78q184 -205 184 -629q0 -299 -111.5 -451.5t-291.5 -152.5q-184 0 -308 138.5t-124 371.5z" />
<glyph unicode="&#xf1;" horiz-adv-x="1050" d="M84 53.5q0 16.5 2 32.5t3 45t1 57v695q0 78 10.5 102.5t53.5 56.5q43 20 67.5 31.5t35.5 -29t14 -79.5t3 -121v-127q51 166 132 233.5t167 67.5q88 0 143.5 -37t90.5 -151.5t35 -317.5v-6q0 -266 25.5 -353t115.5 -87q160 0 209 360q10 66 37 70q25 2 24 -47 q2 -16 -2 -37q-70 -412 -288 -412q-141 0 -223.5 108.5t-82.5 397.5v6q0 307 -4 342q-12 86 -67 98q-12 2 -31 2q-45 0 -88 -29.5t-88 -103t-72.5 -230.5t-27.5 -378q0 -8 -3 -10q0 -14 3 -31v-16q2 -102 -37 -132t-115 -22q-14 0 -22.5 3t-13.5 9t-6 14.5t-1 25zM178 1264 q45 94 135 149t203 2q2 -2 6 -4q6 -2 6 -4q92 -45 173 -37t112 72q14 31 37 2q33 -39 10 -84q-39 -82 -144.5 -115t-223.5 17l-11 6q-211 98 -270 -27q-10 -25 -27.5 -13.5t-5.5 36.5z" />
<glyph unicode="&#xf2;" horiz-adv-x="931" d="M72 489v17q2 135 41 236.5t101 157.5t127 84t134 34q35 2 37 -25q-6 -29 -39 -32q-215 0 -217 -443v-16q0 -258 33 -350.5t133 -92.5q215 0 217 443h-21q-131 0 -195.5 57t-64.5 153.5t51.5 154t149.5 57.5h8q35 0 56.5 -2t60.5 -19.5t63.5 -50.5t46 -100.5t27.5 -163.5 q123 45 256 147q33 25 53 4q16 -18 -14 -43q-139 -111 -293 -161v-21q-2 -143 -46 -249.5t-112.5 -161t-137 -79t-138.5 -24.5q-72 0 -124 19.5t-98 69.5t-70.5 150t-24.5 250zM228.5 1486q-9.5 40 31.5 58q59 23 88 -12q8 -8 48 -56.5t54.5 -64.5t51.5 -56t60.5 -61.5 t57 -50.5t66.5 -51q31 -18 14 -35q-20 -18 -71 10q-209 113 -346 236q-45 43 -54.5 83zM420 721q0 -74 57.5 -120t159.5 -46h2q-2 133 -16.5 203.5t-32 88t-47.5 19.5q-123 0 -123 -145z" />
<glyph unicode="&#xf3;" horiz-adv-x="931" d="M72 489v17q2 135 41 236.5t101 157.5t127 84t134 34q35 2 37 -25q-6 -29 -39 -32q-215 0 -217 -443v-16q0 -258 33 -350.5t133 -92.5q215 0 217 443h-21q-131 0 -195.5 57t-64.5 153.5t51.5 154t149.5 57.5h8q35 0 56.5 -2t60.5 -19.5t63.5 -50.5t46 -100.5t27.5 -163.5 q123 45 256 147q33 25 53 4q16 -18 -14 -43q-139 -111 -293 -161v-21q-2 -143 -46 -249.5t-112.5 -161t-137 -79t-138.5 -24.5q-72 0 -124 19.5t-98 69.5t-70.5 150t-24.5 250zM246 1159q-12 14 14 33q45 35 92 85t73 83t77 102.5t65 87.5q27 37 88 21q41 -16 35 -57 t-49 -87q-141 -147 -322 -256q-57 -37 -73 -12zM420 721q0 -74 57.5 -120t159.5 -46h2q-2 133 -16.5 203.5t-32 88t-47.5 19.5q-123 0 -123 -145z" />
<glyph unicode="&#xf4;" horiz-adv-x="931" d="M72 489v17q2 135 41 236.5t101 157.5t127 84t134 34q35 2 37 -25q-6 -29 -39 -32q-215 0 -217 -443v-16q0 -258 33 -350.5t133 -92.5q215 0 217 443h-21q-131 0 -195.5 57t-64.5 153.5t51.5 154t149.5 57.5h8q35 0 56.5 -2t60.5 -19.5t63.5 -50.5t46 -100.5t27.5 -163.5 q123 45 256 147q33 25 53 4q16 -18 -14 -43q-139 -111 -293 -161v-21q-2 -143 -46 -249.5t-112.5 -161t-137 -79t-138.5 -24.5q-72 0 -124 19.5t-98 69.5t-70.5 150t-24.5 250zM88 1157q-14 14 12 35q160 121 332 348q37 45 74 43t55 -43q115 -231 268 -348q31 -25 13 -37 q-23 -14 -72 16q-119 74 -281 240q-92 -92 -327 -240q-54 -34 -74 -14zM420 721q0 -74 57.5 -120t159.5 -46h2q-2 133 -16.5 203.5t-32 88t-47.5 19.5q-123 0 -123 -145z" />
<glyph unicode="&#xf5;" horiz-adv-x="931" d="M72 489v17q2 135 41 236.5t101 157.5t127 84t134 34q35 2 37 -25q-6 -29 -39 -32q-215 0 -217 -443v-16q0 -258 33 -350.5t133 -92.5q215 0 217 443h-21q-131 0 -195.5 57t-64.5 153.5t51.5 154t149.5 57.5h8q35 0 56.5 -2t60.5 -19.5t63.5 -50.5t46 -100.5t27.5 -163.5 q123 45 256 147q33 25 53 4q16 -18 -14 -43q-139 -111 -293 -161v-21q-2 -143 -46 -249.5t-112.5 -161t-137 -79t-138.5 -24.5q-72 0 -124 19.5t-98 69.5t-70.5 150t-24.5 250zM119 1264q45 94 135 149t203 2q2 -2 6 -4q6 -2 6 -4q92 -45 173 -37t112 72q14 31 37 2 q33 -39 10 -84q-39 -82 -144.5 -115t-224.5 17l-10 6q-211 98 -270 -27q-10 -25 -27.5 -13.5t-5.5 36.5zM420 721q0 -74 57.5 -120t159.5 -46h2q-2 133 -16.5 203.5t-32 88t-47.5 19.5q-123 0 -123 -145z" />
<glyph unicode="&#xf6;" horiz-adv-x="931" d="M72 489v17q2 135 41 236.5t101 157.5t127 84t134 34q35 2 37 -25q-6 -29 -39 -32q-215 0 -217 -443v-16q0 -258 33 -350.5t133 -92.5q215 0 217 443h-21q-131 0 -195.5 57t-64.5 153.5t51.5 154t149.5 57.5h8q35 0 56.5 -2t60.5 -19.5t63.5 -50.5t46 -100.5t27.5 -163.5 q123 45 256 147q33 25 53 4q16 -18 -14 -43q-139 -111 -293 -161v-21q-2 -143 -46 -249.5t-112.5 -161t-137 -79t-138.5 -24.5q-72 0 -124 19.5t-98 69.5t-70.5 150t-24.5 250zM154 1223q-6 61 35.5 93t101.5 27q57 -2 79.5 -35.5t12.5 -80.5q-14 -63 -49 -94t-82 -25 q-41 6 -66.5 41t-31.5 74zM420 721q0 -74 57.5 -120t159.5 -46h2q-2 133 -16.5 203.5t-32 88t-47.5 19.5q-123 0 -123 -145zM547 1227q-6 66 26.5 90t102.5 20q59 -2 83.5 -32.5t14.5 -77.5q-12 -63 -47 -94t-82 -25q-43 6 -67.5 41t-30.5 78z" />
<glyph unicode="&#xf7;" horiz-adv-x="1705" d="M436 406q-8 23 18.5 31.5t73.5 8.5q29 0 189 5.5t203 5.5q57 0 84.5 -2t56.5 -10.5t20.5 -26t-22.5 -47.5q-23 -31 -40.5 -37t-72.5 -6q-92 0 -298 29t-212 49zM678 115q0 41 30.5 67.5t75.5 26.5q106 0 107 -94q0 -45 -32 -83t-75 -38t-74.5 38t-31.5 83zM678 700 q0 41 30.5 68t75.5 27q106 0 107 -95q0 -45 -33 -82.5t-74 -37.5q-43 0 -74.5 37.5t-31.5 82.5z" />
<glyph unicode="&#xf8;" horiz-adv-x="931" d="M72 489v17q2 129 37.5 228.5t95 155.5t121 86t129.5 40q41 160 83 229.5t103 11.5q23 -23 27 -59.5t-1 -66t-22 -91.5l-35 -118q193 -14 211 -334q123 45 256 147q33 25 53 4q16 -18 -14 -43q-139 -111 -293 -161v-21q-2 -143 -46 -249.5t-112.5 -161t-137 -79 t-138.5 -24.5q-59 0 -98 10q-55 -139 -66 -141q-27 -8 -31 22.5t9 79.5l16 70q-147 92 -147 448zM256 502q0 -164 12 -262l99 407q-8 27 -9 66q0 109 64 164l18 81q-182 -31 -184 -440v-16zM324 94q33 -35 98 -35q215 0 217 443h-21q-84 0 -141 22q-47 -141 -153 -430z M498 586q51 -31 139 -31h2q-6 250 -53 295q-25 -76 -88 -264z" />
<glyph unicode="&#xf9;" horiz-adv-x="1042" d="M82 489v394q0 80 10 103.5t53 55.5q43 20 68 31.5t36 -29t14 -79.5t3 -121v-342q0 -256 33 -349.5t131 -93.5q86 0 146.5 141.5t72.5 370.5v312q0 78 10.5 102.5t53.5 56.5q43 20 67.5 31.5t35.5 -29t14.5 -79.5t3.5 -121v-338q0 -266 25.5 -353t115.5 -87q160 0 209 360 q10 66 37 70q25 2 24 -47q2 -16 -2 -37q-68 -412 -289 -412q-229 0 -284 268q-86 -268 -271 -268q-74 0 -126 19.5t-98 69.5t-69.5 150t-23.5 250zM283.5 1486q-9.5 40 31.5 58q59 23 88 -12q8 -8 48.5 -56.5t54.5 -64.5t51 -56t60.5 -61.5t57.5 -50.5t66 -51q31 -18 15 -35 q-20 -18 -72 10q-209 113 -346 236q-45 43 -54.5 83z" />
<glyph unicode="&#xfa;" horiz-adv-x="1042" d="M82 489v394q0 80 10 103.5t53 55.5q43 20 68 31.5t36 -29t14 -79.5t3 -121v-342q0 -256 33 -349.5t131 -93.5q86 0 146.5 141.5t72.5 370.5v312q0 78 10.5 102.5t53.5 56.5q43 20 67.5 31.5t35.5 -29t14.5 -79.5t3.5 -121v-338q0 -266 25.5 -353t115.5 -87q160 0 209 360 q10 66 37 70q25 2 24 -47q2 -16 -2 -37q-68 -412 -289 -412q-229 0 -284 268q-86 -268 -271 -268q-74 0 -126 19.5t-98 69.5t-69.5 150t-23.5 250zM301 1159q-12 14 14 33q45 35 92.5 85t73 83t76.5 102.5t66 87.5q27 37 88 21q41 -16 34.5 -57t-49.5 -87 q-141 -147 -321 -256q-58 -37 -74 -12z" />
<glyph unicode="&#xfb;" horiz-adv-x="1042" d="M82 489v394q0 80 10 103.5t53 55.5q43 20 68 31.5t36 -29t14 -79.5t3 -121v-342q0 -256 33 -349.5t131 -93.5q86 0 146.5 141.5t72.5 370.5v312q0 78 10.5 102.5t53.5 56.5q43 20 67.5 31.5t35.5 -29t14.5 -79.5t3.5 -121v-338q0 -266 25.5 -353t115.5 -87q160 0 209 360 q10 66 37 70q25 2 24 -47q2 -16 -2 -37q-68 -412 -289 -412q-229 0 -284 268q-86 -268 -271 -268q-74 0 -126 19.5t-98 69.5t-69.5 150t-23.5 250zM82 1157q-14 14 12 35q160 121 332 348q37 45 74 43t55 -43q115 -231 268 -348q31 -25 13 -37q-23 -14 -72 16 q-119 74 -281 240q-92 -92 -327 -240q-54 -34 -74 -14z" />
<glyph unicode="&#xfc;" horiz-adv-x="1042" d="M82 489v394q0 80 10 103.5t53 55.5q43 20 68 31.5t36 -29t14 -79.5t3 -121v-342q0 -256 33 -349.5t131 -93.5q86 0 146.5 141.5t72.5 370.5v312q0 78 10.5 102.5t53.5 56.5q43 20 67.5 31.5t35.5 -29t14.5 -79.5t3.5 -121v-338q0 -266 25.5 -353t115.5 -87q160 0 209 360 q10 66 37 70q25 2 24 -47q2 -16 -2 -37q-68 -412 -289 -412q-229 0 -284 268q-86 -268 -271 -268q-74 0 -126 19.5t-98 69.5t-69.5 150t-23.5 250zM147 1325q-6 61 36 93t102 28q57 -2 79.5 -36t12.5 -81q-14 -63 -49 -94t-82 -25q-41 6 -67 41t-32 74zM541 1329 q-6 66 26.5 90.5t102.5 20.5q59 -2 83.5 -33t14.5 -78q-12 -63 -47 -94t-82 -25q-43 6 -67.5 41t-30.5 78z" />
<glyph unicode="&#xfd;" horiz-adv-x="884" d="M82 489v394q0 78 10 102.5t53 56.5q43 20 68 31.5t36 -29t14 -79.5t3 -121v-342q0 -258 33 -350.5t133 -92.5q86 0 145.5 141.5t73.5 370.5v312q0 80 10.5 103.5t53.5 55.5q43 18 66.5 30.5t35.5 -28t14.5 -79.5t2.5 -121v-694q-8 -801 -467 -801q-111 0 -184.5 66.5 t-92 152.5t9 170t97.5 117q88 43 137 -13q37 -43 4 -84q-20 -25 -57 -32q-96 -23 -113 -109q-18 -90 61 -156q66 -53 170 -53q133 0 191.5 162t60.5 567v76q-88 -213 -252 -213q-72 0 -124 19.5t-98 69.5t-70.5 150t-24.5 250zM221 1159q-12 14 15 33q45 35 92 85t72.5 83 t76.5 102.5t66 87.5q27 37 88 21q41 -16 34.5 -57t-49.5 -87q-141 -147 -321 -256q-58 -37 -74 -12z" />
<glyph unicode="&#xfe;" horiz-adv-x="931" d="M102 -193v1412q0 80 3.5 119.5t14.5 79.5t35.5 30t67.5 -31q45 -35 55.5 -59.5t8.5 -102.5q-8 -250 -25 -526q88 289 287 289q121 0 200.5 -120t79.5 -380q0 -145 -46 -253.5t-118.5 -162t-144 -78t-143.5 -24.5q-109 0 -162 47q-33 -367 -51 -375q-33 -10 -47.5 27.5 t-14.5 107.5zM266 281q8 -127 38 -174.5t106 -47.5q104 0 169.5 110t65.5 349q0 244 -20.5 340t-94.5 96q-35 0 -66.5 -15t-67.5 -59t-62.5 -116t-45 -196.5t-22.5 -286.5z" />
<glyph unicode="&#xff;" horiz-adv-x="884" d="M82 489v394q0 78 10 102.5t53 56.5q43 20 68 31.5t36 -29t14 -79.5t3 -121v-342q0 -258 33 -350.5t133 -92.5q86 0 145.5 141.5t73.5 370.5v312q0 80 10.5 103.5t53.5 55.5q43 18 66.5 30.5t35.5 -28t14.5 -79.5t2.5 -121v-694q-8 -801 -467 -801q-111 0 -184.5 66.5 t-92 152.5t9 170t97.5 117q88 43 137 -13q37 -43 4 -84q-20 -25 -57 -32q-96 -23 -113 -109q-18 -90 61 -156q66 -53 170 -53q133 0 191.5 162t60.5 567v76q-88 -213 -252 -213q-72 0 -124 19.5t-98 69.5t-70.5 150t-24.5 250zM131 1325q-6 61 36 93t101 28q57 -2 80 -36 t12 -81q-14 -63 -49 -94t-82 -25q-41 6 -66.5 41t-31.5 74zM524 1329q-6 66 27 90.5t102 20.5q59 -2 84 -33t15 -78q-12 -63 -47 -94t-82 -25q-43 6 -68 41t-31 78z" />
<glyph unicode="&#x152;" horiz-adv-x="1646" d="M0 1049q0 186 148.5 313t383.5 127q266 0 390 -201q74 72 179 109t199 37q115 0 200 -58.5t120 -140.5t23.5 -174t-76.5 -158q-47 -47 -100.5 -55t-112.5 41q-68 68 -60 145q12 57 62 47q57 -14 87 -10t56 31q25 25 35 58.5t1 70.5t-37 69.5t-87 53t-143 20.5 q-113 0 -188.5 -84t-78.5 -237v-17q0 -143 51.5 -223t151.5 -80h60q59 0 59 -20q-2 -23 -57 -33q-16 -4 -35 -4q-123 0 -196.5 -73t-76.5 -218v-16q0 -135 101.5 -222.5t232.5 -87.5q166 0 299 108.5t156 268.5q10 66 37 70q25 2 24 -47q2 -16 -2 -37q-31 -188 -187.5 -305 t-356.5 -117q-121 0 -238 40t-182 122q-74 -80 -163 -121t-169 -41q-176 0 -292 166t-118 532v82q-100 85 -100 269zM63 1073q0 -129 46 -196q23 164 89 278.5t148 161.5q59 33 114.5 40t61.5 -28q0 -12 -14 -18t-40 -11.5t-40 -11.5q-74 -35 -106.5 -151.5t-36.5 -323.5 q61 16 115.5 65.5t78.5 118.5q29 72 86 60q49 -8 60 -64q8 -45 -25 -96q-47 -72 -135 -120t-180 -52v-14q0 -651 258 -652q154 0 241 220q-10 41 -10 77v17q2 229 258 321q-213 70 -215 328v16l6 64q-63 328 -321 328q-186 0 -312.5 -99.5t-126.5 -257.5z" />
<glyph unicode="&#x153;" horiz-adv-x="1329" d="M72 489v17q2 135 41 236.5t101 157.5t127 84t134 34q35 2 37 -25q-6 -29 -39 -32q-215 0 -217 -443v-16q0 -258 33 -350.5t133 -92.5q176 0 209 295q-135 14 -213 105.5t-78 222.5q0 96 60.5 169t158.5 73q115 0 168 -52q100 145 326 146q111 0 184 -92q90 -115 18 -250 q-90 -172 -417 -291q12 -10 -9 -18q14 -160 65.5 -230.5t158.5 -70.5q49 0 106.5 15t122 52t114.5 113t64 180q10 66 37 70q25 2 25 -47q2 -16 -2 -37q-20 -119 -79 -206t-135.5 -129t-144 -59.5t-129.5 -17.5q-215 0 -313 162q-127 -162 -330 -162q-72 0 -124 19.5 t-98 69.5t-70.5 150t-24.5 250zM401 690q0 -123 62.5 -193.5t171.5 -86.5q4 57 4 94v2q0 154 -13.5 235.5t-32 101t-50.5 23.5q-59 0 -100.5 -49t-41.5 -127zM825 506q0 -51 2 -76q227 90 285 272q39 127 -18 213q-31 45 -74 46q-106 0 -150.5 -107.5t-44.5 -347.5z" />
<glyph unicode="&#x178;" horiz-adv-x="1417" d="M72 1010q0 182 110.5 290.5t253.5 108.5q174 0 279.5 -141.5t105.5 -421.5q0 -18 1 -125t1 -209v-74q0 -131 1 -183t12.5 -107.5t33 -70t64.5 -14.5q41 0 80 27t80 89.5t69.5 189.5t36.5 305q2 248 2 567q0 80 10.5 104.5t53.5 57.5q43 20 67.5 30.5t35.5 -29.5t14 -80 t3 -120l-4 -960q-2 -223 -50 -385t-131 -250t-178 -127t-210 -39q-145 0 -223 107.5t-59.5 230.5t112.5 168q88 41 135 -10q39 -43 6 -86q-18 -25 -57 -35q-96 -23 -113 -109q-18 -90 62 -155q66 -53 170 -54q168 0 260 169t94 562v50q-51 -152 -128 -216.5t-157 -64.5 q-88 0 -144 38t-93 154.5t-37 319.5q0 45 -1 136t-1 210q0 203 -25.5 307.5t-73.5 137t-139 34.5q-94 0 -176 -95t-82 -236q0 -174 74 -251t174 -36q84 37 96 119q10 66 -34 82q-27 10 -64 -11q-70 -39 -106 13q-33 45 8 96q25 31 71 45q80 25 139.5 -54t42 -187.5 t-123.5 -151.5q-143 -59 -245.5 29t-102.5 311zM682 1735q-6 61 36 93t101 27q57 -2 80 -35.5t12 -80.5q-14 -63 -49 -94t-82 -25q-41 6 -66.5 41t-31.5 74zM1075 1739q-6 66 27 90t102 20q59 -2 84 -32.5t15 -77.5q-12 -63 -47 -94t-82 -25q-43 6 -68 41t-31 78z" />
<glyph unicode="&#x2c6;" horiz-adv-x="968" d="M106 1157q-14 14 13 35q160 121 332 348q37 45 73.5 43t55.5 -43q115 -231 268 -348q31 -25 12 -37q-23 -14 -72 16q-119 74 -280 240q-92 -92 -328 -240q-54 -34 -74 -14z" />
<glyph unicode="&#x2dc;" horiz-adv-x="901" d="M109 1264q45 94 135 149t202 2q2 -2 7 -4q6 -2 6 -4q92 -45 173 -37t111 72q14 31 37 2q33 -39 11 -84q-39 -82 -144.5 -115t-224.5 17l-10 6q-211 98 -271 -27q-10 -25 -27 -13.5t-5 36.5z" />
<glyph unicode="&#x2000;" />
<glyph unicode="&#x2001;" horiz-adv-x="2066" />
<glyph unicode="&#x2002;" />
<glyph unicode="&#x2003;" horiz-adv-x="2066" />
<glyph unicode="&#x2004;" horiz-adv-x="688" />
<glyph unicode="&#x2005;" horiz-adv-x="516" />
<glyph unicode="&#x2006;" horiz-adv-x="344" />
<glyph unicode="&#x2007;" horiz-adv-x="344" />
<glyph unicode="&#x2008;" horiz-adv-x="258" />
<glyph unicode="&#x2009;" horiz-adv-x="411" />
<glyph unicode="&#x200a;" horiz-adv-x="114" />
<glyph unicode="&#x2010;" horiz-adv-x="851" d="M104 479q-8 23 19 32t74 9q29 0 188.5 5t202.5 5q57 0 84.5 -2t56.5 -10t20.5 -25.5t-22.5 -48.5q-23 -31 -40 -37t-73 -6q-92 0 -298 29t-212 49z" />
<glyph unicode="&#x2011;" horiz-adv-x="851" d="M104 479q-8 23 19 32t74 9q29 0 188.5 5t202.5 5q57 0 84.5 -2t56.5 -10t20.5 -25.5t-22.5 -48.5q-23 -31 -40 -37t-73 -6q-92 0 -298 29t-212 49z" />
<glyph unicode="&#x2012;" horiz-adv-x="851" d="M104 479q-8 23 19 32t74 9q29 0 188.5 5t202.5 5q57 0 84.5 -2t56.5 -10t20.5 -25.5t-22.5 -48.5q-23 -31 -40 -37t-73 -6q-92 0 -298 29t-212 49z" />
<glyph unicode="&#x2013;" horiz-adv-x="1122" d="M104 596q-8 23 19 32t74 9q29 0 322.5 5t336.5 5q113 0 147.5 -14.5t-6.5 -69.5q-23 -31 -40 -38t-72 -7q-109 0 -442 29t-339 49z" />
<glyph unicode="&#x2014;" horiz-adv-x="1376" d="M104.5 595.5q-6.5 20.5 19.5 31t73 10.5q29 0 449.5 5t463.5 5q57 0 86 -2t57.5 -10t20.5 -24.5t-23 -47.5q-23 -31 -40 -38t-72 -7q-125 0 -576.5 28.5t-458 49z" />
<glyph unicode="&#x2018;" horiz-adv-x="389" d="M104 1085q8 98 60.5 230.5t79.5 140.5q18 4 25 -7t6 -40t-5 -61.5t-8 -81.5t-4 -88q0 -41 9 -89.5t15.5 -74t3.5 -50t-24.5 -34.5t-66.5 -10q-101 -1 -91 165z" />
<glyph unicode="&#x2019;" horiz-adv-x="389" d="M103 1427.5q3 24.5 25 35t67 10.5q100 0 90 -166q-8 -98 -60.5 -230.5t-79.5 -140.5q-18 -4 -25 7t-6 40t5 61.5t8 82t4 87.5q0 41 -9 89.5t-15.5 74t-3.5 50z" />
<glyph unicode="&#x201a;" horiz-adv-x="428" d="M109 -203q-14 10 2 37q102 160 75 432q-4 47 54 74q39 18 63.5 -17.5t20.5 -97.5q-2 -102 -48.5 -210.5t-101.5 -180.5q-40 -53 -65 -37z" />
<glyph unicode="&#x201c;" horiz-adv-x="708" d="M104 1081q2 102 48.5 211t101.5 181q41 53 65 36q14 -8 -2 -34q-102 -162 -75 -435q4 -45 -54 -71q-39 -18 -63.5 17.5t-20.5 94.5zM383 1081q2 100 48 209t101 183q41 49 66 38q18 -8 0 -36q-104 -166 -78 -435q4 -47 -51 -71q-39 -18 -63.5 17.5t-22.5 94.5z" />
<glyph unicode="&#x201d;" horiz-adv-x="708" d="M111 965q-18 8 0 36q104 164 77 433q-4 47 52 73q39 18 63.5 -17.5t22.5 -96.5q-2 -100 -48.5 -209t-101.5 -183q-40 -50 -65 -36zM389 965q-14 10 2 36q102 160 76 433q-4 47 53 73q41 18 64.5 -17.5t19.5 -96.5q-2 -102 -48 -211t-101 -181q-41 -52 -66 -36z" />
<glyph unicode="&#x201e;" horiz-adv-x="708" d="M111 -166q104 164 77 432q-4 47 52 74q39 18 63.5 -17.5t22.5 -97.5q-2 -100 -48.5 -208.5t-101.5 -182.5q-41 -51 -65 -37q-18 8 0 37zM389 -203q-14 10 2 37q102 160 76 432q-4 47 53 74q41 18 64.5 -17.5t19.5 -97.5q-2 -102 -48 -210.5t-101 -180.5q-41 -53 -66 -37z " />
<glyph unicode="&#x2022;" horiz-adv-x="671" d="M102 561q25 209 226 195q176 -16 170 -195q-2 -106 -72 -161.5t-154 -41.5q-82 10 -130 65.5t-40 137.5z" />
<glyph unicode="&#x2026;" horiz-adv-x="1560" d="M184 115q0 41 31 67.5t76 26.5q106 0 106 -94q0 -45 -31.5 -83t-74.5 -38t-75 38t-32 83zM705 115q0 41 30.5 67.5t75.5 26.5q106 0 107 -94q0 -45 -32 -83t-75 -38t-74.5 38t-31.5 83zM1225 115q0 41 30.5 67.5t75.5 26.5q106 0 107 -94q0 -45 -32 -83t-75 -38t-74.5 38 t-31.5 83z" />
<glyph unicode="&#x202f;" horiz-adv-x="411" />
<glyph unicode="&#x2039;" horiz-adv-x="665" d="M106 532q-6 20 6.5 40t25 29t48.5 32q201 125 338 319q18 29 33 9q16 -20 -10 -68q-25 -47 -264 -344q231 -283 264 -342q31 -55 8 -72q-14 -10 -31 12q-127 182 -329 314q-83 55 -89 71z" />
<glyph unicode="&#x203a;" horiz-adv-x="665" d="M111 139q-16 20 8 68q12 23 111.5 149.5t154.5 192.5q-57 70 -155.5 196.5t-110.5 147.5q-31 55 -6 72q14 10 30 -13q125 -180 328 -313q2 -2 24.5 -16.5t41 -29.5t22.5 -26q10 -27 -8.5 -46t-61.5 -48q-6 -4 -10 -6q-205 -131 -336 -320q-18 -28 -32 -8z" />
<glyph unicode="&#x205f;" horiz-adv-x="516" />
<glyph unicode="&#x20ac;" horiz-adv-x="1331" d="M104 418q-6 18 15.5 26.5t60.5 8.5q6 0 32 1t69 3t81 2q-8 53 -14 141q-242 14 -244 27q-6 18 15.5 26.5t60.5 8.5q41 0 166 6v47q2 150 38 273.5t92 204.5t126 136t137.5 80t130.5 25q115 0 201 -58.5t121 -140.5t22.5 -174t-77.5 -158q-45 -47 -100.5 -55t-112.5 41 q-70 70 -60 145q12 57 64 47q57 -14 85.5 -10t55.5 31q25 25 35 58.5t2 70.5t-36 69.5t-87 53t-143 20.5q-129 0 -219.5 -165t-92.5 -482v-16q0 -23 2 -35q266 12 293 12q90 0 115 -10t0 -60q-18 -25 -32.5 -30.5t-59.5 -5.5q-74 0 -314 10q4 -82 9 -125q262 12 282 12 q90 0 115 -10t0 -59q-18 -25 -32.5 -31t-59.5 -6q-20 0 -295 8q53 -322 235 -322q160 0 258.5 104.5t122.5 272.5q10 68 37 70q29 0 23 -62q0 -10 -2 -22q-31 -197 -154 -309.5t-315 -112.5q-133 0 -234.5 93t-144.5 296q-267 15 -273 29z" />
<glyph unicode="&#x2122;" horiz-adv-x="2121" d="M105.5 922.5q-7.5 76.5 21.5 151.5t103.5 129t177.5 54q94 0 248.5 -57t240.5 -47q33 4 49 8q4 66 22.5 84.5t63.5 -10.5l10 -8q29 63 -24 108q-35 27 -103 2q-35 -12 -41 32t27 87q35 35 74 34t72 -28q57 -47 61 -122.5t-43 -135.5q6 -12 6 -57q59 115 158 115 q70 0 112.5 -41t59.5 -152q31 100 81 142t103 42q86 0 132 -65.5t46 -247.5v-276q0 -164 16.5 -219.5t71.5 -55.5q96 0 129 225q6 39 23 41q20 4 16 -43q-2 -4 -2 -8q-43 -254 -178 -254q-203 0 -203 314v276v78q2 125 -7 160.5t-56 35.5q-25 0 -47.5 -13t-47 -46t-44 -99.5 t-27.5 -160.5v-449q2 -63 -26.5 -81.5t-80.5 -14.5q-8 0 -13 2t-8 6t-4 9.5t-1 15.5t1 19.5t2 28t1 34.5q0 35 1 237.5t1 245.5v78q2 125 -7 161t-56 36q-109 0 -152 -211q-4 -76 -21 -248v-6q-39 -399 -61 -408q-20 -6 -29.5 17.5t-9.5 66.5q0 25 1 332t1 346v12 q-16 -4 -41 -8q-129 -14 -301 19q8 -33 8 -107v-182q-6 -496 -301 -496q-90 0 -140 69.5t-41 148.5t69 108q59 29 90 -17q27 -39 -6 -65q-10 -8 -25 -12q-70 -16 -72 -80q-2 -66 66 -101q35 -16 80 -16q82 0 117.5 100.5t37.5 352.5v215q0 49 6.5 63t30.5 33q-78 14 -127 14 q-90 0 -146 -19.5t-74.5 -47t-18.5 -60t12 -58.5t29 -42q29 -29 90 -12q25 4 37 -17.5t7 -55.5t-30 -58q-37 -31 -77 -26t-68 34q-45 45 -52.5 121.5z" />
<glyph unicode="&#xe000;" horiz-adv-x="1075" d="M0 1075h1075v-1075h-1075v1075z" />
<glyph unicode="&#xfb01;" horiz-adv-x="948" d="M-491.5 -403q-14.5 86 17.5 169.5t101 116.5q88 41 135 -10q39 -43 7 -86q-18 -25 -58 -35q-104 -25 -123 -112q-16 -88 66 -152q68 -53 176 -53q127 0 188.5 167t63.5 564v502q-2 47 -16.5 57t-55.5 10q-29 0 -39 14.5t2.5 29t38.5 14.5q39 0 53.5 11t16.5 58v53 q0 526 412 527q137 0 212.5 -83t66.5 -178.5t-87 -131.5q-86 -41 -135 30q-41 59 -10 117q18 31 59 41q2 0 2 1t2 1q4 0 12 4q53 20 27 68q-35 61 -151 69q-14 2 -31 2q-106 0 -150.5 -112.5t-44.5 -354.5v-28q2 -59 36 -72.5t140 -13.5q29 0 39.5 -14.5t-2 -29t-39.5 -14.5 q-106 0 -139 -14t-35 -74v-479q-2 -195 -28.5 -339t-66.5 -231t-102.5 -139.5t-125 -71t-144.5 -18.5q-123 0 -199.5 67t-91 153zM555 506v242q0 80 10 103t53 56q43 20 68 31.5t36 -29.5t14 -79.5t3 -120.5v-203q0 -266 26 -353t116 -87q160 0 209 360q10 66 36 70 q25 2 25 -47q2 -16 -2 -37q-68 -412 -289 -412q-141 0 -223 108.5t-82 397.5z" />
<glyph unicode="&#xfb02;" horiz-adv-x="946" d="M-491.5 -403q-14.5 86 17.5 169.5t101 116.5q88 41 135 -10q39 -43 7 -86q-18 -25 -58 -35q-104 -25 -123 -112q-16 -88 66 -152q68 -53 176 -53q127 0 188.5 167t63.5 564v502q-2 47 -16.5 57t-55.5 10q-29 0 -39 14.5t2.5 29t38.5 14.5q39 0 53.5 11t16.5 58v53 q0 246 98.5 380.5t282.5 134.5q57 0 104 9t67.5 17t41 5t41.5 -23q23 -23 22 -240v-692q0 -266 26 -353t114 -87q160 0 211 360q10 68 36 70q29 0 23 -62q0 -10 -2 -22q-68 -412 -287 -412q-141 0 -223 108.5t-82 397.5v670q0 201 -106 200q-104 0 -143.5 -107.5 t-39.5 -353.5v-24q4 -61 42 -75.5t134 -14.5q29 0 39.5 -14.5t-2 -29t-39.5 -14.5q-66 0 -95.5 -4t-53 -25.5t-25.5 -64.5v-473q-2 -195 -28.5 -339t-66.5 -231t-102.5 -139.5t-125 -71t-144.5 -18.5q-123 0 -199.5 67t-91 153z" />
<glyph unicode="&#xfb03;" horiz-adv-x="1564" d="M-489.5 -403q-14.5 86 17.5 169.5t101 116.5q88 41 135 -10q39 -43 7 -86q-18 -25 -58 -35q-104 -25 -123 -110q-20 -86 62 -150q68 -55 180 -55q125 0 187.5 166t64.5 563v502q-2 47 -16.5 57t-55.5 10q-45 0 -43 29t43 29t55.5 11t16.5 58q0 12 -1 24.5t-1 19.5v9 q0 256 91 384t302 128q102 0 149.5 -75.5t19.5 -168.5t-120 -136q-88 -41 -133 8q-37 41 -2 84q18 23 57 32q61 14 100.5 62.5t17 92.5t-114.5 44q-102 0 -142.5 -105.5t-40.5 -349.5v-36q2 -55 38 -65.5t183 -10.5q29 0 39.5 -14.5t-2 -30t-39.5 -15.5q-143 0 -180 -12 t-39 -65v-488q-2 -266 -47 -434q88 37 133 -16q37 -43 2 -86q-18 -23 -55 -33q-115 -27 -135 -115t65 -149q72 -51 189 -52q88 0 143 55.5t84 178.5t39 265t12 370q2 289 2 506q-2 47 -16 57t-55 10q-45 0 -43 29t43 29t55 12t16 59v54q0 340 88 502.5t322 162.5 q106 0 179 -48t97.5 -118.5t24.5 -146.5t-30.5 -137.5t-75.5 -81.5q-86 -41 -136 30q-41 59 -10 115q18 33 60 43h4q2 2 4 2q4 2 6 2q49 31 55 93.5t-54.5 125t-154.5 62.5q-125 0 -160.5 -133.5t-35.5 -472.5v-31q4 -59 36.5 -71.5t141.5 -12.5q29 0 39 -14.5t-2.5 -29 t-38.5 -14.5q-104 0 -138 -15t-38 -75l2 -479q-4 -496 -125 -719t-373 -223q-147 0 -224 67.5t-85 170.5q-102 -94 -277 -95q-123 0 -198.5 67t-90 153zM1171 508v240q0 80 10.5 104.5t53.5 56.5q43 20 67.5 30.5t36 -29.5t14.5 -79.5t3 -119.5v-203q0 -266 25.5 -354 t113.5 -88q158 0 211 362q10 68 37 68q29 2 22 -60q0 -10 -2 -22q-68 -414 -286 -414q-141 0 -223.5 108.5t-82.5 399.5z" />
<glyph unicode="&#xfb04;" horiz-adv-x="1556" d="M-489.5 -403q-14.5 86 16.5 169.5t100 116.5q88 41 135 -10q39 -43 7 -86q-18 -25 -58 -35q-102 -25 -121 -110q-20 -86 62 -152q68 -53 180 -53q125 0 186.5 166t63.5 563v502q-2 47 -15.5 57t-56.5 10q-29 0 -39 14.5t2.5 29t38.5 14.5q39 0 53.5 11t16.5 58v53 q0 256 91 384t302 128q100 0 147.5 -75.5t19.5 -168.5t-120 -136q-88 -41 -133 8q-37 41 -2 84q20 23 57 32q37 8 69 32t45 51.5t11 54t-33.5 44t-86.5 17.5q-102 0 -142.5 -105.5t-40.5 -349.5v-36q2 -55 38 -65.5t181 -10.5q43 0 43 -30t-43 -30q-143 0 -180 -12t-39 -65 v-488q-2 -266 -47 -434q86 37 131 -16q37 -43 2 -86q-18 -23 -55 -33q-115 -27 -135 -115q-20 -86 65 -147q72 -53 191 -54q168 0 221 206t55 667q-2 442 -2 502q-2 45 -15 56t-54 11q-45 0 -43 29t43 29t54 11t15 58v189q0 246 98.5 380t282.5 134q57 0 105.5 9t69 17t41 5 t41 -23.5t20.5 -237.5v-829q0 -266 25.5 -353t115.5 -87q160 0 209 360q10 66 37 70q25 2 24 -47q2 -16 -2 -37q-68 -412 -289 -412q-141 0 -223 108.5t-82 397.5v805q0 102 -23.5 151t-82.5 49q-104 0 -143 -107.5t-39 -352.5v-160q4 -61 41.5 -75.5t134.5 -14.5 q45 0 43 -29t-43 -29q-66 0 -95.5 -4t-53 -25.5t-27.5 -64.5q0 -12 1 -227t1 -244q0 -496 -120 -720t-374 -224q-147 0 -224 67.5t-85 170.5q-102 -94 -277 -95q-123 0 -198.5 67t-90 153z" />
</font>
</defs>
</svg>
